<?xml version="1.0" standalone="no"?>
<!DOCTYPE svg PUBLIC "-//W3C//DTD SVG 1.1//EN" "http://www.w3.org/Graphics/SVG/1.1/DTD/svg11.dtd" >
<svg xmlns="http://www.w3.org/2000/svg">
<metadata></metadata>
<defs>
<font id="lmroman8bold" horiz-adv-x="1253" >
<font-face units-per-em="2048" ascent="1638" descent="-410" />
<missing-glyph horiz-adv-x="835" />
<glyph horiz-adv-x="2048" />
<glyph horiz-adv-x="2048" />
<glyph unicode="&#xd;" horiz-adv-x="681" />
<glyph unicode=" "  horiz-adv-x="835" />
<glyph unicode="&#x09;" horiz-adv-x="835" />
<glyph unicode="&#xa0;" horiz-adv-x="835" />
<glyph unicode="!" horiz-adv-x="761" d="M217 163.5q0 67.5 48 116t116 48.5t116 -48.5t48 -116t-48 -115.5t-116 -48t-116 48t-48 115.5zM217 1292v6q0 70 51 111t112.5 41t113 -40t51.5 -112l-6 -53l-99 -721q-4 -35 -13 -45t-46 -10t-46 10t-13 47l-99 719q-2 12 -3 22.5t-2 15.5t-1 9z" />
<glyph unicode="&#x22;" horiz-adv-x="1060" d="M223 1309q-8 49 31 87t94 38t94 -38t31 -87l-67 -449h-115zM588 1309q-8 49 30.5 87t94 38t94.5 -38t31 -87l-68 -449h-115z" />
<glyph unicode="#" horiz-adv-x="2088" d="M139 759.5q0 69.5 103 69.5h557l174 531q18 61 71 61q29 0 49.5 -20.5t20.5 -48.5q0 -10 -10 -39l-160 -484h412l174 531q18 61 72 61q29 0 49 -20.5t20 -48.5q0 -10 -10 -39l-160 -484h346q102 0 102.5 -69.5t-89.5 -69.5h-406l-115 -356h521q90 0 90 -69.5t-103 -69.5 h-557l-174 -531q-18 -61 -72 -61q-29 0 -49 20.5t-20 48.5q0 10 10 39l160 484h-412l-174 -531q-18 -61 -72 -61q-29 0 -49 20.5t-20 48.5q0 10 10 39l160 484h-346q-102 0 -102.5 69.5t89.5 69.5h406l115 356h-521q-90 0 -90 69.5zM782 334h410l115 356h-410z" />
<glyph unicode="$" d="M139 381q0 72 41 108.5t99 36.5q59 0 98 -38.5t39 -98t-38 -97.5t-91 -42q74 -137 286 -156v500q-63 12 -98 21.5t-94 38t-109 71.5q-133 125 -133 293q0 156 107.5 277.5t326.5 138.5v102h107v-102q207 -10 320.5 -110.5t113.5 -256.5q0 -76 -45 -110.5t-94 -34.5 q-53 0 -95 36.5t-42 102.5q0 49 29.5 88t95.5 49q-68 111 -283 129v-444q127 -20 218 -74.5t135 -124.5t62.5 -131.5t18.5 -120.5q0 -70 -20.5 -136.5t-66.5 -135t-135 -115.5t-212 -57v-103h-107v103q-227 16 -330.5 132t-103.5 261zM315 1116q0 -72 64.5 -130t193.5 -81 v422q-123 -10 -190.5 -68.5t-67.5 -142.5zM680 94q121 12 189.5 78t68.5 160q0 92 -72.5 157.5t-185.5 81.5v-477z" />
<glyph unicode="%" horiz-adv-x="2088" d="M139 1124q0 193 107.5 302.5t265.5 109.5q98 0 182 -59q233 -160 486 -160q266 0 428 182q33 37 63 37q29 0 49.5 -20.5t20.5 -49.5q0 -23 -25 -53l-1237 -1495q-29 -33 -61 -33q-29 0 -49.5 20.5t-20.5 49.5q0 27 29 59l1040 1256q-115 -39 -235 -39q-186 0 -375 84 q29 -78 29 -191q0 -201 -93.5 -307t-230.5 -106q-156 0 -264.5 107.5t-108.5 305.5zM367 1122q0 -53 1 -83.5t9 -83t22.5 -82t45 -53t73.5 -23.5q76 0 139.5 75.5t63.5 251.5q0 168 -62.5 247t-140.5 79q-43 0 -73.5 -23.5t-45 -53.5t-22.5 -82t-9 -82.5t-1 -86.5zM1253 299 q0 193 107.5 302.5t265.5 109.5q137 0 230.5 -106.5t93.5 -307.5q0 -197 -92.5 -304.5t-231.5 -107.5q-156 0 -264.5 107.5t-108.5 306.5zM1481 299q0 -53 1 -84t9 -84t22.5 -83t45 -53.5t73.5 -23.5q78 0 140.5 78t62.5 248q0 174 -63.5 251t-139.5 77q-43 0 -73.5 -23.5 t-45 -53.5t-22.5 -82t-9 -83t-1 -84z" />
<glyph unicode="&#x26;" horiz-adv-x="1949" d="M104 285q0 55 27 105t49.5 71.5t61.5 52.5l221 174q-88 209 -88 387q0 172 123 273.5t270 101.5q117 0 184.5 -87t67.5 -194q0 -80 -74 -172t-244 -231q104 -213 377 -477q211 180 422 497q-47 16 -129 17v106q111 -6 242 -6q150 0 211 6v-106h-35q-125 0 -150 -21 q-2 0 -47 -57q-94 -129 -146 -197.5t-131 -155.5t-157 -155q166 -139 305 -139q25 0 54.5 5t72.5 19.5t73 49t32 86.5h114q-4 -125 -108.5 -196t-247.5 -71q-217 0 -467 125q-199 -125 -428 -125q-195 0 -325 86t-130 228zM381 352q0 -57 15.5 -114.5t63.5 -108.5t122 -51 q160 0 307 82q-227 156 -387 448q-121 -84 -121 -256zM602 1159q0 -145 64 -311q80 70 119.5 108.5t79.5 100t40 112.5q0 68 -33.5 131.5t-99.5 63.5q-70 0 -120 -58.5t-50 -146.5z" />
<glyph unicode="'" horiz-adv-x="696" d="M223 1309q-8 49 31 87t94 38t94 -38t31 -87l-67 -449h-115z" />
<glyph unicode="(" horiz-adv-x="974" d="M233 512q0 526 369 893q45 41 103.5 86t85.5 45q43 0 43 -37q0 -14 -35 -47q-348 -309 -348 -940q0 -627 352 -946q31 -27 31 -41q0 -37 -43 -37q-41 0 -161 106.5t-208 245.5q-188 301 -189 672z" />
<glyph unicode=")" horiz-adv-x="974" d="M139 -475q0 14 35 47q348 309 348 940q0 627 -352 946q-31 25 -31 41q0 37 43 37q41 0 161 -106.5t208 -245.5q188 -301 188 -672q0 -526 -368 -893q-45 -41 -103.5 -86t-85.5 -45q-43 0 -43 37z" />
<glyph unicode="*" d="M162 903q0 68 69 88l281 90l-281 90q-70 23 -69 89q0 41 28.5 73.5t69.5 32.5q27 0 59 -23l259 -184l-46 256l-6 35q0 35 30 60.5t71 25.5t70.5 -25.5t29.5 -60.5q0 -4 -2 -14.5t-2 -12.5l-47 -264l258 184q33 23 59 23q41 0 70 -33t29 -73q0 -68 -70 -89l-281 -90 l316 -104q35 -23 35 -74q0 -41 -29 -73.5t-70 -32.5q-27 0 -59 22l-258 185l45 -256l6 -35q0 -35 -29.5 -60.5t-70.5 -25.5t-71 25.5t-30 60.5q0 4 2 14t2 12l48 265l-259 -185q-33 -23 -59 -22q-41 0 -69.5 32.5t-28.5 73.5z" />
<glyph unicode="+" horiz-adv-x="1949" d="M139 512q0 70 94 70h672v671q0 94 69.5 94.5t69.5 -94.5v-671h672q94 0 94 -70t-94 -70h-672v-671q0 -94 -69.5 -94.5t-69.5 94.5v671h-672q-94 0 -94 70z" />
<glyph unicode="," horiz-adv-x="696" d="M184 163.5q0 67.5 44 116t120 48.5q84 0 138.5 -73.5t54.5 -186.5q0 -82 -23.5 -159t-57.5 -130t-71 -95t-65.5 -61.5t-40.5 -19.5q-16 0 -30.5 14t-14.5 31q0 14 24 39q174 133 191 346q-39 -33 -105 -33q-76 0 -120 48t-44 115.5z" />
<glyph unicode="-" horiz-adv-x="835" d="M29 348v215h665v-215h-665z" />
<glyph unicode="." horiz-adv-x="696" d="M184 163.5q0 67.5 48.5 116t116 48.5t115.5 -48.5t48 -116t-48 -115.5t-115.5 -48t-116 48t-48.5 115.5z" />
<glyph unicode="/" d="M139 -442q0 20 13 45l821 1876q27 57 71 57q29 0 49.5 -20.5t20.5 -49.5q0 -20 -12 -45l-821 -1876q-27 -57 -72 -57q-29 0 -49.5 20.5t-20.5 49.5z" />
<glyph unicode="0" d="M98 653q0 66 2 114t13.5 125t31 134t59.5 120.5t94 104.5t138 69t191 28q92 0 168.5 -19.5t129 -56.5t93.5 -80t64.5 -103.5t40 -110.5t22.5 -116.5t8 -110t2 -98.5q0 -63 -2 -110t-13.5 -123t-30.5 -131.5t-58 -119t-93.5 -104t-139.5 -67.5t-191 -27q-94 0 -171 19.5 t-129.5 56.5t-93 79t-64.5 101.5t-39 108.5t-21.5 114.5t-8.5 106.5t-2 96zM375 678q0 -231 12 -348t28.5 -150t55.5 -67q68 -55 156 -56q104 0 159 62q39 37 54.5 69.5t27 147.5t11.5 342q0 276 -17 377q-10 68 -40.5 113.5t-71.5 63t-69 24t-54 6.5q-74 0 -143.5 -43 t-88.5 -142q-20 -102 -20 -399z" />
<glyph unicode="1" d="M188 1110v107h45q283 0 449 131q63 0 78.5 -9.5t15.5 -60.5v-1172h303v-106q-76 6 -434 6q-362 0 -436 -6v106h307v1045q-139 -41 -283 -41h-45z" />
<glyph unicode="2" d="M125 0v43q0 31 3 39t22 27l452 421q229 213 229 416q0 125 -76.5 210t-209.5 85q-123 0 -203 -59q96 -37 96 -146q0 -74 -49 -115.5t-108 -41.5q-55 0 -105.5 38.5t-50.5 120.5q0 141 133 225.5t336 84.5q236 0 385 -110t149 -290q0 -178 -194 -332 q-12 -10 -161.5 -113.5t-311.5 -230.5h282q193 0 215 13q35 18 56 182h114l-67 -467h-936z" />
<glyph unicode="3" d="M104 295q0 78 48.5 123t117.5 45q72 0 119 -46t47 -120q0 -113 -108 -158q113 -72 262 -71q66 0 113 23.5t69.5 54t34.5 79.5t13 76t1 68q0 43 -2 71.5t-14 76.5t-36 78t-72 52.5t-115 22.5h-101q-23 0 -34 1t-20 11t-9 30.5t9 30t23.5 12.5t51.5 5q92 6 129 16t78 55 q76 100 75 232q0 35 -4 58.5t-19.5 60.5t-57 57.5t-109.5 20.5q-141 0 -232 -78q115 -29 115 -148q0 -68 -44 -109.5t-107 -41.5q-55 0 -103.5 39t-48.5 116q0 129 119 219.5t313 90.5q221 0 347 -82t126 -209q0 -219 -280 -334q164 -37 257 -133t93 -223q0 -156 -136 -276 t-413 -120q-215 0 -355.5 88t-140.5 236z" />
<glyph unicode="4" d="M70 315v107l747 897q16 20 31.5 25.5t50.5 5.5q45 0 58.5 -11.5t13.5 -58.5v-858h213v-107h-213v-209h213v-106q-92 6 -359 6q-295 0 -370 -6v106h243v209h-628zM197 422h528v633z" />
<glyph unicode="5" d="M125 324q0 76 46 113.5t101 37.5q59 0 103.5 -40t44.5 -107q0 -53 -33 -95.5t-94 -50.5q41 -53 112.5 -83.5t151.5 -30.5q76 0 129 24.5t80 55t40 87t15 89t2 92.5q0 63 -1 97t-11 88t-29.5 83t-58.5 51.5t-96 22.5q-193 0 -289 -117q-25 -29 -57 -29q-27 0 -39.5 10.5 t-14.5 22.5t-2 37v602q0 63 35 64q10 0 27 -9q170 -57 342 -57q174 0 334 55l30 11q37 0 37 -43q0 -35 -61.5 -95.5t-114.5 -95.5q-154 -98 -346 -98q-82 0 -148 10v-252q111 70 275 70q236 0 364.5 -125t128.5 -307q0 -188 -149.5 -314.5t-413.5 -126.5 q-195 0 -317.5 104.5t-122.5 248.5z" />
<glyph unicode="6" d="M104 649q0 180 57.5 319.5t153 219.5t209 120t238.5 40q166 0 244.5 -79t78.5 -188q0 -63 -38.5 -102t-100.5 -39q-59 0 -98 39t-39 98q0 53 31.5 89t72.5 46q-55 47 -149 48q-88 0 -172 -43t-131 -132q-63 -115 -64 -374q96 152 254 151q217 0 355 -117 q143 -122 143 -325q0 -205 -141.5 -327t-372.5 -122q-133 0 -233.5 47.5t-156 115t-89 164.5t-43 178t-9.5 173zM401 434q0 -174 35 -244q57 -123 197 -122q66 0 109.5 20.5t65 46t33 80.5t13.5 93t2 114t-1 113.5t-12.5 92t-31.5 80t-61 46t-103 20.5q-117 0 -181.5 -97 t-64.5 -243z" />
<glyph unicode="7" d="M139 852l78 532h115q2 -16 5 -24t23.5 -17.5t61.5 -11.5h34.5t32.5 -2q170 -10 254 -10h476v-37q0 -33 -3.5 -42t-21.5 -28l-352 -387q-12 -12 -33 -41.5t-55.5 -128t-46.5 -217.5q-10 -117 -11 -262q0 -78 -5 -105.5t-27 -52.5q-37 -47 -105 -47q-14 0 -29.5 3t-44 15.5 t-47 47.5t-18.5 88q0 287 166 563q51 80 90 128t201 231h-334q-207 0 -232 -13q-35 -14 -57 -182h-115z" />
<glyph unicode="8" d="M104 330q0 227 267 346q-88 49 -142.5 129t-54.5 178q0 158 119 261.5t338 103.5q63 0 124.5 -9.5t142.5 -37t131 -94t50 -167.5q0 -74 -37.5 -134t-75.5 -89t-96 -59q279 -144 279 -375q0 -180 -136 -296t-390 -116q-231 0 -375 88t-144 271zM299 330q0 -127 90 -194.5 t242 -67.5q55 0 104 8t102.5 27.5t85 62.5t31.5 104q0 92 -127 164l-233 123l-107 53l-20 -10t-45 -30.5t-57.5 -53.5t-45 -79t-20.5 -107zM344 1104q0 -70 96 -121l322 -168q147 86 147 225q0 102 -74.5 161t-213.5 59q-276 0 -277 -156z" />
<glyph unicode="9" d="M104 901q0 207 144.5 327t382.5 120q283 0 413 -209q105 -166 105 -467q0 -180 -53.5 -319.5t-144.5 -220.5t-199.5 -121t-229.5 -40q-174 0 -264 76t-90 191q0 63 39 102t100 39q59 0 98 -39t39 -98q0 -98 -94 -133q63 -41 168 -41q102 0 176 50t109 122q53 117 53 372 q-94 -154 -254 -153q-127 0 -205 28.5t-151 87.5q-141 121 -142 326zM397 899q0 -76 1 -112.5t12.5 -92t32 -81t61.5 -46t102 -20.5q115 0 180.5 95t65.5 253q0 43 -1 69.5t-6 77t-20.5 82t-38 66.5t-61.5 52.5t-92 17.5q-57 0 -99 -12.5t-67 -41t-40 -55.5t-21.5 -77 t-7.5 -81.5t-1 -93.5z" />
<glyph unicode=":" horiz-adv-x="696" d="M184 163.5q0 67.5 48.5 116t116 48.5t115.5 -48.5t48 -116t-48 -115.5t-115.5 -48t-116 48t-48.5 115.5zM184 745.5q0 67.5 48.5 115.5t116 48t115.5 -48t48 -115.5t-48 -115.5t-115.5 -48t-116 48t-48.5 115.5z" />
<glyph unicode=";" horiz-adv-x="696" d="M184 164q0 70 45 117t117 47q82 0 127 -71.5t45 -188.5q0 -78 -20.5 -154t-51 -130t-64.5 -96t-60.5 -63.5t-38.5 -21.5q-16 0 -30.5 14t-14.5 30.5t22 35.5q152 139 170 335q-37 -18 -82 -18q-76 0 -120 48t-44 116zM184 745.5q0 67.5 48.5 115.5t116 48t115.5 -48 t48 -115.5t-48 -115.5t-115.5 -48t-116 48t-48.5 115.5z" />
<glyph unicode="&#x3c;" horiz-adv-x="1830" d="M197 514.5q0 40.5 51 63.5l1282 612q23 12 39 12q29 0 46 -19.5t17 -41.5q0 -39 -51 -66l-1178 -563l1178 -561q51 -25 51 -66q0 -23 -17.5 -42t-45.5 -19q-16 0 -45 14l-1276 611q-51 25 -51 65.5z" />
<glyph unicode="=" horiz-adv-x="1949" d="M139 759.5q0 69.5 103 69.5h1466q102 0 102 -69.5t-90 -69.5h-1491q-90 0 -90 69.5zM139.5 264.5q-0.5 69.5 89.5 69.5h1491q90 0 90 -69.5t-102 -69.5h-1466q-102 0 -102.5 69.5z" />
<glyph unicode="&#x3e;" horiz-adv-x="1830" d="M197 -115q0 41 51 66l1177 563l-1177 561q-51 27 -51 66q0 25 18 43t43 18q18 0 47 -14l1276 -610q51 -23 51 -64q0 -43 -51 -65l-1282 -613q-20 -12 -39 -12q-29 0 -46 19.5t-17 41.5z" />
<glyph unicode="?" horiz-adv-x="1183" d="M139 1174q0 106 103.5 184t328.5 78q186 0 301 -45q88 -35 129 -94.5t41 -125.5q0 -133 -139 -206q-291 -156 -291 -383v-50q0 -27 -2 -38t-14 -18t-41 -7q-41 0 -49 14.5t-8 79.5q0 55 5 94t23.5 104.5t65.5 135.5t123 139q51 47 51 148q0 43 -4 65.5t-22.5 50t-62.5 39 t-118 11.5q-135 0 -223 -52q80 -37 80 -127q0 -66 -42 -102.5t-98 -36.5q-49 0 -93 35t-44 107zM391 163.5q0 67.5 48 116t116 48.5t116 -48.5t48 -116t-48 -115.5t-116 -48t-116 48t-48 115.5z" />
<glyph unicode="@" horiz-adv-x="1949" d="M139 711q0 309 218 517t618 208q397 0 616 -207t219 -520q0 -63 -10 -127t-36.5 -144t-89 -130t-152.5 -50q-197 0 -267 92q-119 -92 -284 -92q-225 0 -361.5 126t-136.5 327q0 199 135 325.5t363 126.5q229 0 356 -170h80q47 0 58.5 -10t11.5 -53v-473q0 -113 65 -113 q154 0 154 356q0 305 -198 477.5t-523 172.5q-342 0 -531.5 -180.5t-189.5 -458.5q0 -125 42 -237t127 -204t229.5 -145t330.5 -53q326 0 633 112q41 16 78 17h53q63 0 63 -37q0 -12 -10 -22.5t-67 -28.5q-369 -127 -750 -127q-174 0 -317.5 41t-239.5 110.5t-161.5 163.5 t-95.5 196.5t-30 213.5zM723 710.5q0 -178.5 71.5 -272.5t184.5 -94q160 0 248 123v487q-88 123 -248 123q-113 0 -184.5 -94t-71.5 -272.5z" />
<glyph unicode="A" horiz-adv-x="1888" d="M92 0v106h49q51 0 105 7q37 4 46 10t19 29l535 1230q14 37 35.5 45.5t62.5 8.5q27 0 40 -2t29.5 -14.5t26.5 -37.5l553 -1276h201v-106q-129 6 -344 6q-289 0 -365 -6v106h191l-125 285h-588l-104 -237l-10 -29q59 -18 180 -19v-106l-279 6q-154 0 -258 -6zM610 498h496 l-248 571z" />
<glyph unicode="B" horiz-adv-x="1779" d="M96 0v106h221v1192h-221v107h932q250 0 395.5 -102.5t145.5 -251.5q0 -117 -100.5 -202t-264.5 -114q207 -23 320.5 -121t113.5 -231q0 -164 -144 -273.5t-398 -109.5h-1000zM596 106h412q150 0 232.5 76t82.5 205q0 51 -12.5 98t-43 95.5t-92 78t-147.5 29.5h-432v-582z M596 774h350q147 0 233.5 77t86.5 200q0 59 -20.5 111t-83 94t-161.5 42h-405v-524z" />
<glyph unicode="C" horiz-adv-x="1810" d="M139 702.5q0 315.5 232.5 523.5t638.5 208q236 0 434 -140l135 119q23 20 47 21q20 0 30.5 -9.5t12.5 -19.5t3 -35v-440q0 -45 -11.5 -54.5t-56.5 -9.5q-29 0 -39.5 2t-18.5 10.5t-10 28.5q-37 205 -175 312.5t-310 107.5q-297 0 -455 -172q-129 -141 -129 -453 q0 -309 133 -454q154 -170 457 -170q203 0 346 108.5t153 268.5q2 39 11.5 49t46.5 10q23 0 32 -2t17 -13t9 -34q0 -197 -184.5 -345.5t-475.5 -148.5q-410 0 -641.5 208t-231.5 523.5z" />
<glyph unicode="D" horiz-adv-x="1918" d="M96 0v106h221v1192h-221v107h928q332 0 544 -193.5t212 -521.5q0 -315 -210 -502.5t-544 -187.5h-930zM610 106h330q109 0 194 24t139 56.5t93 90t57.5 101.5t28.5 113.5t11 105.5t1 97.5t-1 97t-11 106.5t-28.5 118t-57.5 105.5t-93 93t-140 59t-195 24.5h-328v-1192z " />
<glyph unicode="E" horiz-adv-x="1642" d="M96 0v106h221v1180h-221v107h1340l67 -498h-114q-29 221 -121 306t-312 85h-333v-510h122q137 0 182.5 52.5t45.5 183.5h114v-578h-114q0 131 -45 183.5t-183 52.5h-122v-564h340q111 0 190.5 20.5t130.5 54.5t86 95.5t53.5 126t34.5 160.5h115l-100 -563h-1377z" />
<glyph unicode="F" horiz-adv-x="1572" d="M96 0v106h221v1180h-221v107h1305l67 -498h-114q-14 106 -37 174t-70 120t-121.5 74.5t-189.5 22.5h-313v-536h114q137 0 179 54t42 181h115v-577h-115q0 127 -42 181t-179 54h-114v-537h276v-106q-76 6 -416 6q-309 0 -387 -6z" />
<glyph unicode="G" horiz-adv-x="1970" d="M139 702q0 315 232.5 523.5t638.5 208.5q236 0 434 -140l135 119q23 20 47 21q20 0 30.5 -9.5t12.5 -19.5t2 -35v-440q0 -45 -11 -54.5t-56 -9.5q-29 0 -39.5 2t-18.5 10.5t-10 28.5q-37 205 -175 312.5t-310 107.5q-297 0 -455 -172q-129 -141 -129 -450 q0 -322 151 -474q157 -153 449 -153h4q117 0 199 37q45 18 67.5 48t25.5 48t3 47v201h-313v106q78 -6 430 -6l362 6v-106h-174v-396q0 -63 -35 -63q-14 0 -82.5 31.5t-107.5 60.5q-109 -121 -428 -121q-424 0 -651.5 212t-227.5 519z" />
<glyph unicode="H" horiz-adv-x="1953" d="M96 0v106h221v1192h-221v107q78 -6 375 -6q295 0 373 6v-107h-221v-514h708v514h-221v107q78 -6 375 -6q295 0 373 6v-107h-222v-1192h222v-106q-78 6 -373 6q-297 0 -375 -6v106h221v572h-708v-572h221v-106q-78 6 -373 6q-297 0 -375 -6z" />
<glyph unicode="I" horiz-adv-x="940" d="M86 0v106h231v1192h-231v107q76 -6 385 -6q307 0 383 6v-107h-231v-1192h231v-106q-76 6 -385 6q-307 0 -383 -6z" />
<glyph unicode="J" horiz-adv-x="1292" d="M51 233q0 74 47 120t119 46t119 -46t47 -120q0 -96 -80 -143q74 -33 164 -33q96 0 154.5 60.5t58.5 187.5v993h-287v107q76 -6 402 -6l344 6v-107h-166v-991q0 -158 -135.5 -247t-360.5 -89q-199 0 -312.5 71t-113.5 191z" />
<glyph unicode="K" horiz-adv-x="1957" d="M96 0v106h221v1192h-221v107q78 -6 375 -6q295 0 373 6v-107h-221v-639l794 621q-53 18 -131 18v107q129 -6 295 -6q174 0 236 6v-107h-43q-143 0 -187 -32l-526 -410l590 -715q18 -23 38.5 -29t94.5 -6h67v-106l-317 6q-281 0 -356 -6v106q137 0 137 19q0 4 -8 14l-7 8 l-450 545l-227 -178v-408h221v-106q-78 6 -373 6q-297 0 -375 -6z" />
<glyph unicode="L" horiz-adv-x="1503" d="M96 0v106h221v1192h-221v107q78 -6 389 -6q338 0 414 6v-107h-276v-1192h225q109 0 189.5 36t123.5 82t72 120t36 116t15 103h115l-68 -563h-1235z" />
<glyph unicode="M" horiz-adv-x="2373" d="M102 0v106h58q51 0 104 5q43 4 51.5 11t8.5 40v1136h-222v107h467q29 0 42.5 -2t29.5 -16.5t31 -43.5l514 -1077l516 1080q20 39 39.5 49t60.5 10h467v-107h-221v-1192h221v-106q-84 6 -354 6t-354 -6v106h221v1188h-2l-590 -1235q-31 -59 -80 -59q-51 0 -82 61 l-575 1207h-2v-1106q0 -31 8 -38t47 -11q47 -6 108 -7h58v-106l-285 6z" />
<glyph unicode="N" horiz-adv-x="1953" d="M96 0v106h58q51 0 104 5q43 4 51 11t8 40v1136h-221v107h479q31 0 41.5 -4t30.5 -25l862 -952v819q0 31 -8 38t-47 11q-47 6 -108 6h-58v107l285 -6l285 6v-107h-58q-51 0 -104 -4q-43 -4 -51.5 -11t-8.5 -40v-1173q0 -41 -10 -55.5t-53 -14.5q-41 0 -64 25l-1065 1179 v-1042q0 -31 8.5 -38t47.5 -11q47 -6 108 -7h58v-106l-285 6z" />
<glyph unicode="O" horiz-adv-x="1884" d="M139 694q0 324 213 532t588 208q379 0 591 -209t212 -531q0 -313 -212 -518t-591 -205q-375 0 -588 203t-213 520zM467 725q0 -291 86 -436q129 -217 389 -217q117 0 217.5 52t159.5 148q96 160 96 453q0 297 -106 440q-129 172 -369 172q-125 0 -217 -48t-141 -111 q-66 -88 -90.5 -193.5t-24.5 -259.5z" />
<glyph unicode="P" horiz-adv-x="1710" d="M96 0v106h221v1192h-221v107h897q268 0 422 -116t154 -288q0 -170 -154.5 -282.5t-421.5 -112.5h-370v-500h221v-106q-78 6 -373 6q-297 0 -375 -6zM610 702h305q78 0 136.5 11.5t93.5 36t55.5 48t28.5 64.5t10 66.5t2 72.5q0 57 -2 87t-18.5 77t-49 71t-96 43t-157.5 19 h-308v-596z" />
<glyph unicode="Q" horiz-adv-x="1884" d="M139 694q0 324 213 532t588 208q379 0 591 -209t212 -531q0 -223 -109.5 -398t-330.5 -263q39 -47 76.5 -71.5t58 -28t55.5 -3.5q170 0 178 64q6 49 43 49q43 0 43 -57q0 -137 -79 -260t-222 -123q-59 0 -105 23.5t-75 53t-55.5 91t-39 100.5t-34.5 119q-92 -18 -205 -19 q-379 0 -591 204t-212 519zM455 694q0 -209 56 -356.5t216 -224.5q-4 20 -4 37q0 76 63.5 125t153.5 49q61 0 117.5 -30t88.5 -62.5t68 -84.5q213 135 213 547q0 313 -114 467q-131 176 -373 176q-244 0 -375 -180q-110 -153 -110 -457v-6zM809 150q0 -82 133 -82h6 q90 0 162 28q-29 70 -67.5 106t-102.5 36q-49 0 -90 -24t-41 -64z" />
<glyph unicode="R" horiz-adv-x="1873" d="M96 0v106h221v1192h-221v107h815q291 0 469.5 -108.5t178.5 -274.5q0 -109 -89.5 -195t-248.5 -131q94 -35 146 -93t64.5 -105t22.5 -136q8 -70 13.5 -101.5t18.5 -79.5t28.5 -68.5t43 -38t64.5 -17.5q41 0 82 32t47 116q4 47 57 47q58 0 58 -51q0 -18 -5.5 -42 t-22.5 -58.5t-44 -62.5t-77 -47.5t-115 -19.5q-219 0 -332 64q-47 27 -76 57.5t-40 74.5t-13 75.5t-2 97.5q0 115 -9.5 158t-52.5 84q-75 77 -202 77h-3h-262v-553h221v-106q-80 6 -366 6q-289 0 -369 -6zM610 745h267q98 0 167.5 18.5t105.5 43t55.5 66.5t22.5 72t3 77 q0 61 -8.5 99t-39 84t-106.5 69.5t-194 23.5h-273v-553z" />
<glyph unicode="S" horiz-adv-x="1392" d="M139 35v368q0 39 8.5 51.5t49.5 12.5q55 0 57 -33q6 -188 139 -270q137 -86 363 -86q74 0 130 18.5t85.5 45t47 62.5t23 60.5t5.5 48.5q0 78 -55.5 145.5t-176.5 92.5l-252 51q-66 14 -104.5 24.5t-105 47.5t-115.5 92q-98 113 -99 254q0 168 124 291t366 123 q219 0 372 -111l64 61q37 37 46 43.5t28 6.5q20 0 30.5 -9.5t12.5 -19.5t2 -35v-369q0 -39 -9.5 -51t-48.5 -12q-37 0 -46 9t-13 40q-29 174 -145 264q-115 86 -293 86q-150 0 -216.5 -65.5t-66.5 -147.5q0 -72 55.5 -130t161.5 -81l311 -63q160 -33 269.5 -152.5 t109.5 -283.5q0 -80 -26.5 -155t-81.5 -141.5t-155.5 -106.5t-231.5 -40q-272 0 -439 109l-61 -60q-37 -37 -46 -43t-28 -6q-20 0 -30.5 9.5t-12.5 19.5t-2 35z" />
<glyph unicode="T" horiz-adv-x="1744" d="M90 881l47 497h1469l47 -497h-115q-8 106 -21.5 164.5t-48 118t-102.5 84t-174 24.5h-168v-1166h311v-106q-78 6 -465 6q-385 0 -462 -6v106h311v1166h-168q-106 0 -174 -24.5t-102.5 -84t-48 -118t-21.5 -164.5h-115z" />
<glyph unicode="U" horiz-adv-x="1921" d="M96 1298v107q78 -6 375 -6q295 0 373 6v-107h-221v-837q0 -49 3 -85t23.5 -97.5t57 -100.5t113.5 -69.5t186 -30.5q205 0 333.5 97t128.5 300v768q0 31 -8 38t-47 11q-47 6 -108 6h-58v107l289 -6l289 6v-107h-58q-51 0 -104 -4q-43 -4 -51 -11t-8 -40v-772 q0 -209 -153 -354.5t-454 -145.5q-324 0 -502 143.5t-178 358.5v825h-221z" />
<glyph unicode="V" horiz-adv-x="1888" d="M59 1298v107l338 -6q287 0 363 6v-107h-187l457 -974l434 929l13 27q-55 18 -177 18v107l277 -6q168 0 250 6v-107h-45q-100 0 -128 -9t-38 -34l-574 -1222q-16 -37 -36.5 -45t-63.5 -8q-27 0 -40 2t-30.5 14t-29.5 39l-592 1263h-191z" />
<glyph unicode="W" horiz-adv-x="2584" d="M55 1298v107l328 -6q279 0 356 6v-107h-190l377 -929l305 745l-76 184h-176v107l328 -6q279 0 356 6v-107h-193l379 -929l361 882q2 4 10 29q-61 18 -205 18v107l277 -6q166 0 237 6v-107h-39q-96 0 -119.5 -8t-35.5 -37l-496 -1214q-12 -33 -27.5 -46t-58.5 -13 q-61 0 -84 55l-377 928l-377 -930q-23 -53 -84 -53q-43 0 -58 13t-28 46l-512 1259h-178z" />
<glyph unicode="X" horiz-adv-x="1888" d="M82 0v106h65q66 0 117 7q49 4 61.5 9t28.5 23l439 545l-476 608h-202v107q129 -6 346 -6q295 0 370 6v-107h-159l301 -385l295 365q-6 2 -15.5 5t-14.5 5t-7 2q-63 8 -139 8v107q129 -6 317 -6l291 6v-107h-66q-66 0 -116 -6q-49 -4 -61.5 -9t-29.5 -23l-368 -457 l545 -697h202v-106q-129 6 -346 6q-295 0 -370 -6v106h159l-370 474l-365 -451v-6q74 -16 174 -17v-106l-315 6z" />
<glyph unicode="Y" horiz-adv-x="1888" d="M49 1298v107q104 -6 352 -6q303 0 377 6v-107h-164l426 -575l412 557q-55 18 -147 18v107l278 -6q162 0 254 6v-107h-49q-53 0 -109 -6q-37 -4 -48 -8t-25 -24l-516 -697v-457h219v-106q-80 6 -365 6q-289 0 -369 -6v106h222v455l-545 737h-203z" />
<glyph unicode="Z" horiz-adv-x="1531" d="M139 59q0 33 21 60l866 1179h-278q-199 0 -321 -84t-138 -307h-115l27 498h1122q27 0 38 -2t21.5 -15.5t10.5 -39.5q0 -29 -23 -58l-862 -1173h301q266 0 366.5 113.5t116.5 355.5h115l-41 -586h-1157q-27 0 -38 2t-21.5 15.5t-10.5 41.5z" />
<glyph unicode="[" horiz-adv-x="696" d="M276 -512v2048h363v-139h-223v-1770h223v-139h-363z" />
<glyph unicode="\" horiz-adv-x="1177" d="M131 1473q0 29 19.5 46t42.5 17q20 0 33.5 -9t18.5 -19.5t15 -32.5l772 -1883q12 -33 12 -41q0 -29 -19 -46t-42 -17q-20 0 -34.5 10t-19.5 20.5t-14 30.5l-772 1883q-12 33 -12 41z" />
<glyph unicode="]" horiz-adv-x="696" d="M55 -373h224v1770h-224v139h363v-2048h-363v139z" />
<glyph unicode="^" horiz-adv-x="1136" d="M-10 1196l579 328l580 -328l-25 -45l-557 252l-555 -252z" />
<glyph unicode="_" horiz-adv-x="1888" d="M0 -199h1888v-114h-1888v114z" />
<glyph unicode="`" d="M309 1305q0 49 39 93t92 44q51 0 95 -47l253 -269l-65 -92l-334 160q-80 45 -80 111z" />
<glyph unicode="a" horiz-adv-x="1218" d="M72 229q0 88 65.5 154t175 99.5t224 50t241.5 16.5v59q0 238 -235 238q-98 0 -156 -15q43 -39 43 -104q0 -59 -39 -98t-100 -39q-55 0 -96 38t-41 101q0 203 393 203q240 0 360.5 -90t120.5 -236v-432q0 -29 5 -40t33 -19.5t89 -8.5q14 0 22.5 -1t18.5 -5t15.5 -16.5 t5.5 -30.5q0 -37 -16.5 -45t-53.5 -8h-109q-133 0 -177 39t-44 100q-99 -153 -322 -153h-3q-182 0 -301 60t-119 183zM322 233q0 -72 60 -116.5t142 -44.5q12 0 30.5 1t61.5 12t76 30.5t59.5 63t26.5 102.5v190q-203 -4 -329.5 -67.5t-126.5 -170.5z" />
<glyph unicode="b" horiz-adv-x="1392" d="M94 1298v107l373 16v-592q139 94 319 95q238 0 380.5 -131t142.5 -338q0 -203 -148.5 -336t-402.5 -133q-186 0 -320 127l-94 -113h-115v1219q0 57 -20.5 68t-114.5 11zM479 219q18 -27 44 -55.5t86.5 -60t129.5 -31.5q84 0 142.5 29.5t87 67.5t44 101.5t17.5 98.5t2 92 q0 55 -2 90t-15.5 95.5t-40 97t-80.5 65.5t-130 29q-96 0 -173 -42t-112 -91v-486z" />
<glyph unicode="c" horiz-adv-x="1114" d="M84 455q0 195 137 336t412 141q381 0 381 -203q0 -63 -40 -101t-100 -38q-57 0 -97 39t-40 98q0 47 25 84l8 12q0 12 -129 13q-78 0 -134 -29t-84 -65.5t-43 -96t-17.5 -95.5t-2.5 -87q0 -381 306 -381q195 0 260 154q10 27 19 31.5t40 4.5h3q54 0 54 -36q0 -10 -11 -37 t-45 -71t-83 -75q-109 -67 -273 -67h-5q-256 0 -398.5 134t-142.5 335z" />
<glyph unicode="d" horiz-adv-x="1392" d="M84 454.5q0 204.5 147.5 337t401.5 132.5q164 0 293 -88v383q0 57 -20.5 68t-114.5 11v107l372 16v-1235q0 -57 20.5 -68.5t114.5 -11.5v-106l-385 -14v100q-131 -100 -305 -100q-240 0 -382 132t-142 336.5zM360 449q0 -37 1 -60.5t6.5 -68t14.5 -73t28.5 -65.5 t47 -58.5t70.5 -36.5t99 -15h2q173 0 284 155v484q-100 127 -260 127q-84 0 -142 -30t-87 -68t-44 -101.5t-17.5 -98t-2.5 -91.5z" />
<glyph unicode="e" horiz-adv-x="1148" d="M70 463q0 195 140 332t398 137q231 0 346 -115q123 -121 123 -323q0 -41 -15 -50.5t-54 -9.5h-662q2 -49 5 -82t21.5 -90t49.5 -91t93.5 -61.5t148.5 -27.5q29 0 62.5 5t80.5 19.5t89 49t65 84.5q12 27 22 33t37 6q57 0 57 -43q0 -12 -10 -37t-41 -63t-77 -70.5t-127 -56 t-183 -23.5q-266 0 -417.5 135t-151.5 342zM346 514h531q-8 332 -267 332q-256 0 -264 -332z" />
<glyph unicode="f" horiz-adv-x="765" d="M94 803v106h162v199q0 115 70.5 191.5t167 106.5t208.5 30q121 0 187.5 -55.5t66.5 -133.5q0 -63 -42 -99t-93 -36q-53 0 -94 36t-41 99q0 55 33 90l4 9q-20 4 -27 4q-115 0 -165 -70t-50 -170v-201h262v-106h-249v-697h168v-106l-279 6q-143 0 -262 -6v106h135v697h-162 z" />
<glyph unicode="g" d="M70 -152q0 68 52 114t126 65q-84 80 -84 196q0 100 67 183q-106 94 -106 212q0 51 21.5 101.5t68.5 97.5t135 77t207 30q168 0 287 -66q100 80 231 80q68 0 106 -41t38 -92q0 -43 -29 -70.5t-70 -27.5t-68.5 27.5t-27.5 70.5q0 27 8 43q-70 -10 -125 -39 q12 -10 27.5 -29.5t35 -66.5t19.5 -97q0 -51 -21.5 -101t-68.5 -97t-135 -77t-207 -30q-156 0 -260 51q-16 -23 -16 -57q0 -53 47 -100q31 -27 131 -27h106q117 0 173.5 -2t126 -12t122.5 -31q197 -76 197 -278q0 -117 -140.5 -193t-416.5 -76q-295 0 -426 81t-131 181z M260 -150q0 -70 90 -123t277 -53q190 0 278 54t88 120q0 117 -309 117h-260q-164 0 -164 -115zM362 616q0 -45 4.5 -70.5t19.5 -65.5t59 -60.5t112 -20.5q55 0 94 15.5t58.5 36t30 55.5t11.5 55t1 57q0 45 -4.5 71t-19.5 66t-59 60.5t-112 20.5q-55 0 -94 -15.5t-58.5 -36 t-29.5 -55.5t-11.5 -55.5t-1.5 -57.5z" />
<glyph unicode="h" horiz-adv-x="1392" d="M115 0v106h135v1113q0 57 -20.5 68t-114.5 11v107l372 16v-686q127 188 371 189q158 0 248 -65.5t90 -237.5v-515h135v-106q-111 6 -260 6t-260 -6v106h135v537q0 113 -29.5 154t-89.5 41q-72 0 -143.5 -31t-127.5 -106.5t-56 -182.5v-412h135v-106q-111 6 -260.5 6 t-259.5 -6z" />
<glyph unicode="i" horiz-adv-x="696" d="M121 0v106h135v617q0 57 -19.5 67.5t-109.5 10.5v106l367 17v-818h120v-106q-100 6 -243 6q-131 0 -250 -6zM184 1239q0 68 48.5 116t117.5 48q66 0 115 -48t49 -116t-48 -116t-118 -48q-66 0 -115 48t-49 116z" />
<glyph unicode="j" horiz-adv-x="765" d="M-121 -213q0 61 39 100t100 39q59 0 98.5 -39t39.5 -98q0 -53 -35 -94l-4 -8q0 -12 71 -13q84 0 123 74t39 172v801q0 27 -1 38t-10 21.5t-30 14.5q-27 6 -108 6v106l387 17v-1002q0 -160 -121 -247t-274 -87q-139 0 -226.5 52.5t-87.5 146.5zM260 1239q0 68 48 116 t118 48q66 0 115 -48t49 -116t-48 -116t-118 -48q-66 0 -115 48t-49 116z" />
<glyph unicode="k" horiz-adv-x="1323" d="M94 0v106h135v1113q0 57 -20.5 68t-114.5 11v107l373 16v-929l399 292q-12 18 -45 19v106q113 -6 228 -6q106 0 178 6v-106q-66 0 -103 -4t-49 -10.5t-31 -18.5l-286 -209l368 -420q18 -23 39 -29t78 -6h39v-106q-66 6 -223 6q-127 0 -246 -6v106q47 0 47 15 q0 6 -117.5 140t-156.5 175l-133 -98v-232h135v-106q-104 6 -248 6q-141 0 -246 -6z" />
<glyph unicode="l" horiz-adv-x="696" d="M121 0v106h135v1113q0 57 -20.5 68t-114.5 11v107l373 16v-1315h135v-106q-119 6 -254 6t-254 -6z" />
<glyph unicode="m" horiz-adv-x="2088" d="M115 0v106h135v615q0 57 -20.5 68.5t-114.5 11.5v106l358 17v-209h2q14 25 38 53.5t69 67t117.5 63.5t158.5 25q268 0 326 -189q127 188 370 189q160 0 249 -65.5t89 -237.5v-515h136v-106q-111 6 -260.5 6t-260.5 -6v106h135v537q0 113 -29.5 154t-88.5 41 q-72 0 -143.5 -31t-128 -106.5t-56.5 -182.5v-412h135v-106q-111 6 -260 6t-260 -6v106h135v537q0 113 -29.5 154t-89.5 41q-72 0 -143.5 -31t-127.5 -106.5t-56 -182.5v-412h135v-106q-111 6 -260.5 6t-259.5 -6z" />
<glyph unicode="n" horiz-adv-x="1392" d="M115 0v106h135v615q0 57 -20.5 68.5t-114.5 11.5v106l358 17v-209h2q14 25 38 53.5t69 67t117.5 63.5t158.5 25q158 0 248 -65.5t90 -237.5v-515h135v-106q-111 6 -260 6t-260 -6v106h135v537q0 113 -29.5 154t-89.5 41q-72 0 -143.5 -31t-127.5 -106.5t-56 -182.5v-412 h135v-106q-111 6 -260.5 6t-259.5 -6z" />
<glyph unicode="o" d="M70 446q0 205 144 345.5t412.5 140.5t413 -139.5t144.5 -346.5q0 -195 -143.5 -327.5t-413.5 -132.5q-268 0 -412.5 132t-144.5 328zM346 471q0 -72 2 -110.5t16.5 -101t42 -94.5t84 -57.5t136.5 -25.5t136 25.5t83.5 57.5t42 94.5t16.5 101t2 110.5q0 57 -2 87t-8 82 t-24.5 82t-48 62.5t-80 47t-117.5 14.5q-80 0 -136.5 -24.5t-84 -56.5t-42 -91.5t-16.5 -96t-2 -106.5z" />
<glyph unicode="p" horiz-adv-x="1392" d="M94 -291h135v1018q0 35 -5 49.5t-29 18.5q-25 6 -101 6v106l373 17v-97q143 96 330 97q240 0 376 -133t136 -334q0 -209 -150.5 -340t-400.5 -131q-156 0 -279 90v-367h135v-106q-111 6 -260 6t-260 -6v106zM479 217q98 -145 258 -145q125 0 210 96t85 289 q0 172 -73.5 271t-196.5 99q-96 0 -171 -41t-112 -86v-483z" />
<glyph unicode="q" horiz-adv-x="1323" d="M84 455q0 207 148.5 338t394.5 131q193 0 334 -160l100 160h102v-1215h135v-106q-111 6 -260 6t-260 -6v106h135v385q-132 -108 -302 -108h-3q-238 0 -381 130t-143 339zM360 453q0 -182 76 -281.5t193 -99.5q158 0 264 143q33 47 33 92v256q0 88 -78 176t-195 88 q-121 0 -207 -93t-86 -281z" />
<glyph unicode="r" horiz-adv-x="1036" d="M94 0v106h135v615q0 57 -20.5 68.5t-114.5 11.5v106l346 17v-219l2 -3q33 84 103.5 153t185.5 69q94 0 164 -49.5t70 -129.5q0 -59 -39 -97t-96.5 -38t-96.5 38t-39 97q0 25 8.5 48.5t16.5 33.5l8 11q-92 -2 -153.5 -71t-84 -154t-22.5 -175v-332h168v-106l-279 6 q-143 0 -262 -6z" />
<glyph unicode="s" horiz-adv-x="989" d="M84 49v211q0 39 8 51.5t49 12.5q33 0 42.5 -6.5t17.5 -32.5q20 -59 45.5 -100.5t92.5 -77t163 -35.5q243 0 243 146q0 40 -22.5 68.5t-68.5 46t-77.5 25t-84.5 15.5q-223 37 -304 94q-104 80 -104 190q0 78 37 134.5t83 82t113.5 40t99.5 16.5t70 2q131 0 218 -35 q70 35 92 35q20 0 30.5 -9.5t12.5 -19.5t2 -35v-149q0 -39 -9.5 -51.5t-48.5 -12.5q-53 0 -57 33q-2 31 -8 52.5t-27.5 52t-75 47t-133.5 16.5q-241 0 -241 -120q0 -34 17 -55.5t65.5 -37.5t88.5 -24.5t128 -22.5q184 -29 274 -113q88 -79 88 -194q0 -86 -38 -147.5t-84 -90 t-112.5 -45t-98 -18.5t-68.5 -2q-152 0 -254 61l-53 -35q-41 -26 -64 -26h-2q-20 0 -30.5 9t-12.5 19.5t-2 34.5z" />
<glyph unicode="t" horiz-adv-x="974" d="M47 803v86q145 2 227 125t84 286h115v-391h320v-106h-320v-557q0 -164 121 -164q47 0 86 40t39 134v100h115v-104q0 -121 -76 -193.5t-195 -72.5q-340 0 -340 266v551h-176z" />
<glyph unicode="u" horiz-adv-x="1392" d="M115 801v106l385 17v-701q0 -88 28.5 -119.5t143.5 -31.5q125 0 199.5 71.5t74.5 188.5v389q0 57 -20.5 68.5t-114.5 11.5v106l385 17v-738q0 -57 20.5 -68.5t114.5 -11.5v-106l-373 -14v143q-111 -143 -315 -143q-84 0 -147.5 10t-123 36.5t-91 82t-31.5 137.5v469 q0 57 -20.5 68.5t-114.5 11.5z" />
<glyph unicode="v" horiz-adv-x="1323" d="M61 803v106q88 -6 240 -6q127 0 252 6v-106h-98l276 -549l252 506q4 8 7 13t4 8t1 5q-33 16 -88 17v106q61 -6 185 -6q92 0 170 6v-106q-90 0 -113 -8.5t-37 -34.5l-356 -713q-14 -27 -31.5 -40t-29 -15t-33.5 -2q-43 0 -59.5 12t-33.5 45l-379 756h-129z" />
<glyph unicode="w" horiz-adv-x="1810" d="M57 803v106q72 -6 232 -6q129 0 248 6v-106h-103l221 -514l176 409q4 12 11 31q-8 16 -33 74h-117v106q61 -6 209 -6q137 0 229 6v-106h-104l242 -561l223 516q2 4 10 28q-43 16 -108 17v106q66 -6 192 -6q96 0 168 6v-106q-84 0 -103.5 -7.5t-31.5 -35.5l-307 -713 q-25 -57 -88 -57q-43 0 -57.5 12t-30.5 49l-230 529l-229 -529q-10 -27 -17.5 -37t-24 -17t-46.5 -7q-63 0 -88 57l-324 756h-119z" />
<glyph unicode="x" horiz-adv-x="1323" d="M57 0v106h35q86 0 118 8.5t52 28.5l285 297l-334 363h-143v106q72 -6 229 -6q127 0 246 6v-106h-62l203 -219l174 180q14 14 14 20q0 18 -55 19v106q72 -6 209 -6q133 0 195 6v-106q-66 0 -95.5 -1t-59.5 -9.5t-46 -24.5l-260 -268l362 -394h144v-106q-72 6 -230 6 q-127 0 -245 -6v106h61l-229 250l-222 -231q23 -18 60 -19v-106q-72 6 -211 6q-131 0 -195 -6z" />
<glyph unicode="y" horiz-adv-x="1323" d="M49 -211q0 59 38 94t91 35q51 0 89 -34t38 -93q0 -76 -59 -110q16 -6 37 -7q113 0 198 111q35 51 115 215l-406 803h-129v106q82 -6 240 -6q133 0 252 6v-106h-96l274 -541l250 494q10 20 10 26q0 8 -20.5 13.5t-40.5 7.5h-23v106q61 -6 185 -6q92 0 170 6v-106 q-90 0 -113 -7.5t-37 -35.5l-481 -944q-37 -72 -129 -150t-221 -78q-98 0 -165 59.5t-67 141.5z" />
<glyph unicode="z" horiz-adv-x="1114" d="M70 53q0 29 22 56l594 714h-170q-160 0 -223.5 -60.5t-73.5 -217.5h-115l27 364h801q25 0 36 -2t22 -13t11 -36q0 -23 -20 -47l-594 -715h180q96 0 158.5 20.5t96.5 65.5t48.5 99.5t22.5 140.5h115l-41 -422h-828q-25 0 -37 2t-22 14.5t-10 36.5z" />
<glyph unicode="{" horiz-adv-x="1177" d="M160 512q0 16 6 24.5t13 9.5t26 3q127 6 203 76q47 41 57 82t10 147v422q2 119 131 189.5t346 70.5q27 0 38 -1t18.5 -9t7.5 -27q0 -16 -6 -24.5t-13.5 -9.5t-25.5 -3q-109 -6 -189 -57q-80 -59 -80 -164v-430q0 -39 -2 -61.5t-14 -63.5t-35.5 -68.5t-73 -57.5 t-118.5 -48q123 -33 182 -98.5t61 -139.5v-485q0 -51 7 -72q47 -141 272 -155q35 -2 35 -37q0 -25 -12.5 -31t-51.5 -6q-43 0 -84 3t-100 12.5t-107.5 28.5t-92.5 49t-68.5 79t-24.5 113v430q0 80 -4 96q-16 66 -84 118t-192 58q-35 2 -35 37z" />
<glyph unicode="|" horiz-adv-x="653" d="M264 -422v1868q0 90 64 90q61 0 61 -90v-1868q0 -90 -63 -90q-61 0 -62 90z" />
<glyph unicode="}" horiz-adv-x="1177" d="M160 -475q0 16 6 24.5t13 9.5t26 3q117 6 194 61q35 27 53.5 58.5t20.5 50t2 51.5v430q0 39 2 61.5t14.5 63.5t36 68.5t72.5 57.5t119 48q-125 35 -183.5 99.5t-60.5 138.5v485q0 51 -6 72q-45 143 -274 155q-35 2 -35 37q0 25 13 31t50 6q78 0 148.5 -10t151.5 -37 t130 -88.5t49 -149.5v-430q0 -84 7 -100q49 -162 272 -172q35 -2 35 -37q0 -16 -6 -24.5t-13.5 -9.5t-25.5 -3q-133 -8 -199 -74q-49 -45 -59.5 -83.5t-10.5 -147.5v-422q-2 -115 -127.5 -187.5t-351.5 -72.5q-27 0 -37 1t-18 9t-8 27z" />
<glyph unicode="~" horiz-adv-x="1136" d="M0 430l111 90q41 35 116 72q82 37 150 37q86 0 205 -70q133 -76 213 -76q139 0 313 146l29 -35l-111 -90q-41 -35 -117 -72q-82 -37 -149 -37q-86 0 -205 70q-133 76 -213 76q-139 0 -313 -146z" />
<glyph unicode="&#xa0;" />
<glyph unicode="&#xa1;" horiz-adv-x="761" d="M217 -274l6 53l99 721q4 35 13 45t46 10t46 -10t13 -47l99 -719q2 -12 3 -22.5t2 -15.5t1 -9v-6q0 -70 -51.5 -111t-113 -41t-112.5 40t-51 112zM217 860.5q0 67.5 48 115.5t116 48t116 -48t48 -115.5t-48 -116t-116 -48.5t-116 48.5t-48 116z" />
<glyph unicode="&#xa2;" horiz-adv-x="1114" d="M84 455q0 180 119 317t356 158v86q0 23 15.5 38t38 15t38 -15.5t15.5 -37.5v-84q348 -6 348 -203q0 -63 -40 -101t-100 -38q-57 0 -97 39t-40 98q0 47 25 84l8 12q0 6 -104 13v-754q195 0 260 154q10 27 19 31.5t40 4.5q57 1 57 -36q0 -10 -11 -37t-45 -71t-83 -75 q-98 -59 -237 -65v-94q0 -23 -15.5 -38.5t-38 -15.5t-38 16.5t-15.5 37.5v94q-225 18 -350 149t-125 318zM360 463q0 -308 199 -367v731q-68 -16 -112 -58t-61 -103.5t-21.5 -103.5t-4.5 -99z" />
<glyph unicode="&#xa3;" horiz-adv-x="1888" d="M131 172q0 199 389 199q90 0 201 -35q-6 39 -20.5 84t-24.5 71.5t-34 84t-30 73.5h-313v107h276q-23 94 -22 153q0 209 159.5 352.5t381.5 143.5q193 0 334 -100.5t141 -262.5q0 -57 -41 -98t-98.5 -41t-98.5 41t-41 98q0 49 31 88t80 50q-100 111 -307 110 q-129 0 -210 -113.5t-81 -267.5q0 -68 20 -153h420v-107h-389q8 -27 34.5 -99.5t39 -109.5t27 -96t16.5 -111q242 -109 383 -108q117 0 202.5 45t85.5 133h115q0 -150 -75.5 -260.5t-200.5 -110.5q-90 0 -194.5 34t-154 58.5t-178.5 94.5q-25 -51 -78 -83t-139 -45.5 t-152.5 -16.5t-174.5 -3q-113 0 -196 54.5t-83 146.5zM246 172q0 -86 164 -86q284 0 315 135q-111 35 -205 35h-65.5t-60.5 -3t-59.5 -8t-45 -13.5t-33.5 -23.5t-10 -36z" />
<glyph unicode="&#xa4;" horiz-adv-x="1949" d="M384.5 1102q49.5 49 115.5 -17l153 -153q143 111 322 110q182 0 321 -110l154 153q66 66 115 17t-17 -115l-151 -153q109 -141 108.5 -321.5t-108.5 -322.5l151 -153q66 -66 17 -115t-115 17l-154 153q-139 -111 -321 -110q-178 0 -322 110l-153 -153q-66 -66 -115 -17 t16 115l154 153q-109 145 -109 321.5t109 322.5l-154 153q-66 66 -16.5 115zM586 512q0 -162 113.5 -276.5t275.5 -114.5t276.5 114.5t114.5 276.5t-114.5 276.5t-276.5 114.5t-275.5 -114.5t-113.5 -276.5z" />
<glyph unicode="&#xa5;" horiz-adv-x="1888" d="M49 1298v107q104 -6 352 -6q303 0 377 6v-107h-164l406 -546h41l391 528q-55 18 -147 18v107l278 -6q162 0 254 6v-107h-49q-53 0 -109 -6q-37 -4 -48 -8t-25 -24l-377 -508h282v-107h-360l-61 -82v-184h421v-107h-421v-166h219v-106q-80 6 -365 6q-289 0 -369 -6v106 h222v166h-420v107h420v182l-62 84h-358v107h278l-403 546h-203z" />
<glyph unicode="&#xa6;" horiz-adv-x="653" d="M264 326q0 23 18.5 38t45.5 15q25 0 43 -15.5t18 -37.5v-748q0 -90 -63 -90q-61 0 -62 90v748zM264 698v748q0 90 64 90q61 0 61 -90v-748q0 -23 -18.5 -38t-42.5 -15q-27 0 -45.5 15.5t-18.5 37.5z" />
<glyph unicode="&#xa7;" horiz-adv-x="1507" d="M127 614q0 92 55.5 163t147.5 108q-61 90 -62 198q0 168 144.5 274.5t341.5 106.5q176 0 305 -103.5t129 -260.5q0 -59 -41 -99t-98.5 -40t-98.5 39.5t-41 99.5q0 45 24.5 79.5t65.5 51.5q-88 57 -245 57q-109 0 -189 -56t-80 -149q0 -49 40 -85.5t82 -52t114 -34.5 l260 -71q172 -47 285.5 -161.5t113.5 -268.5q0 -92 -56 -164t-146 -107q61 -94 61 -198q0 -168 -144.5 -274.5t-340.5 -106.5q-176 0 -305.5 103.5t-129.5 260.5q0 59 41 99t98.5 40t98.5 -39.5t41 -99.5q0 -45 -24.5 -79.5t-65.5 -51.5q88 -57 246 -57q109 0 188.5 56 t79.5 149q0 49 -40 85.5t-82 52t-114 34.5l-260 71q-172 47 -285.5 162t-113.5 268zM369 614q0 -131 223 -188l260 -72q137 -41 225 -112q62 57 62 168q0 131 -224 188l-260 72q-127 35 -225 110q-61 -57 -61 -166z" />
<glyph unicode="&#xa8;" d="M207 1239q0 61 43 104t106 43q59 0 103.5 -43t44.5 -104q0 -59 -44 -103t-106 -44q-59 0 -103 43t-44 104zM752 1239q0 61 43 104t106 43q59 0 103.5 -43t44.5 -104q0 -59 -44 -103t-106 -44q-59 0 -103 43t-44 104z" />
<glyph unicode="&#xa9;" horiz-adv-x="1404" d="M0 702.5q0 290.5 206 496.5t496 206q293 0 498 -205t205 -498q0 -291 -206 -496.5t-496.5 -205.5t-496.5 206t-206 496.5zM139 702.5q0 -233.5 165 -398.5t398.5 -165t398.5 165t165 398.5t-165 398.5t-398.5 165t-398.5 -165t-165 -398.5zM352 702q0 129 94.5 213 t258.5 84q96 0 176 -57l53 49q10 8 20 8q18 0 19 -26v-178q0 -18 -5 -22.5t-24 -4.5q-25 0 -26 18q-14 82 -70.5 126t-126.5 44q-119 0 -184 -69q-53 -59 -54 -185q0 -127 56 -184q61 -70 184 -69q82 0 140.5 44t62.5 109q0 16 4 20.5t18 4.5q25 -1 25 -21q0 -80 -75 -140 t-193 -60q-166 0 -259.5 84.5t-93.5 211.5z" />
<glyph unicode="&#xaa;" horiz-adv-x="1081" d="M59 942q0 61 55.5 107.5t146.5 70t188.5 34.5t203.5 11v43q0 166 -196 166q-70 0 -131 -10q35 -27 34 -74q0 -41 -32.5 -68.5t-83.5 -27.5q-45 0 -80 26.5t-35 71.5q0 141 330 142q201 0 303 -62.5t102 -165.5v-303q0 -20 4 -27.5t28 -13.5t75 -6t51 -37q0 -25 -14.5 -31 t-44.5 -6h-91q-186 0 -186 97q-84 -106 -272 -107q-154 0 -254.5 42t-100.5 128zM113 674q0 14 15 25.5t38 11.5h749q23 0 38.5 -11.5t15.5 -25.5q0 -16 -15.5 -27.5t-38.5 -11.5h-749q-23 0 -38 11t-15 28zM270 944q0 -49 50.5 -81t119.5 -32q10 0 25.5 1.5t51.5 9.5 t63.5 21.5t50 44t22.5 71.5v133q-170 -4 -276.5 -49t-106.5 -119z" />
<glyph unicode="&#xab;" horiz-adv-x="1392" d="M272 477q0 18 13 27q215 172 321 428q10 20 33 20h16q16 0 27.5 -12t7.5 -29q-49 -227 -162 -434q113 -211 162 -434q4 -16 -7 -29.5t-28 -13.5h-16q-23 0 -33 20q-106 256 -321 429q-12 12 -13 28zM696 477q0 18 13 27q215 172 321 428q10 20 33 20h16q16 0 27.5 -12 t7.5 -29q-49 -227 -162 -434q113 -211 162 -434q4 -16 -7 -29.5t-28 -13.5h-16q-23 0 -33 20q-106 256 -321 429q-12 12 -13 28z" />
<glyph unicode="&#xac;" horiz-adv-x="1949" d="M139 759.5q0 28.5 20.5 49t49.5 20.5h1532q29 0 49 -20.5t20 -48.5v-496q0 -29 -20.5 -49t-49 -20t-49 20.5t-20.5 48.5v426h-1462q-29 0 -49.5 20.5t-20.5 49z" />
<glyph unicode="&#xad;" horiz-adv-x="835" d="M29 348v215h665v-215h-665z" />
<glyph unicode="&#xae;" horiz-adv-x="1404" d="M0 702.5q0 290.5 206 496.5t496 206q293 0 498 -205t205 -498q0 -291 -206 -496.5t-496.5 -205.5t-496.5 206t-206 496.5zM139 702.5q0 -233.5 165 -398.5t398.5 -165t398.5 165t165 398.5t-165 398.5t-398.5 165t-398.5 -165t-165 -398.5zM375 424v43h90v483h-90v43h330 q119 0 190.5 -44t71.5 -111q0 -43 -36 -79t-102 -52q39 -14 59.5 -39t26 -42.5t11.5 -54.5q6 -45 10 -66.5t18.5 -40t38.5 -18.5q47 0 51 60q4 20 25 20q23 0 23 -20q0 -16 -6.5 -34.5t-33 -39t-67.5 -20.5q-88 0 -135 26q-37 20 -45 46t-8 77q0 47 -4.5 64.5t-20.5 33.5 q-31 31 -82 31h-106v-223h88v-43q-31 2 -147.5 2t-149.5 -2zM584 725h106q49 0 81 10t44 28.5t15.5 34t3.5 40.5q0 35 -5.5 54t-38 38.5t-96.5 19.5h-110v-225z" />
<glyph unicode="&#xaf;" d="M174 1180v118h905v-118h-905z" />
<glyph unicode="&#xb0;" horiz-adv-x="940" d="M123 1056.5q0 143.5 102.5 246t245.5 102.5t245.5 -102.5t102.5 -246t-102.5 -245.5t-245.5 -102t-245.5 102t-102.5 245.5zM262 1057q0 -86 60.5 -147.5t148.5 -61.5q86 0 147.5 61.5t61.5 147.5t-61.5 147.5t-147.5 61.5q-88 0 -148.5 -61.5t-60.5 -147.5z" />
<glyph unicode="&#xb1;" horiz-adv-x="1949" d="M139 69.5q0 69.5 94 69.5h672v502h-672q-94 0 -94 69.5t94 69.5h672v547q0 94 69.5 94t69.5 -94v-547h672q94 0 94 -69.5t-94 -69.5h-672v-502h672q94 0 94 -69.5t-94 -69.5h-1483q-94 0 -94 69.5z" />
<glyph unicode="&#xb2;" horiz-adv-x="901" d="M90 625v26q0 25 19 39l325 254q164 129 164 250q0 74 -55.5 125t-149.5 51q-90 0 -147 -35q70 -20 69 -88q0 -45 -34.5 -69.5t-77.5 -24.5q-41 0 -77 23.5t-36 72.5q0 84 96.5 134.5t241.5 50.5q170 0 277.5 -65.5t107.5 -174.5q0 -106 -141 -199q-10 -6 -116.5 -68.5 t-223.5 -138.5h203q139 0 155 9q27 14 39 108h84l-49 -280h-674z" />
<glyph unicode="&#xb3;" horiz-adv-x="901" d="M76 803q0 47 33.5 73.5t85.5 26.5q53 0 85.5 -27.5t32.5 -72.5q0 -68 -77 -94q82 -43 188 -43q59 0 96 18t51.5 53t17.5 55.5t3 53.5t-4 55.5t-18.5 56t-53.5 52t-98 18.5h-72q-45 0 -45 25q0 18 11.5 22t47.5 6q68 4 93.5 10.5t56.5 32.5q55 55 55 140q0 20 -3 34.5 t-14 36t-42 33.5t-78 12q-102 0 -168 -45q84 -18 84 -90q0 -41 -32.5 -65.5t-78.5 -24.5q-39 0 -73.5 23.5t-34.5 70.5q0 78 86 131.5t225 53.5q160 0 250 -49.5t90 -124.5q0 -127 -201 -201q119 -20 185.5 -78.5t66.5 -134.5q0 -92 -98 -165t-297 -73q-156 0 -256 53.5 t-100 141.5z" />
<glyph unicode="&#xb4;" d="M467 1126l254 269q43 47 94 47q53 0 92 -44t39 -93q0 -66 -80 -111l-334 -160z" />
<glyph unicode="&#xb6;" horiz-adv-x="1437" d="M131 936q0 209 174 347t414 138h561q92 0 92 -63q0 -61 -92 -62h-104v-1603q0 -90 -64 -90q-61 0 -61 90v1603h-164v-1603q0 -90 -64 -90q-61 0 -61 90v758q-283 16 -457 148t-174 337z" />
<glyph unicode="&#xb7;" horiz-adv-x="1949" d="M811 702.5q0 67.5 48 115.5t115.5 48t116 -48t48.5 -115.5t-48.5 -115.5t-116 -48t-115.5 48t-48 115.5z" />
<glyph unicode="&#xb8;" horiz-adv-x="1114" d="M223 -295h58q334 0 333 47q0 31 -45 39t-127 8v211h230v-96q90 0 155.5 -44t65.5 -118q0 -39 -21.5 -67.5t-68.5 -46t-91 -27.5t-121 -14.5t-123 -5.5t-130 -1h-115v115z" />
<glyph unicode="&#xb9;" horiz-adv-x="911" d="M135 1292v64h33q205 0 324 78q35 0 46 -2t16 -10.5t5 -28.5v-703h217v-65q-53 4 -311 4q-262 0 -315 -4v65h221v627q-92 -25 -203 -25h-33z" />
<glyph unicode="&#xba;" horiz-adv-x="1052" d="M59 1094q0 145 121 242.5t346.5 97.5t347 -98.5t121.5 -241.5q0 -135 -120.5 -228.5t-348.5 -93.5q-225 0 -346 92t-121 230zM113 674q0 16 15 26.5t38 10.5h723q23 0 38 -11.5t15 -25.5q0 -16 -15.5 -27.5t-37.5 -11.5h-723q-53 0 -53 39zM291 1112q0 -63 4 -98 t24.5 -82t71.5 -69.5t135 -22.5t135.5 22.5t72 69.5t24.5 82t4 98q0 59 -4 92t-24.5 79t-72 68.5t-135.5 22.5q-68 0 -114.5 -17.5t-70.5 -40t-35 -63.5t-13 -67.5t-2 -73.5z" />
<glyph unicode="&#xbb;" horiz-adv-x="1392" d="M281 43q49 231 161 434q-111 197 -161 434q-4 16 7 28.5t27 12.5h17q25 0 30 -20q106 -256 322 -428q14 -11 14 -27q0 -14 -14 -28q-215 -172 -322 -429q-6 -20 -30 -20h-17q-16 0 -27.5 13.5t-6.5 29.5zM705 43q49 231 161 434q-111 197 -161 434q-4 16 7 28.5t27 12.5 h17q25 0 30 -20q106 -256 322 -428q14 -11 14 -27q0 -14 -14 -28q-215 -172 -322 -429q-6 -20 -30 -20h-17q-16 0 -27.5 13.5t-6.5 29.5z" />
<glyph unicode="&#xbc;" horiz-adv-x="2136" d="M135 1292v64h33q205 0 324 78q35 0 46 -2t16 -10.5t5 -28.5v-703h217v-65q-53 4 -311 4q-262 0 -315 -4v65h221v627q-92 -25 -203 -25h-33zM604 41q0 27 14 43l1004 1323q20 27 55 27q29 0 49.5 -20.5t20.5 -49.5q0 -23 -14 -41l-1004 -1325q-20 -27 -55 -27 q-29 0 -49.5 20.5t-20.5 49.5zM1198 188v66l539 537q18 18 59 18q33 0 42 -6t9 -35v-514h154v-66h-154v-125h154v-63q-66 4 -258 4q-213 0 -266 -4v63h174v125h-453zM1290 254h381v379z" />
<glyph unicode="&#xbd;" horiz-adv-x="2136" d="M135 1292v64h33q205 0 324 78q35 0 46 -2t16 -10.5t5 -28.5v-703h217v-65q-53 4 -311 4q-262 0 -315 -4v65h221v627q-92 -25 -203 -25h-33zM498 41q0 25 12 43l1003 1323q23 27 58 27q29 0 49 -20.5t20 -49.5q0 -23 -14 -41l-1003 -1325q-23 -27 -56 -27q-29 0 -49 20.5 t-20 49.5zM1278 0v27q0 23 18 39l326 251q166 127 166 250q0 74 -55.5 126t-151.5 52q-88 0 -145 -36q68 -23 67 -86q0 -45 -34.5 -71t-77.5 -26q-39 0 -76 23.5t-37 73.5q0 86 96 136t242 50q170 0 277.5 -65.5t107.5 -174.5q0 -106 -139 -198q-12 -8 -119 -69.5 t-223 -137.5h204q137 0 154 6q27 10 41 111h82l-49 -281h-674z" />
<glyph unicode="&#xbe;" horiz-adv-x="2136" d="M150 803q0 45 34.5 72.5t85.5 27.5q53 0 86 -27.5t33 -72.5q0 -68 -78 -94q82 -43 189 -43q47 0 80.5 14t49 31.5t25 47t10.5 46t1 41.5q0 35 -3.5 56.5t-17.5 55t-53 52t-98 18.5h-72q-45 0 -45 25q0 18 11 22t48 6q68 4 93.5 10.5t56.5 32.5q53 53 53 140q0 20 -3 34.5 t-13.5 36t-41 33.5t-77.5 12q-102 0 -168 -45q82 -18 82 -90q0 -41 -32 -65.5t-77 -24.5q-39 0 -73.5 23.5t-34.5 70.5q0 78 85 131.5t226 53.5q160 0 250 -49.5t90 -124.5q0 -127 -201 -201q117 -20 184.5 -78.5t67.5 -134.5q0 -92 -98 -165t-297 -73q-156 0 -257 53.5 t-101 141.5zM604 41q0 27 14 43l1004 1323q20 27 55 27q29 0 49.5 -20.5t20.5 -49.5q0 -23 -14 -41l-1004 -1325q-20 -27 -55 -27q-29 0 -49.5 20.5t-20.5 49.5zM1198 188v66l539 537q18 18 59 18q33 0 42 -6t9 -35v-514h154v-66h-154v-125h154v-63q-66 4 -258 4 q-213 0 -266 -4v63h174v125h-453zM1290 254h381v379z" />
<glyph unicode="&#xbf;" horiz-adv-x="1183" d="M139 -147q0 129 115 202q244 156 244 385v52q0 27 2 38t14 18t41 7q41 0 49 -14.5t8 -81.5q0 -260 -151 -455q-18 -25 -25.5 -39t-13.5 -46t-6 -81q0 -53 3 -76.5t16.5 -48t44 -32t85.5 -7.5q178 0 279 54q-78 37 -78 125q0 66 42 102.5t97 36.5q49 0 93 -35t44 -107 q0 -61 -28.5 -109t-79.5 -74.5t-100.5 -44t-114 -24t-95 -8.5t-69.5 -2q-33 0 -59.5 2t-83 8.5t-97.5 24t-85 44t-67.5 74.5t-23.5 112zM391 860.5q0 67.5 48 115.5t116 48t116 -48t48 -115.5t-48 -116t-116 -48.5t-116 48.5t-48 116z" />
<glyph unicode="&#xc0;" horiz-adv-x="1888" d="M92 0v106h49q51 0 105 7q37 4 46 10t19 29l535 1230q14 37 35.5 45.5t62.5 8.5q27 0 40 -2t29.5 -14.5t26.5 -37.5l553 -1276h201v-106q-129 6 -344 6q-289 0 -365 -6v106h191l-125 285h-588l-104 -237l-10 -29q59 -18 180 -19v-106l-279 6q-154 0 -258 -6zM610 498h496 l-248 571zM610 1712q-16 59 22 109.5t101 50.5q39 0 84 -33l297 -219l-49 -102l-356 98l-11 4q-10 4 -16 6t-16.5 8t-17.5 12.5t-16 16.5t-14.5 22.5t-7.5 26.5z" />
<glyph unicode="&#xc1;" horiz-adv-x="1888" d="M92 0v106h49q51 0 105 7q37 4 46 10t19 29l535 1230q14 37 35.5 45.5t62.5 8.5q27 0 40 -2t29.5 -14.5t26.5 -37.5l553 -1276h201v-106q-129 6 -344 6q-289 0 -365 -6v106h191l-125 285h-588l-104 -237l-10 -29q59 -18 180 -19v-106l-279 6q-154 0 -258 -6zM610 498h496 l-248 571zM776 1620l297 219q43 33 84 33q63 0 101 -50.5t22 -109.5q-2 -14 -7 -26.5t-14.5 -22.5t-16.5 -16.5t-17.5 -12.5t-16.5 -8t-16 -6l-10 -4l-357 -98z" />
<glyph unicode="&#xc2;" horiz-adv-x="1888" d="M92 0v106h49q51 0 105 7q37 4 46 10t19 29l535 1230q14 37 35.5 45.5t62.5 8.5q27 0 40 -2t29.5 -14.5t26.5 -37.5l553 -1276h201v-106q-129 6 -344 6q-289 0 -365 -6v106h191l-125 285h-588l-104 -237l-10 -29q59 -18 180 -19v-106l-279 6q-154 0 -258 -6zM586 1546 l358 289l359 -289l-33 -49l-328 119l-328 -119zM610 498h496l-248 571z" />
<glyph unicode="&#xc3;" horiz-adv-x="1888" d="M92 0v106h49q51 0 105 7q37 4 46 10t19 29l535 1230q14 37 35.5 45.5t62.5 8.5q27 0 40 -2t29.5 -14.5t26.5 -37.5l553 -1276h201v-106q-129 6 -344 6q-289 0 -365 -6v106h191l-125 285h-588l-104 -237l-10 -29q59 -18 180 -19v-106l-279 6q-154 0 -258 -6zM526 1559 q55 53 79 78.5t34 35.5q78 74 166 74q55 0 143 -33q125 -49 180 -49q57 0 103.5 26.5t68.5 55.5l62 -61q-55 -53 -78.5 -79t-34.5 -36q-78 -74 -166 -74q-55 0 -143 33q-125 49 -180 49q-57 0 -103.5 -26.5t-68.5 -55.5zM610 498h496l-248 571z" />
<glyph unicode="&#xc4;" horiz-adv-x="1888" d="M92 0v106h49q51 0 105 7q37 4 46 10t19 29l535 1230q14 37 35.5 45.5t62.5 8.5q27 0 40 -2t29.5 -14.5t26.5 -37.5l553 -1276h201v-106q-129 6 -344 6q-289 0 -365 -6v106h191l-125 285h-588l-104 -237l-10 -29q59 -18 180 -19v-106l-279 6q-154 0 -258 -6zM475 1644.5 q0 61.5 43 104.5t107 43q59 0 103 -43t44 -104q0 -59 -44 -103.5t-105 -44.5q-59 0 -103.5 43t-44.5 104.5zM610 498h496l-248 571zM1118 1644.5q0 61.5 43 104.5t107 43q59 0 103 -43t44 -104q0 -59 -44 -103.5t-105 -44.5q-59 0 -103.5 43t-44.5 104.5z" />
<glyph unicode="&#xc5;" horiz-adv-x="1888" d="M92 0v106h49q51 0 105 7q37 4 46 10t19 29l535 1230q14 37 35.5 45.5t62.5 8.5q27 0 40 -2t29.5 -14.5t26.5 -37.5l553 -1276h201v-106q-129 6 -344 6q-289 0 -365 -6v106h191l-125 285h-588l-104 -237l-10 -29q59 -18 180 -19v-106l-279 6q-154 0 -258 -6zM610 498h496 l-248 571zM676 1610q0 63 63.5 116.5t206.5 53.5q133 0 199.5 -50t66.5 -124q0 -63 -63.5 -116.5t-206.5 -53.5q-133 0 -199.5 50t-66.5 124zM807 1608q0 -37 20.5 -53.5t43 -19.5t73.5 -3t77 4t43 20.5t17 51.5q0 37 -20.5 53t-43 19t-73.5 3t-76.5 -4t-43 -20.5 t-17.5 -50.5z" />
<glyph unicode="&#xc6;" horiz-adv-x="2267" d="M94 0v106h47q55 0 107 7q37 4 46 10t19 29l516 1146h-141v107h1372l68 -498h-115q-12 104 -30.5 166t-60.5 119t-117.5 81.5t-194.5 24.5h-275v-569h138q139 0 184 52.5t45 183.5h115v-578h-115q0 131 -45 183.5t-184 52.5h-138v-517h281q131 0 218 30t135 97.5t70.5 138 t43.5 191.5h115l-101 -563h-1214v106h166v517h-375l-211 -467l-10 -31q59 -18 178 -19v-106l-279 6q-158 0 -258 -6zM723 729h326v569h-70z" />
<glyph unicode="&#xc7;" horiz-adv-x="1810" d="M139 702q0 315 232.5 523.5t638.5 208.5q236 0 434 -140l135 119q23 20 47 21q20 0 30.5 -9.5t12.5 -19.5t2 -35v-440q0 -45 -11 -54.5t-56 -9.5q-29 0 -39.5 2t-18.5 10.5t-10 28.5q-37 205 -175 312.5t-310 107.5q-297 0 -455 -172q-129 -141 -129 -453 q0 -309 133 -454q154 -170 457 -170q203 0 346 108.5t153 268.5q2 39 11.5 49t46.5 10q23 0 32 -2t17 -13t8 -34q0 -178 -154.5 -320.5t-404.5 -167.5v-63q90 0 154.5 -44t64.5 -118q0 -39 -21.5 -67.5t-68.5 -46t-91 -27.5t-121 -14.5t-123 -5.5t-130 -1h-114v115h57 q334 0 334 47t-170 47v178q-352 35 -548 237t-196 488z" />
<glyph unicode="&#xc8;" horiz-adv-x="1642" d="M96 0v106h221v1180h-221v107h1340l67 -498h-114q-29 221 -121 306t-312 85h-333v-510h122q137 0 182.5 52.5t45.5 183.5h114v-578h-114q0 131 -45 183.5t-183 52.5h-122v-564h340q111 0 190.5 20.5t130.5 54.5t86 95.5t53.5 126t34.5 160.5h115l-100 -563h-1377z M487 1712q-16 59 22 109.5t101 50.5q39 0 84 -33l297 -219l-49 -102l-356 98l-11 4q-10 4 -16 6t-16.5 8t-17.5 12.5t-16 16.5t-14.5 22.5t-7.5 26.5z" />
<glyph unicode="&#xc9;" horiz-adv-x="1642" d="M96 0v106h221v1180h-221v107h1340l67 -498h-114q-29 221 -121 306t-312 85h-333v-510h122q137 0 182.5 52.5t45.5 183.5h114v-578h-114q0 131 -45 183.5t-183 52.5h-122v-564h340q111 0 190.5 20.5t130.5 54.5t86 95.5t53.5 126t34.5 160.5h115l-100 -563h-1377z M653 1620l297 219q43 33 84 33q63 0 101 -50.5t22 -109.5q-2 -14 -7 -26.5t-14.5 -22.5t-16.5 -16.5t-17 -12.5t-16.5 -8t-16.5 -6l-10 -4l-357 -98z" />
<glyph unicode="&#xca;" horiz-adv-x="1642" d="M96 0v106h221v1180h-221v107h1340l67 -498h-114q-29 221 -121 306t-312 85h-333v-510h122q137 0 182.5 52.5t45.5 183.5h114v-578h-114q0 131 -45 183.5t-183 52.5h-122v-564h340q111 0 190.5 20.5t130.5 54.5t86 95.5t53.5 126t34.5 160.5h115l-100 -563h-1377z M463 1546l358 289l359 -289l-33 -49l-328 119l-327 -119z" />
<glyph unicode="&#xcb;" horiz-adv-x="1642" d="M96 0v106h221v1180h-221v107h1340l67 -498h-114q-29 221 -121 306t-312 85h-333v-510h122q137 0 182.5 52.5t45.5 183.5h114v-578h-114q0 131 -45 183.5t-183 52.5h-122v-564h340q111 0 190.5 20.5t130.5 54.5t86 95.5t53.5 126t34.5 160.5h115l-100 -563h-1377z M352 1644.5q0 61.5 43 104.5t107 43q59 0 103 -43t44 -104q0 -59 -44 -103.5t-105 -44.5q-59 0 -103.5 43t-44.5 104.5zM995 1644.5q0 61.5 43 104.5t107 43q59 0 103 -43t44 -104q0 -59 -44 -103.5t-105 -44.5q-59 0 -103.5 43t-44.5 104.5z" />
<glyph unicode="&#xcc;" horiz-adv-x="940" d="M86 0v106h231v1192h-231v107q76 -6 385 -6q307 0 383 6v-107h-231v-1192h231v-106q-76 6 -385 6q-307 0 -383 -6zM135 1712q-16 59 22 109.5t101 50.5q39 0 84 -33l297 -219l-49 -102l-357 98l-10 4t-16 6t-16.5 8t-17.5 12.5t-16.5 16.5t-14.5 22.5t-7 26.5z" />
<glyph unicode="&#xcd;" horiz-adv-x="940" d="M86 0v106h231v1192h-231v107q76 -6 385 -6q307 0 383 6v-107h-231v-1192h231v-106q-76 6 -385 6q-307 0 -383 -6zM301 1620l297 219q43 33 84 33q63 0 101 -50.5t22 -109.5q-2 -14 -7 -26.5t-14.5 -22.5t-16.5 -16.5t-17.5 -12.5t-16.5 -8t-16 -6l-10 -4l-357 -98z" />
<glyph unicode="&#xce;" horiz-adv-x="940" d="M86 0v106h231v1192h-231v107q76 -6 385 -6q307 0 383 6v-107h-231v-1192h231v-106q-76 6 -385 6q-307 0 -383 -6zM111 1546l358 289l358 -289l-32 -49l-328 119l-328 -119z" />
<glyph unicode="&#xcf;" horiz-adv-x="940" d="M0 1644.5q0 61.5 43 104.5t107 43q59 0 103 -43t44 -104q0 -59 -44 -103.5t-106 -44.5q-59 0 -103 43t-44 104.5zM86 0v106h231v1192h-231v107q76 -6 385 -6q307 0 383 6v-107h-231v-1192h231v-106q-76 6 -385 6q-307 0 -383 -6zM643 1644.5q0 61.5 43 104.5t107 43 q59 0 103 -43t44 -104q0 -59 -44 -103.5t-105 -44.5q-59 0 -103.5 43t-44.5 104.5z" />
<glyph unicode="&#xd0;" horiz-adv-x="1918" d="M96 0v106h221v543h-221v107h221v542h-221v107h928q332 0 544 -193.5t212 -521.5q0 -315 -210 -502.5t-544 -187.5h-930zM610 106h330q109 0 194 24t139 56.5t93 90t57.5 101.5t28.5 113.5t11 105.5t1 97.5t-1 97t-11 106.5t-28.5 118t-57.5 105.5t-93 93t-140 59 t-195 24.5h-328v-542h351v-107h-351v-543z" />
<glyph unicode="&#xd1;" horiz-adv-x="1953" d="M96 0v106h58q51 0 104 5q43 4 51 11t8 40v1136h-221v107h479q31 0 41.5 -4t30.5 -25l862 -952v819q0 31 -8 38t-47 11q-47 6 -108 6h-58v107l285 -6l285 6v-107h-58q-51 0 -104 -4q-43 -4 -51.5 -11t-8.5 -40v-1173q0 -41 -10 -55.5t-53 -14.5q-41 0 -64 25l-1065 1179 v-1042q0 -31 8.5 -38t47.5 -11q47 -6 108 -7h58v-106l-285 6zM559 1559q55 53 79 78.5t34 35.5q78 74 166 74q55 0 143 -33q125 -49 180 -49q57 0 103.5 26.5t68.5 55.5l62 -61q-55 -53 -79 -79t-34 -36q-78 -74 -166 -74q-55 0 -143 33q-125 49 -180 49q-57 0 -103.5 -26.5 t-68.5 -55.5z" />
<glyph unicode="&#xd2;" horiz-adv-x="1884" d="M139 694q0 324 213 532t588 208q379 0 591 -209t212 -531q0 -313 -212 -518t-591 -205q-375 0 -588 203t-213 520zM467 725q0 -291 86 -436q129 -217 389 -217q117 0 217.5 52t159.5 148q96 160 96 453q0 297 -106 440q-129 172 -369 172q-125 0 -217 -48t-141 -111 q-66 -88 -90.5 -193.5t-24.5 -259.5zM608 1712q-16 59 22 109.5t101 50.5q39 0 84 -33l297 -219l-49 -102l-356 98l-11 4q-10 4 -16 6t-16.5 8t-17.5 12.5t-16 16.5t-14.5 22.5t-7.5 26.5z" />
<glyph unicode="&#xd3;" horiz-adv-x="1884" d="M139 694q0 324 213 532t588 208q379 0 591 -209t212 -531q0 -313 -212 -518t-591 -205q-375 0 -588 203t-213 520zM467 725q0 -291 86 -436q129 -217 389 -217q117 0 217.5 52t159.5 148q96 160 96 453q0 297 -106 440q-129 172 -369 172q-125 0 -217 -48t-141 -111 q-66 -88 -90.5 -193.5t-24.5 -259.5zM774 1620l297 219q43 33 84 33q63 0 101 -50.5t22 -109.5q-2 -14 -7 -26.5t-14.5 -22.5t-16.5 -16.5t-17.5 -12.5t-16.5 -8t-16 -6l-10 -4l-357 -98z" />
<glyph unicode="&#xd4;" horiz-adv-x="1884" d="M139 694q0 324 213 532t588 208q379 0 591 -209t212 -531q0 -313 -212 -518t-591 -205q-375 0 -588 203t-213 520zM467 725q0 -291 86 -436q129 -217 389 -217q117 0 217.5 52t159.5 148q96 160 96 453q0 297 -106 440q-129 172 -369 172q-125 0 -217 -48t-141 -111 q-66 -88 -90.5 -193.5t-24.5 -259.5zM584 1546l358 289l358 -289l-32 -49l-328 119l-328 -119z" />
<glyph unicode="&#xd5;" horiz-adv-x="1884" d="M139 694q0 324 213 532t588 208q379 0 591 -209t212 -531q0 -313 -212 -518t-591 -205q-375 0 -588 203t-213 520zM467 725q0 -291 86 -436q129 -217 389 -217q117 0 217.5 52t159.5 148q96 160 96 453q0 297 -106 440q-129 172 -369 172q-125 0 -217 -48t-141 -111 q-66 -88 -90.5 -193.5t-24.5 -259.5zM524 1559q55 53 79 78.5t34 35.5q78 74 166 74q55 0 143 -33q125 -49 180 -49q57 0 103.5 26.5t68.5 55.5l62 -61q-55 -53 -79 -79t-34 -36q-78 -74 -166 -74q-55 0 -143 33q-125 49 -180 49q-57 0 -103.5 -26.5t-68.5 -55.5z" />
<glyph unicode="&#xd6;" horiz-adv-x="1884" d="M139 694q0 324 213 532t588 208q379 0 591 -209t212 -531q0 -313 -212 -518t-591 -205q-375 0 -588 203t-213 520zM467 725q0 -291 86 -436q129 -217 389 -217q117 0 217.5 52t159.5 148q96 160 96 453q0 297 -106 440q-129 172 -369 172q-125 0 -217 -48t-141 -111 q-66 -88 -90.5 -193.5t-24.5 -259.5zM473 1644.5q0 61.5 43 104.5t107 43q59 0 103 -43t44 -104q0 -59 -44 -103.5t-105 -44.5q-59 0 -103.5 43t-44.5 104.5zM1116 1644.5q0 61.5 43 104.5t107 43q59 0 103 -43t44 -104q0 -59 -44 -103.5t-105 -44.5q-59 0 -103.5 43 t-44.5 104.5z" />
<glyph unicode="&#xd7;" horiz-adv-x="1949" d="M384.5 1102q49.5 49 115.5 -17l475 -475l475 475q66 66 115 17t-17 -115l-475 -475l475 -475q66 -66 17 -115t-115 17l-475 475l-475 -475q-66 -66 -115 -17t16 115l476 475l-476 475q-66 66 -16.5 115z" />
<glyph unicode="&#xd8;" horiz-adv-x="1949" d="M139 694q0 317 218 528.5t618 211.5q238 0 424 -82l135 182l76 -57l-127 -172q174 -104 250.5 -270.5t76.5 -340.5q0 -311 -219 -517t-616 -206q-242 0 -424 82l-135 -182l-76 57l125 170q-104 63 -176 149.5t-100.5 175.5t-39 150.5t-10.5 120.5zM444 696 q0 -154 21.5 -268.5t93.5 -202.5l758 1020q-129 102 -342 103q-262 0 -406 -160q-125 -143 -125 -492zM631 158q127 -100 344 -101q270 0 407 158q76 90 99.5 202.5t23.5 278.5q0 164 -23.5 277.5t-92.5 204.5z" />
<glyph unicode="&#xd9;" horiz-adv-x="1921" d="M96 1298v107q78 -6 375 -6q295 0 373 6v-107h-221v-837q0 -49 3 -85t23.5 -97.5t57 -100.5t113.5 -69.5t186 -30.5q205 0 333.5 97t128.5 300v768q0 31 -8 38t-47 11q-47 6 -108 6h-58v107l289 -6l289 6v-107h-58q-51 0 -104 -4q-43 -4 -51 -11t-8 -40v-772 q0 -209 -153 -354.5t-454 -145.5q-324 0 -502 143.5t-178 358.5v825h-221zM684 1712q-16 59 21.5 109.5t101.5 50.5q39 0 84 -33l297 -219l-49 -102l-357 98l-10 4q-10 4 -16 6t-16.5 8t-17.5 12.5t-16.5 16.5t-14.5 22.5t-7 26.5z" />
<glyph unicode="&#xda;" horiz-adv-x="1921" d="M96 1298v107q78 -6 375 -6q295 0 373 6v-107h-221v-837q0 -49 3 -85t23.5 -97.5t57 -100.5t113.5 -69.5t186 -30.5q205 0 333.5 97t128.5 300v768q0 31 -8 38t-47 11q-47 6 -108 6h-58v107l289 -6l289 6v-107h-58q-51 0 -104 -4q-43 -4 -51 -11t-8 -40v-772 q0 -209 -153 -354.5t-454 -145.5q-324 0 -502 143.5t-178 358.5v825h-221zM850 1620l297 219q43 33 84 33q63 0 101 -50.5t22 -109.5q-2 -14 -7.5 -26.5t-14.5 -22.5t-16 -16.5t-17.5 -12.5t-16.5 -8t-16 -6l-11 -4l-356 -98z" />
<glyph unicode="&#xdb;" horiz-adv-x="1921" d="M96 1298v107q78 -6 375 -6q295 0 373 6v-107h-221v-837q0 -49 3 -85t23.5 -97.5t57 -100.5t113.5 -69.5t186 -30.5q205 0 333.5 97t128.5 300v768q0 31 -8 38t-47 11q-47 6 -108 6h-58v107l289 -6l289 6v-107h-58q-51 0 -104 -4q-43 -4 -51 -11t-8 -40v-772 q0 -209 -153 -354.5t-454 -145.5q-324 0 -502 143.5t-178 358.5v825h-221zM659 1546l359 289l358 -289l-33 -49l-327 119l-328 -119z" />
<glyph unicode="&#xdc;" horiz-adv-x="1921" d="M96 1298v107q78 -6 375 -6q295 0 373 6v-107h-221v-837q0 -49 3 -85t23.5 -97.5t57 -100.5t113.5 -69.5t186 -30.5q205 0 333.5 97t128.5 300v768q0 31 -8 38t-47 11q-47 6 -108 6h-58v107l289 -6l289 6v-107h-58q-51 0 -104 -4q-43 -4 -51 -11t-8 -40v-772 q0 -209 -153 -354.5t-454 -145.5q-324 0 -502 143.5t-178 358.5v825h-221zM549 1644.5q0 61.5 43 104.5t106 43q59 0 103.5 -43t44.5 -104q0 -59 -44 -103.5t-106 -44.5q-59 0 -103 43t-44 104.5zM1192 1644.5q0 61.5 43 104.5t106 43q59 0 103.5 -43t44.5 -104 q0 -59 -44 -103.5t-106 -44.5q-59 0 -103 43t-44 104.5z" />
<glyph unicode="&#xdd;" horiz-adv-x="1888" d="M49 1298v107q104 -6 352 -6q303 0 377 6v-107h-164l426 -575l412 557q-55 18 -147 18v107l278 -6q162 0 254 6v-107h-49q-53 0 -109 -6q-37 -4 -48 -8t-25 -24l-516 -697v-457h219v-106q-80 6 -365 6q-289 0 -369 -6v106h222v455l-545 737h-203zM776 1620l297 219 q43 33 84 33q63 0 101 -50.5t22 -109.5q-2 -14 -7 -26.5t-14.5 -22.5t-16.5 -16.5t-17.5 -12.5t-16.5 -8t-16 -6l-10 -4l-357 -98z" />
<glyph unicode="&#xde;" horiz-adv-x="1710" d="M86 0v106h231v1192h-231v107q76 -6 385 -6q307 0 383 6v-107h-231v-196h370q268 0 422 -116t154 -288q0 -170 -154.5 -282.5t-421.5 -112.5h-370v-197h231v-106q-76 6 -385 6q-307 0 -383 -6zM610 406h305q78 0 136.5 11t93.5 35.5t55.5 48t28.5 64.5t10 67t2 73 q0 57 -2 86.5t-18.5 76.5t-49 71t-96 43t-157.5 19h-308v-595z" />
<glyph unicode="&#xdf;" horiz-adv-x="1304" d="M94 0v106h135v697h-135v106h135v226q0 147 127 224t338 77q238 0 354.5 -85t116.5 -202q0 -76 -55 -158t-197 -131q322 -143 322 -491q0 -176 -129 -279.5t-332 -103.5q-111 0 -173 57t-62 129q0 49 31.5 81t78.5 32t79 -30t32 -81q0 -66 -45 -92q20 -10 55 -10 q207 0 207 295q0 438 -338 456q-33 6 -33 43q0 18 9.5 28.5t17.5 11.5t29 3q246 12 245 240q0 37 -7 66.5t-26.5 63.5t-66.5 52.5t-117 18.5q-63 0 -108 -17.5t-66.5 -39t-34 -56.5t-13.5 -53.5t-1 -44.5v-1139q-45 6 -156 6q-109 0 -217 -6z" />
<glyph unicode="&#xe0;" horiz-adv-x="1218" d="M72 229q0 88 65.5 154t175 99.5t224 50t241.5 16.5v59q0 238 -235 238q-98 0 -156 -15q43 -39 43 -104q0 -59 -39 -98t-100 -39q-55 0 -96 38t-41 101q0 203 393 203q240 0 360.5 -90t120.5 -236v-432q0 -29 5 -40t33 -19.5t89 -8.5q14 0 22.5 -1t18.5 -5t15.5 -16.5 t5.5 -30.5q0 -37 -16.5 -45t-53.5 -8h-109q-133 0 -177 39t-44 100q-100 -154 -325 -153q-182 0 -301 60t-119 183zM293 1305q0 49 39 93t92 44q51 0 94 -47l254 -269l-65 -92l-334 160q-80 45 -80 111zM322 233q0 -72 60 -116.5t142 -44.5q12 0 30.5 1t61.5 12t76 30.5 t59.5 63t26.5 102.5v190q-203 -4 -329.5 -67.5t-126.5 -170.5z" />
<glyph unicode="&#xe1;" horiz-adv-x="1218" d="M72 229q0 88 65.5 154t175 99.5t224 50t241.5 16.5v59q0 238 -235 238q-98 0 -156 -15q43 -39 43 -104q0 -59 -39 -98t-100 -39q-55 0 -96 38t-41 101q0 203 393 203q240 0 360.5 -90t120.5 -236v-432q0 -29 5 -40t33 -19.5t89 -8.5q14 0 22.5 -1t18.5 -5t15.5 -16.5 t5.5 -30.5q0 -37 -16.5 -45t-53.5 -8h-109q-133 0 -177 39t-44 100q-100 -154 -325 -153q-182 0 -301 60t-119 183zM322 233q0 -72 60 -116.5t142 -44.5q12 0 30.5 1t61.5 12t76 30.5t59.5 63t26.5 102.5v190q-203 -4 -329.5 -67.5t-126.5 -170.5zM451 1126l254 269 q43 47 94 47q53 0 92 -44t39 -93q0 -66 -80 -111l-334 -160z" />
<glyph unicode="&#xe2;" horiz-adv-x="1218" d="M72 229q0 88 65.5 154t175 99.5t224 50t241.5 16.5v59q0 238 -235 238q-98 0 -156 -15q43 -39 43 -104q0 -59 -39 -98t-100 -39q-55 0 -96 38t-41 101q0 203 393 203q240 0 360.5 -90t120.5 -236v-432q0 -29 5 -40t33 -19.5t89 -8.5q14 0 22.5 -1t18.5 -5t15.5 -16.5 t5.5 -30.5q0 -37 -16.5 -45t-53.5 -8h-109q-133 0 -177 39t-44 100q-100 -154 -325 -153q-182 0 -301 60t-119 183zM248 1071l362 379l363 -379l-41 -45l-324 203l-323 -203zM322 233q0 -72 60 -116.5t142 -44.5q12 0 30.5 1t61.5 12t76 30.5t59.5 63t26.5 102.5v190 q-203 -4 -329.5 -67.5t-126.5 -170.5z" />
<glyph unicode="&#xe3;" horiz-adv-x="1218" d="M72 229q0 88 65.5 154t175 99.5t224 50t241.5 16.5v59q0 238 -235 238q-98 0 -156 -15q43 -39 43 -104q0 -59 -39 -98t-100 -39q-55 0 -96 38t-41 101q0 203 393 203q240 0 360.5 -90t120.5 -236v-432q0 -29 5 -40t33 -19.5t89 -8.5q14 0 22.5 -1t18.5 -5t15.5 -16.5 t5.5 -30.5q0 -37 -16.5 -45t-53.5 -8h-109q-133 0 -177 39t-44 100q-100 -154 -325 -153q-182 0 -301 60t-119 183zM193 1176q55 53 78.5 78.5t33.5 35.5q78 74 166 74q55 0 143 -33q125 -49 181 -49q57 0 103 26.5t69 55.5l61 -61q-55 -53 -78.5 -79t-34.5 -36 q-78 -74 -165 -74q-55 0 -144 33q-125 49 -180 49q-57 0 -103.5 -26.5t-68.5 -55.5zM322 233q0 -72 60 -116.5t142 -44.5q12 0 30.5 1t61.5 12t76 30.5t59.5 63t26.5 102.5v190q-203 -4 -329.5 -67.5t-126.5 -170.5z" />
<glyph unicode="&#xe4;" horiz-adv-x="1218" d="M72 229q0 88 65.5 154t175 99.5t224 50t241.5 16.5v59q0 238 -235 238q-98 0 -156 -15q43 -39 43 -104q0 -59 -39 -98t-100 -39q-55 0 -96 38t-41 101q0 203 393 203q240 0 360.5 -90t120.5 -236v-432q0 -29 5 -40t33 -19.5t89 -8.5q14 0 22.5 -1t18.5 -5t15.5 -16.5 t5.5 -30.5q0 -37 -16.5 -45t-53.5 -8h-109q-133 0 -177 39t-44 100q-100 -154 -325 -153q-182 0 -301 60t-119 183zM190 1239q0 61 43 104t107 43q59 0 103 -43t44 -104q0 -59 -44 -103t-105 -44q-59 0 -103.5 43t-44.5 104zM322 233q0 -72 60 -116.5t142 -44.5q12 0 30.5 1 t61.5 12t76 30.5t59.5 63t26.5 102.5v190q-203 -4 -329.5 -67.5t-126.5 -170.5zM735 1239q0 61 43 104t107 43q59 0 103 -43t44 -104q0 -59 -44 -103t-105 -44q-59 0 -103.5 43t-44.5 104z" />
<glyph unicode="&#xe5;" horiz-adv-x="1218" d="M72 229q0 88 65.5 154t175 99.5t224 50t241.5 16.5v59q0 238 -235 238q-98 0 -156 -15q43 -39 43 -104q0 -59 -39 -98t-100 -39q-55 0 -96 38t-41 101q0 203 393 203q240 0 360.5 -90t120.5 -236v-432q0 -29 5 -40t33 -19.5t89 -8.5q14 0 22.5 -1t18.5 -5t15.5 -16.5 t5.5 -30.5q0 -37 -16.5 -45t-53.5 -8h-109q-133 0 -177 39t-44 100q-100 -154 -325 -153q-182 0 -301 60t-119 183zM322 233q0 -72 60 -116.5t142 -44.5q12 0 30.5 1t61.5 12t76 30.5t59.5 63t26.5 102.5v190q-203 -4 -329.5 -67.5t-126.5 -170.5zM342 1247q0 63 63.5 116.5 t206.5 53.5q133 0 200 -50t67 -124q0 -63 -63.5 -116.5t-207.5 -53.5q-133 0 -199.5 50.5t-66.5 123.5zM473 1245q0 -37 20.5 -53t43 -19.5t74 -3.5t77 4.5t43 20.5t17.5 51q0 37 -20.5 53.5t-43 19.5t-74 3t-77 -4t-43 -20.5t-17.5 -51.5z" />
<glyph unicode="&#xe6;" horiz-adv-x="1810" d="M84 217q0 55 30.5 99t72.5 73t113 51.5t125 33.5t135 20.5t120 11.5t100 4v98q0 238 -237 238q-84 0 -156 -15q43 -39 43 -104q0 -59 -39 -98t-100 -39q-55 0 -96 38t-41 101q0 203 395 203q262 0 393 -117q147 117 367 117q211 0 325 -119q106 -113 107 -317 q0 -43 -15.5 -52.5t-54.5 -9.5h-641q16 -352 330 -352q80 0 154.5 37t109.5 121q10 25 21.5 32t37.5 7q58 0 58 -43q0 -14 -11.5 -41t-40 -64t-71.5 -68.5t-117 -54t-162 -22.5q-242 0 -403 129q-119 -129 -432 -129q-41 0 -75 1t-103.5 13t-117.5 34.5t-86 70t-38 112.5z M334 217q0 -61 55 -103t139 -42q117 0 205 51t88 133q0 12 -8 31q-27 70 -31 141q-449 -23 -448 -211zM1030 514h512q-8 332 -233 332q-92 0 -153.5 -40t-86.5 -105.5t-31 -104.5t-8 -82z" />
<glyph unicode="&#xe7;" horiz-adv-x="1114" d="M84 455q0 195 137 336t412 141q381 0 381 -203q0 -63 -40 -101t-100 -38q-57 0 -97 39t-40 98q0 47 25 84l8 12q0 12 -129 13q-78 0 -134 -29t-84 -65.5t-43 -96t-17.5 -95.5t-2.5 -87q0 -381 306 -381q195 0 260 154q10 27 19 31.5t40 4.5q57 1 57 -36q0 -10 -11 -37 t-45 -71t-83 -75q-74 -45 -176 -59v-80q90 0 155.5 -44t65.5 -118q0 -39 -21.5 -67.5t-68.5 -46t-91 -27.5t-121 -14.5t-123 -5.5t-130 -1h-114v115h57q334 0 334 47q0 31 -45 39t-127 8v197q-199 33 -306.5 160t-107.5 299z" />
<glyph unicode="&#xe8;" horiz-adv-x="1148" d="M70 463q0 195 140 332t398 137q231 0 346 -115q123 -121 123 -323q0 -41 -15 -50.5t-54 -9.5h-662q2 -49 5 -82t21.5 -90t49.5 -91t93.5 -61.5t148.5 -27.5q29 0 62.5 5t80.5 19.5t89 49t65 84.5q12 27 22 33t37 6q57 0 57 -43q0 -12 -10 -37t-41 -63t-77 -70.5t-127 -56 t-183 -23.5q-266 0 -417.5 135t-151.5 342zM256 1305q0 49 39 93t92 44q51 0 94 -47l254 -269l-65 -92l-334 160q-80 45 -80 111zM346 514h531q-8 332 -267 332q-256 0 -264 -332z" />
<glyph unicode="&#xe9;" horiz-adv-x="1148" d="M70 463q0 195 140 332t398 137q231 0 346 -115q123 -121 123 -323q0 -41 -15 -50.5t-54 -9.5h-662q2 -49 5 -82t21.5 -90t49.5 -91t93.5 -61.5t148.5 -27.5q29 0 62.5 5t80.5 19.5t89 49t65 84.5q12 27 22 33t37 6q57 0 57 -43q0 -12 -10 -37t-41 -63t-77 -70.5t-127 -56 t-183 -23.5q-266 0 -417.5 135t-151.5 342zM346 514h531q-8 332 -267 332q-256 0 -264 -332zM414 1126l254 269q43 47 94 47q53 0 92 -44t39 -93q0 -66 -80 -111l-334 -160z" />
<glyph unicode="&#xea;" horiz-adv-x="1148" d="M70 463q0 195 140 332t398 137q231 0 346 -115q123 -121 123 -323q0 -41 -15 -50.5t-54 -9.5h-662q2 -49 5 -82t21.5 -90t49.5 -91t93.5 -61.5t148.5 -27.5q29 0 62.5 5t80.5 19.5t89 49t65 84.5q12 27 22 33t37 6q57 0 57 -43q0 -12 -10 -37t-41 -63t-77 -70.5t-127 -56 t-183 -23.5q-266 0 -417.5 135t-151.5 342zM211 1071l362 379l363 -379l-41 -45l-324 203l-323 -203zM346 514h531q-8 332 -267 332q-256 0 -264 -332z" />
<glyph unicode="&#xeb;" horiz-adv-x="1148" d="M70 463q0 195 140 332t398 137q231 0 346 -115q123 -121 123 -323q0 -41 -15 -50.5t-54 -9.5h-662q2 -49 5 -82t21.5 -90t49.5 -91t93.5 -61.5t148.5 -27.5q29 0 62.5 5t80.5 19.5t89 49t65 84.5q12 27 22 33t37 6q57 0 57 -43q0 -12 -10 -37t-41 -63t-77 -70.5t-127 -56 t-183 -23.5q-266 0 -417.5 135t-151.5 342zM154 1239q0 61 43 104t106 43q59 0 103.5 -43t44.5 -104q0 -59 -44.5 -103t-105.5 -44q-59 0 -103 43t-44 104zM346 514h531q-8 332 -267 332q-256 0 -264 -332zM698 1239q0 61 43 104t107 43q59 0 103 -43t44 -104 q0 -59 -44 -103t-105 -44q-59 0 -103.5 43t-44.5 104z" />
<glyph unicode="&#xec;" horiz-adv-x="696" d="M31 1305q0 49 39 93t92 44q51 0 94 -47l254 -269l-66 -92l-333 160q-80 45 -80 111zM121 0v106h135v617q0 57 -19.5 67.5t-109.5 10.5v106l367 17v-818h120v-106q-100 6 -243 6q-131 0 -250 -6z" />
<glyph unicode="&#xed;" horiz-adv-x="696" d="M121 0v106h135v617q0 57 -19.5 67.5t-109.5 10.5v106l367 17v-818h120v-106q-100 6 -243 6q-131 0 -250 -6zM188 1126l254 269q43 47 95 47q53 0 92 -44t39 -93q0 -66 -80 -111l-334 -160z" />
<glyph unicode="&#xee;" horiz-adv-x="696" d="M-14 1071l362 379l363 -379l-41 -45l-324 203l-323 -203zM121 0v106h135v617q0 57 -19.5 67.5t-109.5 10.5v106l367 17v-818h120v-106q-100 6 -243 6q-131 0 -250 -6z" />
<glyph unicode="&#xef;" horiz-adv-x="696" d="M-72 1239q0 61 43 104t107 43q59 0 103 -43t44 -104q0 -59 -44 -103t-105 -44q-59 0 -103.5 43t-44.5 104zM121 0v106h135v617q0 57 -19.5 67.5t-109.5 10.5v106l367 17v-818h120v-106q-100 6 -243 6q-131 0 -250 -6zM473 1239q0 61 43 104t107 43q59 0 103 -43t44 -104 q0 -59 -44 -103t-105 -44q-59 0 -103.5 43t-44.5 104z" />
<glyph unicode="&#xf0;" d="M70 446q0 205 144 345.5t413 140.5q164 0 288 -58q-27 203 -96 310l-112 -117l-76 74l117 123q-72 59 -183 59v107q145 0 266 -78l121 127l78 -74l-115 -121q131 -131 200 -356.5t69 -481.5q0 -197 -135 -321q-154 -139 -422.5 -139t-412.5 132t-144 328zM346 471 q0 -72 2 -110.5t16.5 -101t42 -94.5t84 -57.5t136.5 -25.5t136 25.5t83.5 57.5t42 94.5t16.5 101t2 110.5q0 57 -2 87t-8 82t-24.5 82t-48 62.5t-80 47t-117.5 14.5q-80 0 -136.5 -24.5t-84 -56.5t-42 -91.5t-16.5 -96t-2 -106.5z" />
<glyph unicode="&#xf1;" horiz-adv-x="1392" d="M115 0v106h135v615q0 57 -20.5 68.5t-114.5 11.5v106l358 17v-209h2q14 25 38 53.5t69 67t117.5 63.5t158.5 25q158 0 248 -65.5t90 -237.5v-515h135v-106q-111 6 -260 6t-260 -6v106h135v537q0 113 -29.5 154t-89.5 41q-72 0 -143.5 -31t-127.5 -106.5t-56 -182.5v-412 h135v-106q-111 6 -260.5 6t-259.5 -6zM279 1176q55 53 78.5 78.5t33.5 35.5q78 74 166 74q55 0 143 -33q125 -49 181 -49q57 0 103 26.5t69 55.5l61 -61q-55 -53 -78.5 -79t-34.5 -36q-78 -74 -165 -74q-55 0 -144 33q-125 49 -180 49q-57 0 -103.5 -26.5t-68.5 -55.5z" />
<glyph unicode="&#xf2;" d="M70 446q0 205 144 345.5t412.5 140.5t413 -139.5t144.5 -346.5q0 -195 -143.5 -327.5t-413.5 -132.5q-268 0 -412.5 132t-144.5 328zM309 1305q0 49 39 93t92 44q51 0 95 -47l253 -269l-65 -92l-334 160q-80 45 -80 111zM346 471q0 -72 2 -110.5t16.5 -101t42 -94.5 t84 -57.5t136.5 -25.5t136 25.5t83.5 57.5t42 94.5t16.5 101t2 110.5q0 57 -2 87t-8 82t-24.5 82t-48 62.5t-80 47t-117.5 14.5q-80 0 -136.5 -24.5t-84 -56.5t-42 -91.5t-16.5 -96t-2 -106.5z" />
<glyph unicode="&#xf3;" d="M70 446q0 205 144 345.5t412.5 140.5t413 -139.5t144.5 -346.5q0 -195 -143.5 -327.5t-413.5 -132.5q-268 0 -412.5 132t-144.5 328zM346 471q0 -72 2 -110.5t16.5 -101t42 -94.5t84 -57.5t136.5 -25.5t136 25.5t83.5 57.5t42 94.5t16.5 101t2 110.5q0 57 -2 87t-8 82 t-24.5 82t-48 62.5t-80 47t-117.5 14.5q-80 0 -136.5 -24.5t-84 -56.5t-42 -91.5t-16.5 -96t-2 -106.5zM467 1126l254 269q43 47 94 47q53 0 92 -44t39 -93q0 -66 -80 -111l-334 -160z" />
<glyph unicode="&#xf4;" d="M70 446q0 205 144 345.5t412.5 140.5t413 -139.5t144.5 -346.5q0 -195 -143.5 -327.5t-413.5 -132.5q-268 0 -412.5 132t-144.5 328zM264 1071l363 379l362 -379l-41 -45l-323 203l-324 -203zM346 471q0 -72 2 -110.5t16.5 -101t42 -94.5t84 -57.5t136.5 -25.5t136 25.5 t83.5 57.5t42 94.5t16.5 101t2 110.5q0 57 -2 87t-8 82t-24.5 82t-48 62.5t-80 47t-117.5 14.5q-80 0 -136.5 -24.5t-84 -56.5t-42 -91.5t-16.5 -96t-2 -106.5z" />
<glyph unicode="&#xf5;" d="M70 446q0 205 144 345.5t412.5 140.5t413 -139.5t144.5 -346.5q0 -195 -143.5 -327.5t-413.5 -132.5q-268 0 -412.5 132t-144.5 328zM209 1176q55 53 78.5 78.5t34.5 35.5q78 74 165 74q55 0 144 -33q125 -49 180 -49q57 0 103.5 26.5t68.5 55.5l61 -61 q-55 -53 -78.5 -79t-33.5 -36q-78 -74 -166 -74q-55 0 -143 33q-125 49 -181 49q-57 0 -103 -26.5t-69 -55.5zM346 471q0 -72 2 -110.5t16.5 -101t42 -94.5t84 -57.5t136.5 -25.5t136 25.5t83.5 57.5t42 94.5t16.5 101t2 110.5q0 57 -2 87t-8 82t-24.5 82t-48 62.5t-80 47 t-117.5 14.5q-80 0 -136.5 -24.5t-84 -56.5t-42 -91.5t-16.5 -96t-2 -106.5z" />
<glyph unicode="&#xf6;" d="M70 446q0 205 144 345.5t412.5 140.5t413 -139.5t144.5 -346.5q0 -195 -143.5 -327.5t-413.5 -132.5q-268 0 -412.5 132t-144.5 328zM207 1239q0 61 43 104t106 43q59 0 103.5 -43t44.5 -104q0 -59 -44 -103t-106 -44q-59 0 -103 43t-44 104zM346 471q0 -72 2 -110.5 t16.5 -101t42 -94.5t84 -57.5t136.5 -25.5t136 25.5t83.5 57.5t42 94.5t16.5 101t2 110.5q0 57 -2 87t-8 82t-24.5 82t-48 62.5t-80 47t-117.5 14.5q-80 0 -136.5 -24.5t-84 -56.5t-42 -91.5t-16.5 -96t-2 -106.5zM752 1239q0 61 43 104t106 43q59 0 103.5 -43t44.5 -104 q0 -59 -44 -103t-106 -44q-59 0 -103 43t-44 104z" />
<glyph unicode="&#xf7;" horiz-adv-x="1949" d="M139 512q0 70 103 70h1466q102 0 102 -70t-90 -70h-1491q-90 0 -90 70zM811 -20.5q0 67.5 48 115.5t115.5 48t116 -48t48.5 -115.5t-48.5 -115.5t-116 -48t-115.5 48t-48 115.5zM811 1044.5q0 67.5 48 115.5t115.5 48t116 -48t48.5 -115.5t-48.5 -115.5t-116 -48 t-115.5 48t-48 115.5z" />
<glyph unicode="&#xf8;" d="M70 446q0 205 144 345.5t413 140.5q129 0 239 -37l158 240l70 -50l-148 -227q121 -66 179.5 -177.5t58.5 -234.5q0 -195 -143.5 -327.5t-413.5 -132.5q-131 0 -238 34l-160 -243l-69 49l149 227q-125 63 -182 170t-57 223zM319 449q0 -68 2.5 -105t16.5 -91t43 -89 l424 641q-61 41 -178 41q-88 0 -149.5 -29t-91.5 -64.5t-46 -99t-18.5 -101.5t-2.5 -103zM451 111q68 -39 176 -39q88 0 149.5 26.5t91 59t46 93t18.5 96.5t2 102q0 111 -11.5 178t-52.5 118z" />
<glyph unicode="&#xf9;" horiz-adv-x="1392" d="M115 801v106l385 17v-701q0 -88 28.5 -119.5t143.5 -31.5q125 0 199.5 71.5t74.5 188.5v389q0 57 -20.5 68.5t-114.5 11.5v106l385 17v-738q0 -57 20.5 -68.5t114.5 -11.5v-106l-373 -14v143q-111 -143 -315 -143q-84 0 -147.5 10t-123 36.5t-91 82t-31.5 137.5v469 q0 57 -20.5 68.5t-114.5 11.5zM379 1305q0 49 39 93t92 44q51 0 94 -47l254 -269l-65 -92l-334 160q-80 45 -80 111z" />
<glyph unicode="&#xfa;" horiz-adv-x="1392" d="M115 801v106l385 17v-701q0 -88 28.5 -119.5t143.5 -31.5q125 0 199.5 71.5t74.5 188.5v389q0 57 -20.5 68.5t-114.5 11.5v106l385 17v-738q0 -57 20.5 -68.5t114.5 -11.5v-106l-373 -14v143q-111 -143 -315 -143q-84 0 -147.5 10t-123 36.5t-91 82t-31.5 137.5v469 q0 57 -20.5 68.5t-114.5 11.5zM537 1126l254 269q43 47 94 47q53 0 92 -44t39 -93q0 -66 -80 -111l-334 -160z" />
<glyph unicode="&#xfb;" horiz-adv-x="1392" d="M115 801v106l385 17v-701q0 -88 28.5 -119.5t143.5 -31.5q125 0 199.5 71.5t74.5 188.5v389q0 57 -20.5 68.5t-114.5 11.5v106l385 17v-738q0 -57 20.5 -68.5t114.5 -11.5v-106l-373 -14v143q-111 -143 -315 -143q-84 0 -147.5 10t-123 36.5t-91 82t-31.5 137.5v469 q0 57 -20.5 68.5t-114.5 11.5zM334 1071l362 379l363 -379l-41 -45l-324 203l-323 -203z" />
<glyph unicode="&#xfc;" horiz-adv-x="1392" d="M115 801v106l385 17v-701q0 -88 28.5 -119.5t143.5 -31.5q125 0 199.5 71.5t74.5 188.5v389q0 57 -20.5 68.5t-114.5 11.5v106l385 17v-738q0 -57 20.5 -68.5t114.5 -11.5v-106l-373 -14v143q-111 -143 -315 -143q-84 0 -147.5 10t-123 36.5t-91 82t-31.5 137.5v469 q0 57 -20.5 68.5t-114.5 11.5zM276 1239q0 61 43 104t107 43q59 0 103 -43t44 -104q0 -59 -44 -103t-105 -44q-59 0 -103.5 43t-44.5 104zM821 1239q0 61 43 104t107 43q59 0 103 -43t44 -104q0 -59 -44 -103t-105 -44q-59 0 -103.5 43t-44.5 104z" />
<glyph unicode="&#xfd;" horiz-adv-x="1323" d="M49 -211q0 59 38 94t91 35q51 0 89 -34t38 -93q0 -76 -59 -110q16 -6 37 -7q113 0 198 111q35 51 115 215l-406 803h-129v106q82 -6 240 -6q133 0 252 6v-106h-96l274 -541l250 494q10 20 10 26q0 8 -20.5 13.5t-40.5 7.5h-23v106q61 -6 185 -6q92 0 170 6v-106 q-90 0 -113 -7.5t-37 -35.5l-481 -944q-37 -72 -129 -150t-221 -78q-98 0 -165 59.5t-67 141.5zM502 1126l254 269q43 47 94 47q53 0 92 -44t39 -93q0 -66 -80 -111l-334 -160z" />
<glyph unicode="&#xfe;" horiz-adv-x="1392" d="M94 -291h135v1018v492q0 57 -20.5 68t-114.5 11v107l373 16v-594q143 96 330 97q240 0 376 -133t136 -334q0 -209 -150.5 -340t-400.5 -131q-156 0 -279 90v-367h135v-106q-111 6 -260 6t-260 -6v106zM479 219q18 -27 44 -55.5t86.5 -60t129.5 -31.5q84 0 142.5 29.5 t87 67.5t44 101.5t17.5 98.5t2 92q0 55 -2 90t-15.5 95.5t-40 97t-80.5 65.5t-130 29q-96 0 -173 -42t-112 -91v-486z" />
<glyph unicode="&#xff;" horiz-adv-x="1323" d="M49 -211q0 59 38 94t91 35q51 0 89 -34t38 -93q0 -76 -59 -110q16 -6 37 -7q113 0 198 111q35 51 115 215l-406 803h-129v106q82 -6 240 -6q133 0 252 6v-106h-96l274 -541l250 494q10 20 10 26q0 8 -20.5 13.5t-40.5 7.5h-23v106q61 -6 185 -6q92 0 170 6v-106 q-90 0 -113 -7.5t-37 -35.5l-481 -944q-37 -72 -129 -150t-221 -78q-98 0 -165 59.5t-67 141.5zM242 1239q0 61 43 104t106 43q59 0 103.5 -43t44.5 -104q0 -59 -44 -103t-106 -44q-59 0 -103 43t-44 104zM786 1239q0 61 43 104t107 43q59 0 103 -43t44 -104q0 -59 -44 -103 t-105 -44q-59 0 -103.5 43t-44.5 104z" />
<glyph unicode="&#x152;" horiz-adv-x="2545" d="M178 694q0 319 219 529.5t615 210.5q80 0 227 -17q123 -12 176 -12h924l67 -498h-114q-14 106 -36 172t-67 119t-120.5 76.5t-190.5 23.5h-319v-516h196q141 0 200.5 47.5t59.5 188.5h115v-578h-115q0 141 -59.5 188.5t-200.5 47.5h-196v-570h323q109 0 187.5 23 t128 57.5t82 97t49 123t32.5 156.5h115l-100 -563h-961q-57 0 -215 -16q-102 -12 -188 -13q-393 0 -613.5 205t-220.5 518zM494 727q0 -307 143 -488.5t387 -181.5q102 0 155.5 22.5t83 98.5t29.5 228v593q0 115 -14 184.5t-50 105.5t-81 47.5t-123 11.5q-242 0 -386 -166 t-144 -455z" />
<glyph unicode="&#x153;" horiz-adv-x="1949" d="M70 461q0 197 142 334t409 137q260 0 421 -150q154 150 406 150q211 0 326 -119q106 -113 106 -317q0 -43 -14.5 -52.5t-55.5 -9.5h-641q16 -352 330 -352q80 0 155 37t109 121q10 25 21.5 32t38.5 7q57 0 57 -43q0 -14 -11 -41t-40 -64t-72 -68.5t-116.5 -54 t-161.5 -22.5q-276 0 -432 155q-158 -156 -429 -155q-260 0 -404 136t-144 339zM319 469q0 -51 2.5 -86t17.5 -99.5t45 -105.5t90.5 -73.5t146.5 -32.5q72 0 126 20.5t84.5 59t50 75.5t26.5 91.5t9.5 82t2.5 68.5q0 51 -2.5 84t-17.5 94.5t-45 99t-90 68.5t-147 31 q-61 0 -110 -16.5t-80 -39t-52.5 -59.5t-32.5 -66.5t-16 -73.5t-6.5 -65.5t-1.5 -56.5zM1169 514h512q-8 332 -233 332q-92 0 -153.5 -40t-86 -105.5t-31 -104.5t-8.5 -82z" />
<glyph unicode="&#x178;" horiz-adv-x="1888" d="M49 1298v107q104 -6 352 -6q303 0 377 6v-107h-164l426 -575l412 557q-55 18 -147 18v107l278 -6q162 0 254 6v-107h-49q-53 0 -109 -6q-37 -4 -48 -8t-25 -24l-516 -697v-457h219v-106q-80 6 -365 6q-289 0 -369 -6v106h222v455l-545 737h-203zM475 1644.5 q0 61.5 43 104.5t107 43q59 0 103 -43t44 -104q0 -59 -44 -103.5t-105 -44.5q-59 0 -103.5 43t-44.5 104.5zM1118 1644.5q0 61.5 43 104.5t107 43q59 0 103 -43t44 -104q0 -59 -44 -103.5t-105 -44.5q-59 0 -103.5 43t-44.5 104.5z" />
<glyph unicode="&#x2c6;" d="M264 1071l363 379l362 -379l-41 -45l-323 203l-324 -203z" />
<glyph unicode="&#x2dc;" d="M209 1176q55 53 78.5 78.5t34.5 35.5q78 74 165 74q55 0 144 -33q125 -49 180 -49q57 0 103.5 26.5t68.5 55.5l61 -61q-55 -53 -78.5 -79t-33.5 -36q-78 -74 -166 -74q-55 0 -143 33q-125 49 -181 49q-57 0 -103 -26.5t-69 -55.5z" />
<glyph unicode="&#x2000;" horiz-adv-x="936" />
<glyph unicode="&#x2001;" horiz-adv-x="1872" />
<glyph unicode="&#x2002;" horiz-adv-x="936" />
<glyph unicode="&#x2003;" horiz-adv-x="1872" />
<glyph unicode="&#x2004;" horiz-adv-x="624" />
<glyph unicode="&#x2005;" horiz-adv-x="468" />
<glyph unicode="&#x2006;" horiz-adv-x="312" />
<glyph unicode="&#x2007;" horiz-adv-x="312" />
<glyph unicode="&#x2008;" horiz-adv-x="234" />
<glyph unicode="&#x2009;" horiz-adv-x="374" />
<glyph unicode="&#x200a;" horiz-adv-x="104" />
<glyph unicode="&#x2010;" horiz-adv-x="835" d="M29 348v215h665v-215h-665z" />
<glyph unicode="&#x2011;" horiz-adv-x="835" d="M29 348v215h665v-215h-665z" />
<glyph unicode="&#x2012;" horiz-adv-x="835" d="M29 348v215h665v-215h-665z" />
<glyph unicode="&#x2013;" d="M0 518v86h1253v-86h-1253z" />
<glyph unicode="&#x2014;" horiz-adv-x="2508" d="M0 518v86h2507v-86h-2507z" />
<glyph unicode="&#x2018;" horiz-adv-x="696" d="M150 956q0 82 23.5 160t58 131t72.5 94t67.5 60.5t42.5 19.5q16 0 30.5 -14t14.5 -31q0 -20 -29 -39q-178 -137 -192 -352q43 39 110 39q76 0 120 -48t44 -115.5t-44 -116t-120 -48.5q-86 0 -142 75t-56 185z" />
<glyph unicode="&#x2019;" horiz-adv-x="696" d="M184 1257.5q0 67.5 44 115.5t120 48q86 0 142.5 -74.5t56.5 -185.5q0 -82 -23.5 -159.5t-58.5 -131t-73 -94.5t-67.5 -60.5t-41.5 -19.5q-16 0 -30.5 14.5t-14.5 30.5q0 20 28 39q178 137 193 353q-43 -39 -111 -39q-76 0 -120 48t-44 115.5z" />
<glyph unicode="&#x201a;" horiz-adv-x="696" d="M168 163.5q0 67.5 44 116t120 48.5q86 0 142 -74.5t56 -185.5q0 -82 -23.5 -160t-58 -131t-72.5 -94t-67.5 -60.5t-42.5 -19.5q-16 0 -30.5 14t-14.5 31q0 20 29 39q178 137 192 352q-43 -39 -110 -39q-76 0 -120 48t-44 115.5z" />
<glyph unicode="&#x201c;" horiz-adv-x="1232" d="M150 956q0 82 23.5 160t58 131t72.5 94t67.5 60.5t42.5 19.5q16 0 30.5 -14t14.5 -31q0 -20 -29 -39q-178 -137 -192 -352q43 39 110 39q76 0 120 -48t44 -115.5t-44 -116t-120 -48.5q-86 0 -142 75t-56 185zM686 956q0 82 23.5 160t58.5 131t73 94t67.5 60.5t41.5 19.5 q16 0 30.5 -14t14.5 -31q0 -20 -28 -39q-178 -137 -193 -352q43 39 111 39q76 0 120 -48t44 -115.5t-44 -116t-120 -48.5q-86 0 -142.5 75t-56.5 185z" />
<glyph unicode="&#x201d;" horiz-adv-x="1232" d="M184 1257.5q0 67.5 44 115.5t120 48q86 0 142.5 -74.5t56.5 -185.5q0 -82 -23.5 -159.5t-58.5 -131t-73 -94.5t-67.5 -60.5t-41.5 -19.5q-16 0 -30.5 14.5t-14.5 30.5q0 20 28 39q178 137 193 353q-43 -39 -111 -39q-76 0 -120 48t-44 115.5zM721 1257.5q0 67.5 44 115.5 t120 48q86 0 142 -74.5t56 -185.5q0 -82 -23.5 -159.5t-58 -131t-72.5 -94.5t-68 -60.5t-42 -19.5q-16 0 -30.5 14.5t-14.5 30.5q0 20 29 39q178 137 192 353q-43 -39 -110 -39q-76 0 -120 48t-44 115.5z" />
<glyph unicode="&#x201e;" horiz-adv-x="1232" d="M184 163.5q0 67.5 44 116t120 48.5q86 0 142.5 -74.5t56.5 -185.5q0 -82 -23.5 -160t-58.5 -131t-73 -94t-67.5 -60.5t-41.5 -19.5q-16 0 -30.5 14t-14.5 31q0 20 28 39q178 137 193 352q-43 -39 -111 -39q-76 0 -120 48t-44 115.5zM721 163.5q0 67.5 44 116t120 48.5 q86 0 142 -74.5t56 -185.5q0 -82 -23.5 -160t-58 -131t-72.5 -94t-68 -60.5t-42 -19.5q-16 0 -30.5 14t-14.5 31q0 20 29 39q178 137 192 352q-43 -39 -110 -39q-76 0 -120 48t-44 115.5z" />
<glyph unicode="&#x2022;" horiz-adv-x="1949" d="M662 457q0 129 92 221t221 92t221 -92t92 -221t-92 -221.5t-221 -92.5t-221 92.5t-92 221.5z" />
<glyph unicode="&#x2026;" horiz-adv-x="1802" d="M184 163.5q0 67.5 48.5 116t116 48.5t115.5 -48.5t48 -116t-48 -115.5t-115.5 -48t-116 48t-48.5 115.5zM737 163.5q0 67.5 48.5 116t116 48.5t115.5 -48.5t48 -116t-48 -115.5t-115.5 -48t-116 48t-48.5 115.5zM1290 163.5q0 67.5 48 116t116 48.5t116 -48.5t48 -116 t-48 -115.5t-116 -48t-116 48t-48 115.5z" />
<glyph unicode="&#x202f;" horiz-adv-x="374" />
<glyph unicode="&#x2039;" horiz-adv-x="968" d="M272 477q0 18 13 27q215 172 321 428q10 20 33 20h16q16 0 27.5 -12t7.5 -29q-49 -227 -162 -434q113 -211 162 -434q4 -16 -7 -29.5t-28 -13.5h-16q-23 0 -33 20q-106 256 -321 429q-12 12 -13 28z" />
<glyph unicode="&#x203a;" horiz-adv-x="968" d="M281 43q49 231 161 434q-111 197 -161 434q-4 16 7 28.5t27 12.5h17q25 0 30 -20q106 -256 322 -428q14 -11 14 -27q0 -14 -14 -28q-215 -172 -322 -429q-6 -20 -30 -20h-17q-16 0 -27.5 13.5t-6.5 29.5z" />
<glyph unicode="&#x205f;" horiz-adv-x="468" />
<glyph unicode="&#x20ac;" horiz-adv-x="1568" d="M135 563l12 37q6 25 33 25h103q-4 53 -4 77.5t4 77.5h-115q-18 0 -28.5 14.5t-4.5 30.5l12 37q6 25 33 25h117q43 211 178 346q195 201 522 201q147 0 263 -66l98 62q12 4 18 4h21q14 0 24.5 -10.5t10.5 -24.5v-275q0 -14 -10.5 -24t-24.5 -10h-66q-31 0 -35 30 q-12 90 -85.5 148.5t-168.5 58.5q-223 0 -340 -162q-76 -109 -90 -278h627q16 0 27.5 -14.5t5.5 -30.5l-12 -37q-6 -25 -33 -25h-621v-78v-77h545q18 0 28.5 -14.5t4.5 -30.5l-13 -37q-6 -25 -32 -25h-527q14 -170 90 -278q117 -162 340 -162q94 0 168 59.5t86 149.5 q4 29 35 28h66q14 0 24.5 -10t10.5 -24v-275q0 -14 -10.5 -24.5t-24.5 -10.5h-21q-8 0 -18 6l-98 60q-115 -66 -263 -66q-328 0 -522 201q-135 135 -178 346h-129q-18 0 -28.5 14.5t-4.5 30.5z" />
<glyph unicode="&#x2122;" horiz-adv-x="2469" d="M53 1106l29 299h881l28 -299h-67q-10 127 -48 181t-161 54h-101v-698h187v-65q-47 4 -278.5 4t-278.5 -4v65h188v698h-102q-121 0 -159 -54t-48 -181h-70zM1053 578v65h34q47 0 64 2q25 4 30 7t5 24v682h-133v63h280q45 0 62 -37l309 -647l309 649q12 23 23.5 29t36.5 6 h280v-63h-133v-715h133v-65q-51 4 -213 4t-213 -4v65h133v713l-354 -742q-20 -37 -49 -36q-27 0 -49 36l-344 725h-2v-663q0 -18 5 -23.5t27 -7.5q29 -2 66 -2h35v-65l-170 4z" />
<glyph unicode="&#xe000;" horiz-adv-x="911" d="M0 0v911h911v-911h-911z" />
<glyph unicode="&#xfb01;" horiz-adv-x="1392" d="M68 803v106h161v197q0 92 54.5 159.5t144.5 102.5t186.5 51.5t198.5 16.5q164 0 253 -74t89 -174q0 -61 -39 -101t-102 -40q-61 0 -101.5 38.5t-40.5 102.5q0 92 78 129q-63 33 -149 33q-143 0 -244.5 -58.5t-101.5 -187.5v-195h336v9l372 12v-824h135v-106 q-119 6 -254 6t-253 -6v106h135v625q0 51 -11.5 61.5t-52.5 10.5h-395v-697h135v-106q-119 6 -254 6t-254 -6v106h135v697h-161z" />
<glyph unicode="&#xfb02;" horiz-adv-x="1392" d="M68 803v106h161v197q0 117 90.5 194.5t215 106.5t276.5 29q100 0 164 -17q29 -8 41 -8q47 0 102 6q16 4 45 4v-1315h135v-106q-119 6 -254 6t-253 -6v106h135v697h-459v-697h135v-106q-119 6 -254 6t-254 -6v106h135v697h-161zM455 909h471v230q-53 37 -54 108 q0 45 25 82l6 10q0 10 -102 11q-57 0 -109.5 -9.5t-110 -33t-92 -75.5t-34.5 -128v-195z" />
<glyph unicode="&#xfb03;" horiz-adv-x="2088" d="M68 803v106h161v197q0 92 53.5 159.5t142.5 102.5t183 51.5t197 16.5q176 0 270 -93q170 92 434 93q164 0 253 -74t89 -174q0 -61 -38.5 -101t-102.5 -40q-61 0 -101 38.5t-40 102.5q0 92 78 129q-63 33 -150 33q-143 0 -244.5 -58.5t-101.5 -187.5v-195h336v9l373 12 v-824h135v-106q-119 6 -254 6t-254 -6v106h135v625q0 51 -11.5 61.5t-51.5 10.5h-396v-697h135v-106q-119 6 -254 6t-253 -6v106h135v697h-459v-697h135v-106q-119 6 -254 6t-254 -6v106h135v697h-161zM455 909h471v158q-68 39 -68 121q0 90 82 131q-66 31 -145 31 q-150 0 -245 -60.5t-95 -185.5v-195z" />
<glyph unicode="&#xfb04;" horiz-adv-x="2088" d="M68 803v106h161v197q0 90 52.5 157.5t140.5 103.5t184 52.5t201 16.5q193 0 280 -84q160 84 420 84q100 0 164 -17q29 -8 41 -8q47 0 103 6q16 4 45 4v-1315h135v-106q-119 6 -254 6t-254 -6v106h135v697h-459v-697h135v-106q-119 6 -254 6t-253 -6v106h135v697h-459 v-697h135v-106q-119 6 -254 6t-254 -6v106h135v697h-161zM455 909h471v205q-53 37 -53.5 106.5t53.5 110.5q-55 18 -129 19q-147 0 -244 -60q-98 -61 -98 -186v-195zM1151 909h471v230q-53 37 -53 108q0 45 24 82l6 10q0 10 -102 11q-57 0 -109.5 -9.5t-109.5 -33t-92 -75.5 t-35 -128v-195z" />
</font>
</defs>
</svg>
