<?xml version="1.0" standalone="no"?>
<!DOCTYPE svg PUBLIC "-//W3C//DTD SVG 1.1//EN" "http://www.w3.org/Graphics/SVG/1.1/DTD/svg11.dtd" >
<svg xmlns="http://www.w3.org/2000/svg">
<metadata></metadata>
<defs>
<font id="lmroman8italic" horiz-adv-x="1122" >
<font-face units-per-em="2048" ascent="1638" descent="-410" />
<missing-glyph horiz-adv-x="786" />
<glyph horiz-adv-x="2048" />
<glyph horiz-adv-x="2048" />
<glyph unicode="&#xd;" horiz-adv-x="681" />
<glyph unicode=" "  horiz-adv-x="786" />
<glyph unicode="&#x09;" horiz-adv-x="786" />
<glyph unicode="&#xa0;" horiz-adv-x="786" />
<glyph unicode="!" horiz-adv-x="673" d="M248 94q0 53 43 93t94 40q39 0 66.5 -25.5t27.5 -68.5q0 -51 -42 -92t-95 -41q-35 0 -64.5 22.5t-29.5 71.5zM399 418l4 26l154 899q12 68 56 94.5t81 26.5q41 0 69 -24.5t28 -65.5q-1 -22 -11 -49l-297 -899q-8 -25 -16 -30t-29 -5q-39 0 -39 27z" />
<glyph unicode="&#x22;" horiz-adv-x="894" d="M514 866l94 504q4 31 32 51.5t58.5 20.5t46 -20.5t7.5 -51.5l-160 -504h-78zM735 866l94 504q4 31 32 51.5t58.5 20.5t46 -20.5t7.5 -51.5l-160 -504h-78z" />
<glyph unicode="#" horiz-adv-x="1796" d="M242 295q0 47 71 47h344l174 340h-411q-70 0 -70 47t80 47h451l311 604q20 41 49 41q20 0 33.5 -14t13.5 -33q0 -8 -16 -41l-285 -557h350l312 604q20 41 49 41q20 0 33.5 -14t13.5 -33q0 -8 -16 -41l-285 -557h282q82 0 82 -47t-71 -47h-344l-174 -340h411q70 0 70 -47 t-80 -47h-451l-311 -604q-20 -41 -49 -41q-20 0 -33.5 14t-13.5 33q0 8 16 41l285 557h-350l-312 -604q-20 -41 -49 -41q-20 0 -33.5 14t-13.5 33q0 8 17 41l284 557h-282q-82 0 -82 47zM762 342h352l174 340h-352z" />
<glyph unicode="$" horiz-adv-x="1087" d="M201 301q18 172 129 172q31 0 56.5 -20.5t23.5 -63.5q-4 -45 -38 -76.5t-81 -31.5q-20 0 -27 2q-2 -119 74 -174.5t184 -61.5l150 604q-92 23 -136 43.5t-87 67.5q-86 94 -76 229q12 154 142 286t329 161q18 4 23 9t12 28l14 61h68l-23 -96q145 -6 231 -83t74 -218 q-10 -162 -125 -162q-29 0 -56.5 18.5t-23.5 65.5q4 45 39 76.5t80 31.5q18 0 23 -2q0 102 -80 156q-80 45 -178 51l-138 -547q154 -37 217 -110q84 -100 74 -250q-16 -184 -164.5 -328.5t-339.5 -156.5l-22 -97h-68l23 97q-160 8 -238 97t-65 222zM502 1069 q-4 -59 16.5 -102t62.5 -69t69.5 -36t68.5 -20l135 530q-143 -16 -242.5 -106t-109.5 -197zM590 49q141 16 244.5 119.5t113.5 220.5q16 193 -211 246z" />
<glyph unicode="%" horiz-adv-x="1796" d="M319 -68q0 18 25 45l1206 1328v2q-121 -49 -241 -50q-158 0 -285 84q6 -57 6 -73q0 -195 -121 -376t-264 -181q-88 0 -150.5 73.5t-62.5 206.5q0 205 129 375t277 170q76 0 141 -76q123 -145 332 -145q248 0 422 190q31 31 51 31t33.5 -14.5t13.5 -32.5q0 -16 -25 -43 l-1392 -1532q-25 -29 -47 -29q-16 0 -32 13.5t-16 33.5zM549 932q0 -63 23.5 -113.5t76.5 -50.5q100 0 201.5 165t101.5 343q0 90 -30.5 146.5t-83.5 56.5q-86 0 -156 -111t-101.5 -233.5t-31.5 -202.5zM1122 166q0 203 129 374t279 171q92 0 141 -79t49 -190 q0 -197 -120.5 -377t-264.5 -180q-90 0 -151.5 76t-61.5 205zM1239 104q0 -14 2 -31.5t10.5 -51t31 -56t56.5 -22.5q102 0 204 166t102 344q0 43 -8.5 84t-37 78.5t-71.5 37.5q-84 0 -154.5 -110.5t-102.5 -233.5t-32 -205z" />
<glyph unicode="&#x26;" horiz-adv-x="1683" d="M270 369q0 90 53.5 210.5t145.5 213.5q-27 66 -27 139q0 193 143.5 362.5t315.5 169.5q104 0 171 -67.5t67 -171.5q0 -158 -109 -158q-72 0 -72 70q0 33 25 64.5t78 35.5q-2 84 -49 127t-111 43q-88 0 -162.5 -82t-116.5 -201.5t-49 -246.5q106 70 213 69q72 0 108 -40 t36 -91q0 -70 -61.5 -131t-149.5 -61q-104 0 -182 69q-45 -88 -74 -189.5t-29 -166.5q0 -160 118 -241t292 -81q162 0 287.5 49.5t196.5 120t117 159.5t60.5 155.5t14.5 117.5q0 145 -115 291q-84 -49 -118 -70.5t-77 -56.5t-56 -65.5t-13 -69.5q0 -27 12 -49q27 68 94 68 q31 0 51.5 -20.5t20.5 -49.5q0 -31 -26.5 -64.5t-78.5 -33.5q-63 0 -107 43t-44 108q0 51 21.5 96t67.5 84t82 62.5t99 60.5q51 31 75 47.5t71 55.5t82.5 89t64.5 111q-61 10 -61 68q0 39 29.5 69.5t70.5 30.5q72 0 72 -67q0 -27 -19.5 -84.5t-84 -151.5t-158.5 -164 q124 -171 124 -331q0 -45 -9 -97.5t-34.5 -118t-62.5 -127t-97.5 -121t-137 -104.5t-184 -71.5t-234.5 -26.5q-264 0 -417 121t-153 291zM592 772q14 -35 47 -63.5t82 -28.5q59 0 95 46t36 99q0 63 -66 64q-94 0 -194 -117z" />
<glyph unicode="'" horiz-adv-x="673" d="M514 866l94 504q4 31 32 51.5t58.5 20.5t46 -20.5t7.5 -51.5l-160 -504h-78z" />
<glyph unicode="(" horiz-adv-x="897" d="M326 123q0 178 56 411.5t189 466.5q90 158 212 291t199 188.5t93 55.5q29 0 29 -25q0 -10 -4 -12q-2 -4 -37 -33q-168 -135 -296 -331.5t-195.5 -397t-99.5 -374t-32 -308.5q0 -309 148 -514q16 -20 16 -28q0 -25 -29 -25q-27 0 -87 82t-99 180q-63 166 -63 373z" />
<glyph unicode=")" horiz-adv-x="897" d="M47 -487q0 8 4 12l37 33q168 135 297 332.5t195.5 398t98.5 373t32 307.5q0 313 -154 518q-10 16 -10 24q0 25 28 25q27 0 87.5 -82t99.5 -180q63 -166 63 -373q0 -178 -56 -411.5t-189 -466.5q-90 -158 -212 -291t-199 -188.5t-93 -55.5q-29 0 -29 25z" />
<glyph unicode="*" d="M412 891q0 39 55 65l311 140l-239 133q-33 16 -33 42.5t23.5 49t48.5 22.5q20 0 43 -20l196 -176l53 315q12 74 72 74q47 0 47 -41q0 -8 -10 -35l-105 -315l302 186q18 12 36 12q43 0 43 -45q0 -43 -55 -67l-311 -137l237 -131q35 -18 35 -45q0 -29 -23.5 -50.5 t-47.5 -21.5q-20 0 -43 20l-197 176l-53 -315q-12 -74 -72 -74q-25 0 -36 14.5t-11 26.5l8 33l107 315l-301 -184q-16 -12 -35 -12q-45 0 -45 45z" />
<glyph unicode="+" horiz-adv-x="1683" d="M297 512q0 47 72 47h565l141 571q16 55 51 56q20 0 34 -13.5t14 -33.5q0 -10 -9 -39l-135 -541h539q71 0 71 -47t-71 -47h-563l-142 -571q-16 -55 -51 -56q-20 0 -33.5 13.5t-13.5 33.5q0 10 8 39l135 541h-540q-72 0 -72 47z" />
<glyph unicode="," horiz-adv-x="673" d="M160 -366.5q0 12.5 18 24.5q190 162 240 365q-31 -23 -76 -23q-49 0 -72.5 26.5t-23.5 63.5q0 49 39 93t100 44q100 0 100 -129q0 -115 -67.5 -236.5t-137 -190t-92.5 -68.5q-12 0 -20 9t-8 21.5z" />
<glyph unicode="-" horiz-adv-x="786" d="M180 410q0 16 17 65q4 20 14 24.5t43 4.5h422q57 0 57 -29q0 -10 -16 -67q-6 -20 -15.5 -24.5t-42.5 -4.5h-423q-16 0 -23.5 1t-17 3t-12.5 9t-3 18z" />
<glyph unicode="." horiz-adv-x="673" d="M248 92q0 55 43 95t94 40q39 0 66.5 -24.5t27.5 -67.5q0 -55 -43 -95t-94 -40q-39 0 -66.5 24.5t-27.5 67.5z" />
<glyph unicode="/" d="M51 -465q0 14 17 41l1161 1923q20 37 49 37q20 0 33.5 -14.5t13.5 -32.5q0 -14 -16 -41l-1162 -1923q-20 -37 -49 -37q-20 0 -33.5 14.5t-13.5 32.5z" />
<glyph unicode="0" d="M250 315q0 135 57.5 360.5t134.5 362.5q182 324 457 324q72 0 126 -21.5t85 -59.5t50.5 -75t26.5 -85t9 -70.5t2 -51.5q0 -135 -55.5 -355t-133 -363.5t-196.5 -233.5t-262 -90q-82 0 -142.5 30.5t-90 70.5t-46 96.5t-19.5 90.5t-3 70zM391 217q0 -96 49 -149.5 t125 -53.5q162 0 271 199q55 102 141 438t86 455q0 98 -52.5 148.5t-123.5 50.5q-221 0 -334 -347q-33 -100 -97.5 -362t-64.5 -379z" />
<glyph unicode="1" d="M262 20v9q0 27 14.5 33t47.5 6h20q125 0 158 18t47 80l237 950q-131 -86 -239 -86q-37 0 -37 29q0 16 7 25.5t13.5 10.5t16.5 3q211 20 371 233q20 31 36 31q33 0 33 -29q0 -8 -6 -26l-289 -1153q-8 -29 -8 -45q0 -20 10.5 -26.5t48.5 -10.5l95 -4h20q20 0 30.5 -1 t18.5 -7.5t8 -20.5q0 -39 -43 -39q-6 0 -147 6h-291l-137 -6q-14 0 -23.5 7t-11.5 13z" />
<glyph unicode="2" d="M180 -16q0 18 20.5 70t62.5 128t129 161t198 144q102 53 173 103.5t137.5 120t100 161t33.5 201.5q0 121 -59.5 176.5t-140.5 55.5q-115 0 -215.5 -96.5t-150.5 -208t-50 -187.5q0 -68 45 -68q82 0 143.5 99.5t61.5 163.5q0 45 -17 61q-10 20 -10 29q0 10 10.5 19t20.5 9 q18 0 35.5 -39.5t17.5 -76.5q0 -86 -77 -204t-187 -118q-61 0 -90 42t-29 97q0 57 36 145.5t96.5 176.5t158.5 150.5t207 62.5q147 0 248.5 -96.5t101.5 -257.5q0 -164 -108.5 -286t-399.5 -273q-229 -113 -338 -283l39 2q63 0 209 -31q156 -29 205 -28q84 0 153.5 59 t102.5 164q6 18 13 23t28 5q39 1 39 -24q0 -20 -23 -76.5t-62.5 -127.5t-112.5 -123t-157 -52q-86 0 -205 74q-131 80 -198 80q-74 0 -115 -123q-6 -20 -13 -25.5t-28 -5.5q-39 0 -39 27z" />
<glyph unicode="3" d="M203 223q0 57 23.5 106.5t84.5 49.5q37 0 55.5 -20.5t18.5 -47.5q0 -16 -5 -33.5t-30.5 -41t-66.5 -27.5q6 -98 70.5 -146.5t148.5 -48.5q96 0 174 45t122 116t67.5 148.5t23.5 151.5q0 100 -51.5 138t-118.5 38h-68q-23 0 -32 1t-17 7.5t-8 18.5q0 29 12 35t43 6h58 q98 0 171.5 39t110.5 90t58.5 115.5t26.5 99.5t5 57q0 92 -54 138.5t-136 46.5q-150 0 -271.5 -106.5t-121.5 -223.5q0 -74 53 -74q41 0 81 34t40 81q0 25 -19 57l-10 25q0 10 10.5 19t20.5 9q18 0 36.5 -35.5t18.5 -74.5q0 -70 -56.5 -121t-125.5 -51q-59 0 -93 41t-34 96 q0 135 142 258t333 123q147 0 234 -83t87 -200q0 -119 -92 -234.5t-239 -166.5q162 -80 161 -266q0 -188 -168.5 -321.5t-373.5 -133.5q-137 0 -218 78t-81 188z" />
<glyph unicode="4" d="M94 37q0 31 86 78q63 43 182 168q332 356 502 1001q23 68 70 76q8 2 16 2q20 0 40 -13.5t20 -43.5q0 -20 -23.5 -108.5t-101.5 -268.5t-189 -350q-143 -223 -381 -439h72q61 0 108.5 -12t178.5 -57l65 266q18 72 27.5 97.5t28 44t51.5 18.5q23 0 42 -14.5t19 -45.5 q-2 -14 -6 -28l-92 -371q10 -2 35 -2q63 0 137 24l29 9q14 0 23 -14.5t9 -22.5q0 -25 -75.5 -44.5t-128.5 -19.5q-33 0 -47 2l-56 -229q-12 -45 -17 -62.5t-16.5 -39t-27 -28.5t-39.5 -7q-27 0 -44.5 16t-17.5 41q0 10 84 342l-131 45q-76 25 -161 25q-131 0 -172 -31 q-51 -41 -66 -41q-12 0 -22.5 12.5t-10.5 24.5z" />
<glyph unicode="5" d="M227 248q0 176 117 176q33 0 54.5 -18.5t21.5 -53.5t-25.5 -69.5t-89.5 -36.5q2 -102 61.5 -165t155.5 -63q74 0 157 48.5t146 154.5q45 74 76 198t31 191q0 72 -33 131.5t-113 59.5q-158 0 -282 -125q-35 -35 -51 -35q-33 0 -33 29q0 6 6 30l156 623q12 39 28 39 q10 0 25 -10q117 -55 252 -56q133 0 280 56q20 10 27 10q25 0 25 -27q0 -23 -52 -59q-174 -137 -372 -137q-92 0 -172 26l-99 -395q125 88 267 88q139 0 215.5 -95.5t76.5 -232.5q0 -225 -175 -399t-386 -174q-137 0 -216 85t-79 206z" />
<glyph unicode="6" d="M256 342q0 33 6 89t25.5 165t72 233.5t129.5 225.5q119 152 255.5 229.5t263.5 77.5q94 0 154.5 -41t60.5 -125q0 -68 -30 -101.5t-77 -33.5q-72 0 -72 67q0 14 4.5 32t28 41.5t64.5 27.5q-20 80 -135 80q-25 0 -52.5 -4.5t-96.5 -37t-128 -91t-126.5 -183.5t-110.5 -295 q133 174 301 174q72 0 128 -25.5t89.5 -63.5t55 -85t30 -84.5t8.5 -70.5q0 -223 -168 -404.5t-377 -181.5q-115 0 -186.5 63.5t-94 144.5t-22.5 177zM401 223q0 -106 46.5 -155.5t115.5 -49.5q72 0 137.5 43t93 80t44.5 70q39 72 73.5 214.5t34.5 201.5q0 20 -3 40.5 t-16.5 59.5t-50 63.5t-94.5 24.5q-82 0 -153.5 -53t-118.5 -129q-109 -178 -109 -410z" />
<glyph unicode="7" d="M293 883q0 8 12 32l203 414q8 16 12 21.5t11.5 8.5t21.5 3q39 0 39 -25q0 -10 -43 -96q141 121 282 121q59 0 81 -33t34 -104q10 -55 21.5 -75t40.5 -20q49 0 102 38t85 75t75 94q12 16 18 20.5t27 4.5q39 0 39 -25q0 -10 -33 -55q-358 -508 -543 -1221q-6 -27 -13 -43 t-32.5 -38.5t-64.5 -22.5q-33 0 -54.5 19.5t-21.5 52.5q0 14 16.5 77.5t68.5 201.5t124 284q94 186 297 500q-43 -18 -90 -19q-43 0 -70 21.5t-55 66.5q-35 49 -78 49q-106 0 -223 -81.5t-195 -221.5l-27 -43q-6 -6 -28 -6q-39 0 -39 25z" />
<glyph unicode="8" d="M209 242q0 274 399 454q-92 72 -128 121t-36 137q0 162 139.5 285t311.5 123q131 0 216 -68.5t85 -177.5q0 -37 -12.5 -77t-43 -93t-102 -109.5t-176.5 -103.5q139 -117 146 -123q67 -77 67 -192q0 -180 -160.5 -320.5t-359.5 -140.5q-141 0 -243.5 76t-102.5 209z M324 238q0 -94 64.5 -157t170.5 -63q145 0 264 99.5t119 224.5q0 68 -29.5 104.5t-140.5 122.5q-104 82 -110 82q-14 0 -66.5 -31.5t-114 -83t-109.5 -133t-48 -165.5zM565 1040q0 -35 15.5 -66.5t28 -45t18.5 -15.5l182 -139q119 53 202 148.5t83 199.5q0 82 -55.5 134.5 t-147.5 52.5q-123 0 -224.5 -82t-101.5 -187z" />
<glyph unicode="9" d="M227 125q0 63 30 98t77 35q72 0 72 -68q0 -14 -4.5 -31.5t-28 -40t-62.5 -28.5q33 -72 160 -72q39 0 83 13.5t102.5 54.5t110.5 104.5t104.5 176t86.5 256.5q-133 -174 -301 -174q-84 0 -147.5 33.5t-96 87t-49 106.5t-16.5 102q0 233 172 408.5t381 175.5 q137 0 216 -96.5t79 -280.5q0 -61 -12.5 -155.5t-66.5 -261.5t-142 -289q-113 -154 -244 -238t-264 -84q-100 0 -170 40t-70 128zM506 696q0 -84 39 -137t125 -53q88 0 163.5 60.5t122.5 146.5q41 78 66 177t27 159l4 61q0 86 -39 142.5t-113 56.5q-158 0 -270 -166 q-51 -82 -88 -230.5t-37 -216.5z" />
<glyph unicode=":" horiz-adv-x="673" d="M248 92q0 55 43 95t94 40q39 0 66.5 -24.5t27.5 -67.5q0 -55 -43 -95t-94 -40q-39 0 -66.5 24.5t-27.5 67.5zM412 748q0 55 43 95t94 40q39 0 66.5 -24.5t27.5 -67.5q0 -55 -43 -95.5t-94 -40.5q-39 0 -66.5 25t-27.5 68z" />
<glyph unicode=";" horiz-adv-x="673" d="M160 -367q0 8 33 39q156 143 206 340q-25 -12 -57 -12q-49 0 -72.5 26.5t-23.5 63.5q0 49 39 93t100 44q88 0 88 -112.5t-64.5 -239.5t-131 -199.5t-89.5 -72.5q-12 0 -20 9t-8 21zM412 748q0 55 43 95t94 40q39 0 66.5 -24.5t27.5 -67.5q0 -55 -43 -95.5t-94 -40.5 q-39 0 -66.5 25t-27.5 68z" />
<glyph unicode="&#x3c;" horiz-adv-x="1691" d="M309 512q6 31 56 51l1345 578q31 14 41 14q20 0 30.5 -13.5t4.5 -33.5q-6 -31 -55 -51l-1266 -545l993 -545q37 -20 31 -51q-4 -20 -21.5 -33.5t-37.5 -13.5q-10 0 -33 14l-1059 578q-37 23 -29 51z" />
<glyph unicode="=" horiz-adv-x="1683" d="M242 295q0 47 71 47h1205q69 0 69 -47t-80 -47h-1183q-82 0 -82 47zM350 729q0 47 80 47h1184q82 0 82 -47t-72 -47h-1204q-70 0 -70 47z" />
<glyph unicode="&#x3e;" horiz-adv-x="1691" d="M160 -84q6 29 55 51l1268 545l-996 545q-37 23 -30 51q14 47 59 47q10 0 33 -14l1059 -578q36 -22 30 -51q-10 -31 -57 -51l-1345 -578q-31 -14 -41 -14q-20 0 -29.5 13.5t-5.5 33.5z" />
<glyph unicode="?" d="M408 952q0 33 21.5 91.5t65.5 131t102 137t143 108.5t178 44q117 0 193.5 -70.5t76.5 -191.5q0 -68 -22.5 -127t-63.5 -106t-67.5 -69.5t-67.5 -53.5l-254 -189q-33 -25 -48.5 -38t-32 -42.5t-16.5 -64.5q0 -63 56 -63q41 0 90 34.5t74 104.5q8 25 41 24q37 0 36 -24 q0 -51 -71.5 -124t-173.5 -73q-70 0 -103 45t-33 103q0 63 29 114.5t59.5 78t96.5 73.5l225 168q162 119 162 256q0 88 -55.5 133t-130.5 45q-125 0 -234 -102.5t-168 -251.5q66 -8 66 -70q0 -41 -31 -70.5t-70 -29.5q-33 0 -53 19.5t-20 49.5zM473 94q0 53 43 93t94 40 q39 0 67 -25.5t28 -68.5q0 -51 -42 -92t-96 -41q-35 0 -64.5 22.5t-29.5 71.5z" />
<glyph unicode="@" horiz-adv-x="1683" d="M322 524.5q0 227.5 125.5 441.5t328.5 345t418 131q223 0 371.5 -147.5t148.5 -399.5q0 -57 -17.5 -152.5t-54 -209t-109.5 -193.5t-165 -80q-66 0 -112 35t-52 96q-137 -131 -293 -131q-139 0 -225 95.5t-86 238.5q0 215 164 391t358 176q92 0 159 -48t95 -124h49 q23 0 32 -1t17.5 -7t8.5 -18l-4 -27l-133 -526l-5 -41q0 -51 37 -52q66 0 120 79t83 185.5t43 193.5t14 126q0 209 -121.5 346t-324.5 137q-190 0 -374.5 -122.5t-301.5 -324.5t-117 -417q0 -207 119 -345t336 -138q285 0 569 121q31 14 70 14q23 0 32 -1t17 -6.5t8 -17.5 q0 -14 -16 -22q-102 -47 -289.5 -96t-390.5 -49q-256 0 -394 158.5t-138 386zM737 567q0 -100 45 -175t133 -75q98 0 203 86q104 84 123 162l78 305l4 27q0 18 -10 49t-30.5 68t-62.5 63.5t-96 26.5q-139 0 -263 -173t-124 -364z" />
<glyph unicode="A" horiz-adv-x="1630" d="M131 29q0 16 7 24t14.5 10.5t23.5 4.5q137 12 234 174l702 1177q27 43 68 43q27 0 35 -10t12 -45l123 -1272q2 -29 7 -40t27.5 -19t71.5 -8q20 0 30.5 -1t18.5 -7.5t8 -20.5q0 -39 -38 -39q-4 0 -22.5 2t-67 3t-125.5 1q-39 0 -116 -3t-112 -3q-33 0 -33 29q0 27 13.5 33 t42.5 6q57 0 86.5 15t34 30.5t2.5 42.5l-31 317h-518l-103 -172q-82 -137 -82 -170q0 -55 76 -63q37 0 37 -29q0 -39 -41 -39l-20 2q-23 2 -67 3t-101 1q-61 0 -98 -1t-51.5 -3t-18.5 -2q-29 0 -29 29zM670 541h471l-66 676z" />
<glyph unicode="B" horiz-adv-x="1544" d="M160 29q0 27 14 33t53 6q90 0 116 16t40 72l274 1099q8 29 9 45q0 31 -113 31q-23 0 -32 1t-18 7.5t-9 20.5q0 27 13 33t46 6h664q166 0 269 -80t103 -203q0 -137 -125 -244.5t-293 -140.5q135 -16 220.5 -95t85.5 -192q0 -164 -167 -304t-386 -140h-707q-20 0 -30.5 1 t-18.5 7t-8 21zM522 72q18 -4 58 -4h297q170 0 293.5 120.5t123.5 274.5q0 23 -6 51.5t-25.5 75.5t-71.5 77.5t-130 30.5h-387l-144 -571q-6 -23 -8 -55zM688 756h301q178 0 301 115.5t123 248.5q0 20 -5 45t-23.5 68t-69.5 70.5t-127 27.5h-279q-51 0 -67.5 -10t-28.5 -61z " />
<glyph unicode="C" horiz-adv-x="1572" d="M319 516q0 231 131.5 447.5t340 347.5t428 131t337.5 -178l134 155q18 23 36 23q29 0 29 -25q0 -10 -6 -28l-123 -494q-8 -29 -15 -35t-30 -6q-39 0 -39 27q0 2 2 17t4 41t2 48q0 168 -82 277.5t-235 109.5q-133 0 -271.5 -73.5t-240.5 -202.5q-115 -147 -168 -336 t-53 -316q0 -209 112.5 -315t272.5 -106q72 0 149.5 26.5t157.5 79.5t148.5 148.5t107.5 218.5q4 20 37 20q39 0 39 -26q0 -8 -7.5 -33t-27 -71t-47.5 -91q-94 -147 -251 -243.5t-329 -96.5q-233 0 -388 152.5t-155 406.5z" />
<glyph unicode="D" horiz-adv-x="1656" d="M156 29q0 27 14 33t53 6q90 0 116 16t40 72l274 1099q8 29 9 45q0 31 -113 31q-23 0 -32 1t-18.5 7.5t-9.5 20.5q0 27 13.5 33t46.5 6h665q211 0 340 -143.5t129 -370.5q0 -168 -70.5 -332t-185 -285t-263 -194.5t-298.5 -73.5h-653q-20 0 -30.5 1t-18.5 7t-8 21zM526 72 q18 -4 58 -4h250q150 0 280.5 74.5t216.5 201.5t134 312t48 298q0 186 -102 281.5t-262 95.5h-236q-51 0 -67.5 -10t-28.5 -61l-282 -1133q-6 -23 -9 -55z" />
<glyph unicode="E" horiz-adv-x="1488" d="M154 29q0 27 14 33t53 6q90 0 115.5 16t40.5 72l272 1091q8 29 8 45q0 23 -26.5 28t-85.5 5q-25 0 -34 1t-17.5 8t-8.5 22q0 25 13.5 31t46.5 6h999q57 0 58 -29l-3 -29l-40 -358q-2 -20 -5.5 -28.5t-11.5 -14.5t-24 -6q-39 0 -39 33q0 6 1 16t1 14q10 66 10 119 q0 123 -59.5 169t-229.5 46h-287q-51 0 -67.5 -10t-28.5 -64l-123 -493h185q123 0 172 36.5t80 151.5q6 25 9 33t11 13t25 5q39 0 39 -30q0 -2 -9 -37l-108 -436q-6 -27 -13.5 -35t-29.5 -8q-39 0 -39 28q0 10 6 29q14 57 14 96q0 45 -29.5 65.5t-129.5 20.5h-199l-141 -563 q-6 -23 -9 -55q18 -4 58 -4h291q98 0 171.5 17t123 46t93.5 86t72.5 113.5t71.5 154.5q16 35 22.5 41t26.5 6q39 1 39 -28q0 -14 -10 -35l-186 -432q-12 -27 -21.5 -32t-42.5 -5h-1028q-20 0 -30.5 1t-18.5 7t-8 21z" />
<glyph unicode="F" horiz-adv-x="1433" d="M168 62q14 6 53 6q90 0 115.5 16t40.5 72l272 1091q8 29 8 45q0 23 -26.5 28t-85.5 5q-25 0 -34 1t-17.5 8t-8.5 22q0 25 13.5 31t46.5 6h973q57 0 57 -29l-2 -29l-41 -358q-2 -20 -5 -28.5t-11.5 -14.5t-24.5 -6q-39 0 -39 33q0 12 6 49q6 74 6 104q0 119 -57 165 t-221 46h-271q-51 0 -67.5 -10t-28.5 -64l-129 -520h178q125 0 172 39t78 158q6 27 13.5 35t29.5 8q39 0 39 -29q0 -6 -6 -31l-111 -444q-8 -29 -16 -36t-29 -7q-39 0 -39 29q0 6 9 30q14 61 14 97q0 45 -29.5 64.5t-128.5 19.5h-192l-127 -514q-8 -31 -8 -44q0 -20 9 -25 t48 -9q53 -4 88 -4h14q59 0 60 -29q0 -39 -43 -39h-13q-12 2 -35.5 3t-54 1t-77 1t-97.5 1h-125q-20 0 -64 -3t-63 -3q-30 0 -30 27q0 29 14 35z" />
<glyph unicode="G" horiz-adv-x="1699" d="M319 516q0 231 131.5 447.5t340 347.5t428 131t337.5 -178l134 155q18 23 36 23q29 0 29 -25q0 -10 -6 -28l-123 -494q-8 -29 -15 -35t-30 -6q-39 0 -39 27q0 2 2 17t4 41t2 48q0 168 -82 277.5t-235 109.5q-133 0 -271.5 -73.5t-240.5 -202.5q-113 -145 -167 -334 t-54 -315q0 -205 113.5 -314.5t283.5 -109.5q111 0 222.5 45t160.5 139q10 23 36.5 129t26.5 119q0 20 -10 26t-49 11l-94 4h-21q-20 0 -30.5 1t-18.5 7t-8 20q0 39 45 39q43 0 134 -3t136 -3q66 0 112 1t62.5 2t27.5 2t16 1q30 1 30 -28q0 -39 -37 -39q-94 0 -112 -29 q-12 -20 -47 -160q-2 -10 -20.5 -86t-35 -139.5t-20.5 -69.5q-2 -6 -7 -10t-10 -4h-4q-18 0 -42.5 40t-36.5 73q-158 -156 -437 -156q-242 0 -394.5 154.5t-152.5 404.5z" />
<glyph unicode="H" horiz-adv-x="1630" d="M168 62q14 6 53 6q90 0 115.5 16t40.5 72l274 1099q8 29 8 45q0 31 -112 31q-23 0 -32 1t-18.5 7.5t-9.5 20.5q0 39 41 39l119 -6h244q111 6 117 6q33 0 32 -29q0 -27 -14 -33t-53 -6q-90 0 -117 -16.5t-39 -71.5l-119 -481h615l123 495q0 2 4 18.5t4 24.5q0 31 -113 31 q-61 0 -61 29q0 39 43 39l119 -6h243q111 6 117 6q33 0 33 -29q0 -27 -14.5 -33t-49.5 -6q-94 0 -119.5 -16.5t-42.5 -77.5l-272 -1090q-8 -29 -8 -47q0 -23 26.5 -27.5t86.5 -4.5q23 0 32 -1t18 -7.5t9 -20.5q0 -39 -41 -39q-2 0 -12.5 1t-27.5 2t-43 1t-68 1t-91 1h-123 q-49 -6 -116 -6q-31 0 -31 29q0 27 13.5 33t41.5 6q100 0 127 15t41 73l133 538h-614l-137 -549l-8 -45q0 -23 26.5 -27.5t85.5 -4.5q23 0 32 -1t18.5 -7.5t9.5 -20.5q0 -39 -41 -39q-2 0 -12.5 1t-28 2t-43 1t-67.5 1t-91 1h-123q-49 -6 -117 -6q-30 0 -30 27q0 29 14 35z " />
<glyph unicode="I" horiz-adv-x="843" d="M143 29q0 27 14.5 33t47.5 6q102 0 129.5 15t42.5 75l276 1106q6 25 6 36q0 31 -120 31q-35 0 -48.5 4t-13.5 25q0 39 41 39q2 0 26.5 -1t84 -3t141.5 -2h131q74 6 117 6q12 0 20.5 -7.5t10.5 -15.5v-6q0 -27 -14.5 -33t-51.5 -6q-100 0 -127 -16.5t-39 -71.5l-274 -1098 q-8 -29 -8 -45q0 -32 113 -32h7q23 0 33 -1t19.5 -7.5t9.5 -20.5q0 -39 -43 -39q-45 0 -119 6h-262q-98 -6 -117 -6q-33 0 -33 29z" />
<glyph unicode="J" horiz-adv-x="1150" d="M219 180q0 63 28.5 100t51.5 44.5t41 7.5q39 0 62.5 -22.5t23.5 -57.5q0 -16 -7 -40t-38 -50.5t-80 -26.5q18 -63 69.5 -92t104.5 -29q86 0 167 85t112 206l237 952q6 23 6 35.5t-7 19.5t-17 9t-39 6q-37 4 -88 4h-19q-59 0 -59 29q0 39 45 39q43 0 132 -3t134 -3 q82 0 131.5 2t66.5 3t19 1q29 0 29 -29q0 -27 -13.5 -33t-41.5 -6q-66 0 -85.5 -15.5t-33.5 -70.5l-240 -964q-31 -123 -155.5 -223.5t-274.5 -100.5q-117 0 -189.5 62.5t-72.5 160.5z" />
<glyph unicode="K" horiz-adv-x="1687" d="M168 62q14 6 53 6q90 0 115.5 16t40.5 72l274 1099q8 29 8 45q0 31 -112 31q-23 0 -32 1t-18.5 7.5t-9.5 20.5q0 39 41 39l119 -6h244q111 6 117 6q33 0 32 -29q0 -27 -14 -33t-53 -6q-90 0 -117 -16.5t-39 -71.5l-160 -641l764 596q18 16 23 19l12 12q45 33 45 71 q0 29 -45 31q-33 2 -33 29q0 39 43 39q33 0 103.5 -3t105.5 -3h82l74 6q27 0 27 -29q0 -35 -39 -39q-133 -14 -338 -176l-398 -309l308 -699q23 -51 47 -64t80 -15q36 0 36 -29q0 -39 -38 -39q-6 0 -18.5 2t-53.5 3t-117 1q-37 0 -109.5 -3t-107.5 -3q-31 0 -31 29 q0 39 49 39q88 4 89 59q0 14 -13 39l-254 577l-319 -249l-78 -310q-2 -10 -7 -30.5t-8 -35t-3 -18.5q0 -23 26.5 -27.5t85.5 -4.5q23 0 32 -1t18.5 -7.5t9.5 -20.5q0 -39 -41 -39q-2 0 -12.5 1t-28 2t-43 1t-67.5 1t-91 1h-123q-49 -6 -117 -6q-30 0 -30 27q0 29 14 35z" />
<glyph unicode="L" horiz-adv-x="1376" d="M154 29q0 27 14 33t53 6q90 0 115.5 16t40.5 72l274 1099q8 29 8 45q0 31 -112 31q-23 0 -32 1t-18.5 7.5t-9.5 20.5q0 39 41 39q2 0 23.5 -1t81 -3t149.5 -2q45 0 137.5 3t135.5 3q33 0 32 -29q0 -27 -13 -33t-46 -6h-16q-119 0 -151 -17.5t-46 -78.5l-276 -1108 q-6 -23 -9 -55q18 -4 58 -4h194q80 0 146.5 16t115 52t82 69t64.5 91t45 91t39 96q12 35 19 42t28 7q39 1 39 -30q0 -10 -10 -37l-158 -428q-10 -27 -19.5 -32t-44.5 -5h-917q-20 0 -30.5 1t-18.5 7t-8 21z" />
<glyph unicode="M" horiz-adv-x="1968" d="M164 29q0 39 39 39q100 4 140 41.5t58 111.5l261 1034q8 29 8 45q0 31 -113 31q-23 0 -32 1t-18 7.5t-9 20.5q0 27 13 33t46 6h264q41 0 50.5 -7.5t13.5 -45.5l143 -1160l729 1172q16 29 30.5 35t51.5 6h254q57 0 57 -29q0 -27 -14 -33t-49 -6q-94 0 -119.5 -16.5 t-42.5 -77.5l-272 -1090q-8 -29 -8 -47q0 -23 26.5 -27.5t85.5 -4.5q23 0 32 -1t18.5 -7.5t9.5 -20.5q0 -39 -41 -39q-2 0 -11.5 1t-27 2t-42 1t-65.5 1t-88 1h-119q-92 -6 -108 -6q-31 0 -31 29q0 27 13.5 33t41.5 6q100 0 127 15t41 73l283 1138h-2l-778 -1251 q-27 -43 -62 -43q-18 0 -26.5 6t-11.5 15.5t-5 31.5l-151 1225h-2l-269 -1077q-8 -25 -8 -49q0 -82 121 -84q37 0 37 -29q0 -39 -39 -39q-4 0 -22.5 2t-64.5 3t-116 1q-33 0 -99.5 -3t-97 -3t-30.5 29z" />
<glyph unicode="N" horiz-adv-x="1630" d="M154 29q0 39 39 39q100 4 140 41.5t58 111.5l277 1098q-43 12 -121 12q-23 0 -32 1t-18.5 7.5t-9.5 20.5q0 27 13.5 33t46.5 6h239q33 0 42.5 -5t21.5 -34l428 -1073l227 913q8 31 8 49q0 78 -120 82q-39 0 -39 29q0 39 41 39q2 0 21.5 -1t65.5 -3t115 -2q66 0 111 2 t64.5 3t21.5 1q31 0 31 -29q0 -35 -35 -39q-37 -2 -57.5 -6t-55.5 -17.5t-57.5 -45t-34.5 -82.5l-285 -1141q-6 -25 -13 -32t-31.5 -7t-30.5 6t-17 31l-477 1198l-258 -1034q-8 -25 -8 -49q0 -82 121 -84q37 0 37 -29q0 -39 -39 -39q-4 0 -22.5 2t-64.5 3t-116 1 q-33 0 -99.5 -3t-97 -3t-30.5 29z" />
<glyph unicode="O" horiz-adv-x="1683" d="M315 498q0 227 127 447t334 358.5t424 138.5q223 0 367.5 -150.5t144.5 -398.5q0 -176 -78 -350t-200.5 -301t-282.5 -206t-320 -79q-233 0 -374.5 153.5t-141.5 387.5zM504 453q0 -207 98 -317.5t246 -110.5q143 0 275 92t220.5 231t140.5 304.5t52 312.5 q0 199 -100.5 306t-251.5 107q-133 0 -271.5 -86t-232.5 -237q-96 -150 -136 -318t-40 -284z" />
<glyph unicode="P" horiz-adv-x="1488" d="M170 62q14 6 43 6q98 0 125 15t43 79l272 1095q0 2 4.5 18.5t4.5 24.5q0 31 -113 31q-23 0 -32 1t-18.5 7.5t-9.5 20.5q0 27 13.5 33t46.5 6h641q178 0 284.5 -89t106.5 -220q0 -172 -176 -311.5t-391 -139.5h-346l-123 -494l-8 -45q0 -23 26.5 -27.5t85.5 -4.5 q23 0 32 -1t18.5 -7.5t9.5 -20.5q0 -39 -41 -39q-2 0 -12.5 1t-28 2t-43 1t-67.5 1t-91 1h-123q-49 -6 -117 -6q-30 0 -30 27q0 29 14 35zM678 700h289q207 0 321 121q51 55 80 155t29 161q0 194 -270 194h-3h-211q-51 0 -67.5 -10t-28.5 -61z" />
<glyph unicode="Q" horiz-adv-x="1683" d="M315 498q0 227 127 447t334 358.5t424 138.5q223 0 367.5 -150.5t144.5 -398.5q0 -262 -167 -513t-445 -368q10 -129 39.5 -173t91.5 -44q59 0 127.5 47t107.5 160q6 27 29 27q10 0 19.5 -8.5t9.5 -20.5q0 -10 -11.5 -50t-38 -99.5t-64.5 -114.5t-97.5 -94t-128.5 -39 q-174 0 -174 219q0 53 12 164q-102 -29 -191 -29q-233 0 -374.5 153.5t-141.5 387.5zM494 444q0 -303 215 -397q-8 29 -9 51q0 78 63.5 144.5t149.5 66.5q156 0 181 -217q127 72 220 194t138 251t64.5 231t19.5 182q0 207 -100.5 317.5t-251.5 110.5q-184 0 -347 -144 t-253 -359.5t-90 -430.5zM758 98q0 -78 88 -78q41 0 83 8.5t62 16.5l23 10q14 6 14 39q0 84 -27.5 121t-87.5 37q-61 0 -108 -49t-47 -105z" />
<glyph unicode="R" horiz-adv-x="1601" d="M170 62q14 6 53 6q90 0 116 16t40 72l274 1099q8 29 9 45q0 31 -113 31q-23 0 -32 1t-18.5 7.5t-9.5 20.5q0 27 13.5 33t46.5 6h561q197 0 321.5 -88t124.5 -219q0 -123 -118.5 -235t-313.5 -163q176 -70 176 -235q0 -4 -20 -189q-12 -92 -12 -143q0 -57 14 -85t59 -28 q53 0 96.5 50.5t65.5 121.5q8 25 14.5 32t28.5 7q39 1 39 -28q0 -25 -23.5 -77t-85 -107.5t-141.5 -55.5q-102 0 -181 52t-79 169q0 49 37 182q25 102 25 132q0 76 -54.5 128t-164.5 52h-248l-131 -527l-9 -45q0 -23 27 -27.5t86 -4.5q23 0 32 -1t18 -7.5t9 -20.5 q0 -39 -40 -39q-37 0 -117 6h-242q-111 -6 -117 -6q-30 0 -30 27q0 29 14 35zM686 729h234q188 0 305 86q74 53 108.5 144t34.5 169q0 203 -297 203h-158q-51 0 -67.5 -10t-28.5 -61z" />
<glyph unicode="S" horiz-adv-x="1234" d="M164 -16q0 2 8 36l100 404q8 29 15.5 35t29.5 6q37 0 37 -25l-2 -22q-14 -49 -14 -109q0 -145 93 -214.5t235 -69.5q143 0 255.5 118.5t112.5 259.5q0 166 -157 211l-193 52q-264 63 -264 301q0 178 151.5 326.5t343.5 148.5q195 0 291 -139l92 114q20 25 35 25 q29 0 29 -25q0 -10 -6 -28l-105 -414q-8 -29 -13 -35t-30 -6q-39 0 -39 27q0 4 3.5 20t5.5 44t2 56q0 299 -267 299q-139 0 -248.5 -107.5t-109.5 -234.5q0 -68 36 -119t99 -71q115 -29 123 -33q145 -37 190.5 -55.5t83.5 -59.5q82 -92 82 -225q0 -195 -154.5 -356.5 t-352.5 -161.5q-227 0 -340 141l-95 -116q-18 -25 -34 -25q-29 0 -29 27z" />
<glyph unicode="T" horiz-adv-x="1572" d="M367 948q0 8 10 35l125 365q8 27 18 31.5t45 4.5h1116q57 0 58 -28l-2 -29l-58 -364q-2 -14 -3 -19.5t-5 -12.5t-12 -9t-21 -2q-18 0 -28.5 7t-9 15t1.5 10v11v10l16 133q4 37 4 53q0 104 -57.5 131t-223.5 27q-102 0 -116 -4q-29 -4 -45 -70l-275 -1100q-6 -23 -6 -34 q0 -18 12.5 -25.5t51.5 -11.5q70 -4 102 -4h27q20 0 30.5 -1t18.5 -7.5t8 -20.5q0 -39 -43 -39q-39 0 -123 3t-125 3h-149q-41 0 -120 -3t-118 -3q-35 0 -35 29q0 27 13.5 33t48.5 6h26q133 0 168 19t51 85l269 1075q8 29 10 66q-31 4 -123 4q-113 0 -172 -9.5t-111.5 -45 t-84 -97t-72.5 -176.5q-20 -61 -25 -63q-8 -6 -28 -6q-39 0 -39 28z" />
<glyph unicode="U" horiz-adv-x="1630" d="M440 348q0 63 15 121l196 786q8 29 8 45q0 31 -112 31q-23 0 -32 1t-18.5 7.5t-9.5 20.5q0 39 41 39l119 -6h244q111 6 117 6q33 0 32 -29q0 -27 -14 -33t-53 -6q-90 0 -117 -16.5t-39 -71.5l-199 -797q-20 -86 -20 -155q0 -139 71.5 -202.5t168.5 -63.5q158 0 302 130 t189 314l182 731q8 31 9 49q0 78 -121 82q-39 0 -39 29q0 39 41 39q2 0 20.5 -1t64.5 -3t113 -2q39 0 72 1t54.5 2t37 1t22.5 1t9 1q31 0 31 -29q0 -35 -35 -39q-37 -2 -57.5 -6t-55.5 -17.5t-57.5 -45t-34.5 -82.5l-182 -736q-43 -180 -208 -333.5t-364 -153.5 q-162 0 -276.5 104.5t-114.5 286.5z" />
<glyph unicode="V" horiz-adv-x="1630" d="M436 1360q0 39 41 39q4 0 20.5 -1t63.5 -3t125 -2q37 0 114 3t111 3q31 0 31 -29q0 -27 -13.5 -33t-41.5 -6q-75 -3 -99 -23q-21 -18 -21 -51q0 -6 1 -12l137 -1061l627 1002q35 57 35 86q0 53 -78 59q-31 0 -31 29q0 39 39 39q2 0 22.5 -1t64.5 -3t99 -2q63 0 98.5 2 t46.5 3t17 1q29 0 29 -29q0 -35 -39 -39q-41 -4 -69.5 -13t-76 -50t-92.5 -113l-729 -1159q-23 -39 -65 -39q-29 0 -35 9t-12 44l-162 1256q-4 41 -20.5 53t-84.5 12q-53 0 -53 29z" />
<glyph unicode="W" horiz-adv-x="2191" d="M434 1360q0 39 39 39q6 0 20.5 -1t59.5 -3t123 -2q37 0 111.5 3t109.5 3q31 0 31 -29q0 -39 -45 -39q-51 0 -82 -8t-41 -24.5t-13.5 -27.5t-1.5 -32l66 -1014l537 949l-9 116q-4 23 -19 32t-69 9q-51 0 -51 29q0 39 39 39q6 0 20.5 -1t58.5 -3t122 -2q37 0 111.5 3 t109.5 3q33 0 33 -29q0 -39 -49.5 -39t-79 -8t-41 -24.5t-13.5 -27.5t0 -32l66 -1014l541 957q27 45 26 78q0 68 -96 71q-37 0 -37 29q0 39 41 39q2 0 24.5 -1l67.5 -3t105 -2q94 0 126.5 3t34.5 3q8 0 17.5 -7.5t9.5 -21.5q0 -16 -6 -24.5t-13.5 -10.5t-23.5 -4 q-119 -12 -209 -172l-651 -1157q-25 -45 -68 -45q-41 0 -43 37l-2 16l-65 1032l-588 -1042q-25 -43 -66 -43q-20 0 -29 6t-11.5 16.5t-4.5 34.5l-82 1252q-2 31 -6 41t-22.5 17t-59.5 7q-53 0 -53 29z" />
<glyph unicode="X" horiz-adv-x="1630" d="M117 29q0 35 43 39q156 14 274 139l473 500l-245 565q-14 35 -40 47t-96 12q-49 0 -49 29q0 39 41 39q4 0 21.5 -1t65.5 -3t126 -2l227 6q31 0 31 -29q0 -25 -10 -31t-29 -8q-45 -4 -73.5 -23.5t-28.5 -33.5q2 -8 8 -23l178 -407l324 344q10 10 18 26l8 9q25 29 25 57 q0 47 -57 51q-33 0 -33 29q0 39 41 39q2 0 23.5 -1t68.5 -3t112.5 -2t107.5 2t57.5 3t17.5 1q31 0 31 -29q0 -16 -7.5 -25.5t-15.5 -10.5l-24 -3q-158 -12 -312 -176l-356 -381l283 -649q14 -31 38.5 -44t88.5 -13q20 0 29 -1t17.5 -7.5t8.5 -20.5q0 -39 -39 -39 q-6 0 -22.5 2t-63.5 3t-127 1q-39 0 -116 -3t-111 -3q-33 0 -33 29q0 39 39 39q43 2 72.5 21.5t29.5 35.5q0 6 -8 25l-213 487l-401 -428q-2 -2 -31 -39q-18 -29 -19 -51q0 -47 58 -51q31 0 30 -29q0 -39 -38 -39q-2 0 -25 2t-71 3t-111 1q-68 0 -108 -1t-55 -3t-20 -2 q-10 0 -19 8t-9 21z" />
<glyph unicode="Y" horiz-adv-x="1630" d="M424 1360q0 39 41 39q4 0 20.5 -1t65.5 -3t129 -2q39 0 116.5 3t112.5 3q33 0 33 -29q0 -39 -49 -39q-104 0 -105 -43q0 -14 11 -35l227 -598l469 533l16 20q2 4 5.5 9.5t7.5 9.5q14 16 22 32.5t10 24.5v8q0 35 -57 39q-33 2 -33 29q0 39 41 39q2 0 22.5 -1t64.5 -3 t100 -2q49 0 82.5 1t45 2t20.5 2t16 1q10 0 19 -8.5t9 -20.5q0 -35 -43 -39q-139 -14 -262 -153l-547 -619l-88 -352q-25 -92 -24 -111q0 -28 105 -28h7q23 0 33 -1t19.5 -7.5t9.5 -20.5q0 -39 -41 -39q-2 0 -12.5 1t-29 2t-44 1t-66.5 1t-88 1h-119q-111 -6 -116 -6 q-31 0 -31 29q0 27 13 33t40 6q109 2 132.5 19t49.5 118q4 14 25.5 102t41 168t19.5 82q0 8 -8 31l-260 684q-8 25 -16 35t-35 17t-78 7q-49 0 -49 29z" />
<glyph unicode="Z" horiz-adv-x="1347" d="M174 23q0 29 25 55l1114 1253h-312q-209 0 -313 -84t-166 -266q-8 -23 -12 -31t-11 -12t-22 -4q-39 0 -39 29q0 6 6 24l113 371q10 29 18.5 35t45.5 6h845q29 0 40.5 -3t11.5 -20q0 -23 -27 -53l-1108 -1249h330q104 0 184 21.5t130 54t90 93t62.5 114t51.5 143.5 q12 37 19 44t30 7q39 0 39 -29q0 -6 -8 -26l-144 -459q-8 -27 -18 -32t-45 -5h-879q-51 0 -51 23z" />
<glyph unicode="[" horiz-adv-x="673" d="M166 -483q0 6 6 30l487 1948q8 31 16.5 36t45.5 5h170q57 0 57 -28.5t-14 -53.5q-8 -12 -53 -12h-140l-462 -1860h122q57 0 58 -28q-6 -41 -15 -52q-8 -14 -51 -14h-170q-57 0 -57 29z" />
<glyph unicode="\" horiz-adv-x="1087" d="M494 1452v37q4 20 21 33.5t38 13.5q23 0 29 -11.5t10 -37.5l256 -1915v-37q-4 -20 -20.5 -33.5t-36.5 -13.5q-23 0 -29 11.5t-10 37.5z" />
<glyph unicode="]" horiz-adv-x="673" d="M-22.5 -483.5q-0.5 28.5 14.5 53.5q8 12 53 12h139l465 1860h-125q-57 0 -57 28q6 41 14 52q8 14 51 14h170q57 0 58 -29q0 -5 -6 -30l-488 -1948q-8 -31 -16 -36t-45 -5h-170q-57 0 -57.5 28.5z" />
<glyph unicode="^" horiz-adv-x="1136" d="M289 1196l661 328l498 -328l-35 -45l-495 252l-617 -252z" />
<glyph unicode="_" horiz-adv-x="1630" d="M-102 -256q4 16 18 27.5t31 11.5h1630q16 0 24.5 -11.5t4.5 -27.5q-2 -14 -16.5 -26.5t-30.5 -12.5h-1633q-16 0 -24 12.5t-4 26.5z" />
<glyph unicode="`" d="M645 1362q16 31 44 47t52 16q12 0 23.5 -6t15.5 -14l4 -6l170 -293q8 -27 4 -37q-6 -12 -26.5 -27.5t-34.5 -15.5q-8 0 -20 14l-222 250q-29 31 -10 72z" />
<glyph unicode="a" d="M231 307q0 219 155 407.5t335 188.5q119 0 188 -115q6 39 32 57.5t52.5 18.5t44 -16.5t17.5 -40.5q0 -2 -8 -43l-144 -578q-6 -25 -6 -59q0 -90 57 -90q82 0 138 225q8 31 11 39t10 13t26 5q39 1 39 -26q-27 -123 -70 -205q-58 -108 -156 -108h-2q-72 0 -121 39.5 t-63 99.5q-123 -139 -264 -139q-117 0 -194 91t-77 236zM381 223.5q0 -73.5 30.5 -130t96.5 -56.5q82 0 170 86t102 149l86 351l6 28q0 23 -9 62t-47 86t-95 47q-125 0 -229 -191q-37 -70 -74 -214t-37 -217.5z" />
<glyph unicode="b" horiz-adv-x="1009" d="M246 301q0 94 20 156l201 798q0 4 2 14.5t4 18.5t2 12q0 12 -3 17.5t-25.5 9.5t-69.5 4q-53 0 -53 29q0 16 8 25.5t16 11.5t27 4l213 18h12q43 0 43 -26q0 -6 -6 -31l-141 -563q123 104 229 104q111 0 190.5 -86t79.5 -242q0 -225 -154.5 -410t-334.5 -185 q-115 0 -187.5 89t-72.5 232zM373 238q0 -82 33.5 -141.5t101.5 -59.5q59 0 124.5 54.5t112.5 152.5q33 70 67 203t34 210q0 96 -37 142.5t-88 46.5q-70 0 -168 -82q-88 -84 -104 -158q-76 -285 -76 -368z" />
<glyph unicode="c" horiz-adv-x="1009" d="M236 326q0 223 169.5 400t372.5 177q106 0 173 -49t67 -127q0 -57 -32 -90t-73 -33q-37 0 -55 20.5t-18 47.5q0 82 88 100q-39 74 -150 74q-68 0 -147.5 -49t-143.5 -164q-39 -70 -68.5 -186.5t-29.5 -192.5q0 -102 49 -159.5t131 -57.5q96 0 202 46t183 140q23 25 33 25 t25.5 -15.5t15.5 -27.5q0 -10 -18.5 -35t-59.5 -57.5t-93 -62.5t-129 -50t-161 -20q-147 0 -239 95t-92 251z" />
<glyph unicode="d" d="M231 307q0 219 155 407.5t335 188.5q119 0 188 -115l117 467q0 4 2 14.5t4 18.5t2 12q0 12 -3 17.5t-25.5 9.5t-69.5 4q-53 0 -53 29q0 16 8 25.5t16 11.5t27 4l213 18h12q43 0 43 -26q0 -6 -6 -31l-293 -1176q-6 -25 -6 -59q0 -90 57 -90q82 0 138 225q8 31 11 39t10 13 t26 5q39 1 39 -26q-27 -123 -70 -205q-58 -108 -156 -108h-2q-72 0 -121 39.5t-63 99.5q-123 -139 -264 -139q-117 0 -194 91t-77 236zM381 223.5q0 -73.5 30.5 -130t96.5 -56.5q82 0 170 86t102 149l86 351l6 28q0 23 -9 62t-47 86t-95 47q-125 0 -229 -191 q-37 -70 -74 -214t-37 -217.5z" />
<glyph unicode="e" horiz-adv-x="1009" d="M244 348q0 129 51 238.5t132 176t172 103.5t177 37q102 0 166 -50t64 -128q0 -61 -28 -108.5t-77 -74t-96 -43t-109.5 -23.5t-91.5 -8t-63 -1h-117q-29 -123 -29 -197q0 -90 40 -161.5t134 -71.5q96 0 202 46t183 140q23 25 33 25t25.5 -15.5t15.5 -27.5q0 -10 -18.5 -35 t-59.5 -57.5t-93 -62.5t-129 -50t-161 -20q-154 0 -238.5 108.5t-84.5 259.5zM440 524h84q391 0 391 201q0 57 -40.5 89t-98.5 32q-53 0 -112.5 -24.5t-126 -102.5t-97.5 -195z" />
<glyph unicode="f" horiz-adv-x="673" d="M-51 -281q0 47 29.5 80t74.5 33q72 0 72 -69.5t-70 -98.5q30 -24 73 -24h3q72 0 115 161q35 125 63 275l140 739h-134q-57 0 -57 29q0 27 13.5 33t45.5 6h144l43 223q61 336 278 336q74 0 129.5 -37t55.5 -100q0 -47 -30 -80t-75 -33q-72 0 -72 69q0 70 70 97 q-30 26 -77 26h-3q-27 0 -46 -14t-33.5 -48t-20.5 -59.5t-16 -74.5q-12 -51 -60 -305h168q59 0 59 -29q0 -27 -14 -33t-47 -6h-178l-121 -639q-20 -113 -44 -197.5t-63.5 -185t-100 -156t-136.5 -55.5q-68 0 -123 36t-55 101z" />
<glyph unicode="g" horiz-adv-x="1009" d="M123 -299q0 49 30.5 80t71.5 31q33 0 53.5 -19.5t20.5 -50.5q-4 -57 -51 -86q55 -16 139 -16q127 0 213 90q29 31 47.5 64.5t25.5 58t21 77.5l43 172q-119 -102 -229 -102q-115 0 -193.5 87t-78.5 237q0 217 153.5 398t331.5 181q125 0 186 -110q8 31 32 51t54 20 q27 0 44.5 -16.5t17.5 -40.5q0 -2 -8 -43l-226 -899q-29 -113 -143.5 -198t-294.5 -85q-119 0 -189.5 23.5t-70.5 95.5zM385 242q0 -78 33 -131.5t94 -53.5q82 0 169 83t103 149l84 338q6 29 6 30q0 23 -10 62t-48 83t-95 44q-59 0 -125 -54.5t-113 -148.5 q-35 -72 -66.5 -203t-31.5 -198z" />
<glyph unicode="h" d="M164 39q0 6 6 31l297 1185q0 4 2 14.5t4 18.5t2 12q0 12 -3 17.5t-25.5 9.5t-69.5 4q-53 0 -53 29q0 16 8 25.5t16 11.5t27 4l213 18h12q43 0 43 -26q0 -6 -6 -31l-150 -596q131 137 291 137q98 0 166 -50t68 -171q0 -117 -125 -449q-31 -88 -31 -131q0 -65 44 -65h1 q63 0 113.5 66.5t79.5 172.5q6 20 9 27.5t11 11.5t25 4q39 1 39 -26q0 -16 -17.5 -62.5t-49.5 -104.5t-89 -102t-125 -44q-76 0 -124 49t-48 121q0 39 27 106q125 336 125 455q0 135 -105 135q-76 0 -143.5 -41t-108.5 -99.5t-63.5 -103.5t-28.5 -72q-4 -23 -16.5 -66.5 t-16.5 -66.5q-92 -362 -94 -366q-18 -51 -74 -51q-31 0 -47 17t-16 42z" />
<glyph unicode="i" horiz-adv-x="673" d="M164 590q0 25 26.5 93.5t95 144t156.5 75.5q70 0 120 -45t50 -125q0 -39 -24 -106l-135 -357q-45 -119 -45 -168q0 -65 44 -65h1q61 0 111 66.5t79 172.5q6 20 9 27.5t11.5 11.5t24.5 4q39 1 39 -26q0 -14 -17.5 -60.5t-48 -104.5t-88 -103t-124.5 -45q-76 0 -124.5 49 t-48.5 121q0 39 23 94l143 381q41 111 41 157q0 63 -45 64q-68 0 -116 -70.5t-76 -169.5q-6 -29 -12.5 -36t-30.5 -7q-39 0 -39 27zM528 1206q0 51 42 92t96 41q35 0 64.5 -22.5t29.5 -71.5q0 -53 -43 -93t-94 -40q-39 0 -67 25.5t-28 68.5z" />
<glyph unicode="j" horiz-adv-x="729" d="M-72 -297q0 45 31 77t72 32q33 0 53 -19.5t20 -50.5q-2 -59 -55 -88q35 -14 74 -14q90 0 148.5 86t78.5 170l199 804q6 31 6 56q0 90 -61 90q-59 0 -126 -57.5t-122 -192.5q-8 -23 -14.5 -28t-28.5 -5q-39 0 -39 25q0 14 23.5 61t62.5 105.5t107.5 103.5t142.5 45 q82 0 136 -52t54 -136q0 -31 -10 -72l-186 -749q-31 -127 -137.5 -219.5t-233.5 -92.5q-86 0 -140.5 32t-54.5 89zM598 1206q0 51 42 92t95 41q35 0 64.5 -22.5t29.5 -71.5q0 -53 -43 -93t-94 -40q-39 0 -66.5 25.5t-27.5 68.5z" />
<glyph unicode="k" horiz-adv-x="1009" d="M164 39q0 6 6 31l297 1185q0 4 2 14.5t4 18.5t2 12q0 12 -3 17.5t-25.5 9.5t-69.5 4q-53 0 -53 29q0 16 8 25.5t16 11.5t27 4l213 18h12q43 0 43 -26q0 -6 -6 -31l-205 -819q82 39 207 172q176 188 305 188q70 0 105.5 -40t35.5 -95t-31.5 -87t-72.5 -32q-72 0 -72 70 q0 39 27 66.5t59 33.5q-18 27 -53 27q-115 0 -270 -176q-117 -117 -172 -154q282 -49 282 -218q0 -32 -8 -65q-14 -53 -14 -102q0 -94 61.5 -94t97 65.5t62.5 176.5q6 25 14.5 32.5t30.5 7.5q39 1 39 -26q0 -8 -9 -41t-29.5 -82t-41.5 -84q-72 -106 -168 -106q-84 0 -137 57 t-53 145q0 33 8 62q6 31 6 51q0 139 -229 168l-101 -406q-20 -77 -82 -77h-2q-31 0 -47 17t-16 42z" />
<glyph unicode="l" horiz-adv-x="561" d="M203 168q0 33 10 74l254 1013q0 4 2 14.5t4 18.5t2 12q0 12 -3 17.5t-25.5 9.5t-69.5 4q-53 0 -53 29q0 16 8 25.5t16 11.5t27 4l213 18h12q43 0 43 -26q0 -6 -6 -31l-293 -1176q-6 -25 -6 -59q0 -90 57 -90q18 0 33.5 9t29 30.5t22.5 39t20.5 53.5t16.5 53.5t15 56.5 q6 27 13.5 33.5t29.5 6.5q39 1 39 -26q0 -6 -8 -38t-24.5 -81t-32.5 -82q-58 -112 -156 -112h-2q-76 0 -132 50t-56 138z" />
<glyph unicode="m" horiz-adv-x="1796" d="M164 590q0 6 9 40t25.5 83t32.5 80q62 110 158 110h2q74 0 126 -46t63 -118q135 164 313 164q88 0 154.5 -42t76.5 -142q135 184 328 184q98 0 166 -50t68 -171q0 -117 -125 -449q-31 -88 -31 -131q0 -65 44 -65h1q63 0 113.5 66.5t78.5 172.5q6 20 9.5 27.5t11.5 11.5 t24 4q39 1 38 -26q0 -16 -16.5 -62.5t-48.5 -104.5t-89.5 -102t-124.5 -44q-76 0 -124 49t-48 121q0 39 26 106q125 336 125 455q0 135 -104 135q-102 0 -189 -72q-57 -51 -99 -121.5t-52 -103.5l-33 -133q-12 -45 -33 -133l-45 -177q-12 -49 -19 -70.5t-26.5 -38.5 t-50.5 -17q-27 0 -44 16t-17 41q0 2 8 43l129 514q16 61 16 117q0 135 -106 135q-63 0 -120.5 -30t-95.5 -70.5t-67 -82.5t-41 -73l-12 -29l-70 -278l-45 -177q-12 -49 -19 -70.5t-26.5 -38.5t-50.5 -17q-27 0 -44.5 16t-17.5 41q0 4 7 31l149 598q12 43 12 90q0 90 -57 90 q-80 0 -137 -228q-10 -39 -16.5 -47t-30.5 -8q-39 0 -39 27z" />
<glyph unicode="n" horiz-adv-x="1234" d="M164 590q0 6 9 40t25.5 83t32.5 80q62 110 158 110h2q74 0 126 -46t63 -118q135 164 309 164q100 0 166.5 -50t66.5 -171q0 -117 -125 -449q-31 -88 -30 -131q0 -65 44 -65h1q63 0 113.5 66.5t78.5 172.5q6 20 9.5 27.5t11.5 11.5t24 4q39 1 39 -26q0 -16 -17.5 -62.5 t-49 -104.5t-89 -102t-124.5 -44q-76 0 -124 49t-48 121q0 39 26 106q125 330 125 455q0 135 -104.5 135t-200.5 -84q-43 -39 -85 -109.5t-52 -103.5l-33 -133q-12 -45 -33 -133l-45 -177q-12 -49 -19 -70.5t-26.5 -38.5t-50.5 -17q-27 0 -44.5 16t-17.5 41q0 4 7 31 l149 598q12 43 12 90q0 90 -57 90q-80 0 -137 -228q-10 -39 -16.5 -47t-30.5 -8q-39 0 -39 27z" />
<glyph unicode="o" d="M236 326q0 223 171 400t371 177q141 0 234.5 -95t93.5 -251q0 -221 -170 -399t-375 -178q-137 0 -231 92t-94 254zM389 254q0 -113 52.5 -165t121.5 -52q74 0 149.5 52t125.5 136q55 92 84.5 214t29.5 190q0 104 -49 160.5t-127 56.5q-63 0 -141 -47t-137 -148 q-47 -80 -78 -200.5t-31 -196.5z" />
<glyph unicode="p" d="M47 -369q0 39 49 39q57 0 75.5 13.5t31.5 64.5l235 952q6 31 6 56q0 90 -57 90q-80 0 -137 -228q-10 -39 -16.5 -47t-30.5 -8q-39 0 -39 27q0 6 9 40t25.5 83t32.5 80q62 110 158 110h2q61 0 113.5 -34.5t68.5 -104.5q129 139 265 139q111 0 190.5 -86t79.5 -242 q0 -227 -154.5 -411t-332.5 -184q-123 0 -189 114l-74 -297q-23 -90 -22 -98q0 -18 23.5 -23.5t76.5 -5.5q51 0 51 -28q0 -39 -38 -39q-4 0 -23.5 2t-65 3t-108.5 1q-66 0 -104.5 -1t-53 -3t-18.5 -2q-29 0 -29 28zM467 231q0 -12 6 -37.5t20.5 -63.5t48 -65.5t79.5 -27.5 q59 0 124.5 54.5t112.5 152.5q33 70 66.5 203t33.5 210q0 96 -36.5 142.5t-87.5 46.5q-113 0 -234 -158q-31 -43 -39 -80l-88 -350q0 -4 -3 -13t-3 -14z" />
<glyph unicode="q" horiz-adv-x="1009" d="M231 307q0 219 155 407.5t335 188.5q131 0 194 -129q23 39 66 84t63 45q10 0 19.5 -8t9.5 -21q0 -8 -6 -26l-276 -1104l-9 -45q0 -18 23.5 -23.5t77.5 -5.5h3q48 0 48 -28q0 -39 -39 -39q-4 0 -22.5 2t-66.5 3t-120 1q-35 0 -104.5 -3t-100 -3t-30.5 28q0 27 12 33t37 6 q96 2 116.5 17.5t42.5 97.5l74 299q-131 -104 -231 -104q-117 0 -194 91t-77 236zM381 223.5q0 -73.5 30.5 -130t96.5 -56.5q82 0 169 85t103 150l88 351l4 26q0 23 -9 63t-47 87t-95 47q-125 0 -229 -191q-37 -70 -74 -214t-37 -217.5z" />
<glyph unicode="r" horiz-adv-x="925" d="M164 590q0 6 9 40t25.5 83t32.5 80q62 110 158 110h2q72 0 121 -40t63 -101q106 141 263 141q76 0 146.5 -31.5t70.5 -109.5q0 -57 -33 -85t-70 -28q-71 0 -71 68q0 70 69 96q-41 33 -114 33q-51 0 -99.5 -26.5t-80 -64.5t-56.5 -81t-37 -72t-14 -41l-125 -502 q-20 -79 -84 -79h-2q-27 0 -44.5 16t-17.5 41q0 4 7 31l149 598q12 43 12 90q0 90 -57 90q-80 0 -137 -228q-10 -39 -16.5 -47t-30.5 -8q-39 0 -39 27z" />
<glyph unicode="s" horiz-adv-x="897" d="M160 178q0 61 30.5 94t75.5 33q33 0 52.5 -19.5t19.5 -47.5q0 -84 -92 -101q45 -100 207 -100q147 0 212.5 72.5t65.5 142.5q0 106 -153 135q-98 23 -127 33t-62 37q-65 52 -65 142q0 30 8 64.5t32.5 77.5t60.5 78t99.5 59.5t141.5 24.5q96 0 166.5 -46t70.5 -130 q0 -51 -23.5 -78.5t-38 -31t-28.5 -3.5q-27 0 -45 17.5t-18 44.5q0 8 2 19.5t19 34t50 30.5q-33 86 -159 86q-106 0 -158.5 -59.5t-52.5 -117t37.5 -79t121.5 -37.5q248 -54 248 -234q0 -43 -19.5 -95t-61.5 -110.5t-127 -96t-197 -37.5q-133 0 -213 55t-80 143z" />
<glyph unicode="t" horiz-adv-x="729" d="M182 844q0 27 13.5 33t48.5 6h184l80 317q18 80 86 80q20 0 39.5 -13.5t19.5 -43.5q0 -14 -8 -45l-74 -295h172q20 0 30.5 -1t19 -7.5t8.5 -20.5q0 -27 -13.5 -33t-46.5 -6h-186l-156 -629q-6 -25 -6 -59q0 -90 60 -90q141 0 249 250q8 23 14.5 27.5t28.5 4.5 q37 1 37 -24q0 -14 -22.5 -61.5t-62.5 -105.5t-107.5 -103t-140.5 -45q-80 0 -135.5 51t-55.5 137q0 33 10 74l144 573h-172q-57 0 -58 29z" />
<glyph unicode="u" horiz-adv-x="1179" d="M164 590q0 14 17.5 60t48 105.5t89 103.5t125.5 44q70 0 120 -45t50 -125q0 -41 -24 -102q-117 -317 -117 -434q0 -160 121 -160q88 0 154.5 73.5t78.5 127.5l140 563q18 82 86 82q61 0 61 -60q0 -10 -8 -39l-148 -598q-6 -25 -6 -59q0 -90 58 -90q82 0 137 225 q8 31 11 39t10.5 13t25.5 5q39 1 39 -26q-27 -123 -70 -205q-58 -108 -155 -108h-2q-53 0 -105.5 28.5t-73.5 95.5q-108 -124 -239 -124h-2q-102 0 -176 58t-74 187q0 53 20.5 133t36 124t58.5 163q35 88 34 137q0 63 -45 64q-63 0 -113.5 -67.5t-80.5 -172.5 q-6 -29 -12.5 -36t-30.5 -7q-39 0 -39 27z" />
<glyph unicode="v" horiz-adv-x="1009" d="M164 590q0 14 17.5 60t48 105.5t89 103.5t125.5 44q70 0 120 -45t50 -125q0 -31 -39 -147q-100 -262 -100 -377q0 -172 143 -172q80 0 150 74.5t107.5 176t59 185.5t21.5 121q0 98 -55 156q-27 27 -27 55q0 41 33 69.5t68 28.5q20 0 38.5 -9t36 -45t17.5 -95 q0 -39 -13.5 -121t-48 -196.5t-84 -215t-131 -171t-178.5 -70.5q-113 0 -193.5 59t-80.5 197q0 102 113 409q35 88 34 137q0 63 -45 64q-63 0 -113.5 -67.5t-80.5 -172.5q-6 -29 -12.5 -36t-30.5 -7q-39 0 -39 27z" />
<glyph unicode="w" horiz-adv-x="1460" d="M164 590q0 14 17.5 60t48 105.5t89 103.5t125.5 44q70 0 120 -45t50 -125q0 -41 -32 -125q-106 -285 -107 -393q0 -178 158 -178q70 0 123 72q55 78 57 137q2 51 16 108l111 447q18 82 86 82q27 0 44 -15.5t17 -44.5q0 -16 -20 -88l-29 -114l-51 -207q-37 -145 -37 -205 q0 -172 146 -172q131 0 211 186q31 70 64.5 193t33.5 178q0 98 -55 156q-27 27 -27 55q0 41 33 69.5t67 28.5q20 0 39 -9t36.5 -45t17.5 -95q0 -84 -44.5 -257t-93.5 -278q-109 -240 -290 -240l-1 1q-182 0 -247 126q-85 -126 -209 -126h-2q-47 0 -90 9t-91.5 34.5t-78 81 t-29.5 135.5q0 66 21.5 145.5t89.5 259.5q35 88 34 137q0 63 -45 64q-63 0 -113.5 -67.5t-80.5 -172.5q-6 -29 -12.5 -36t-30.5 -7q-39 0 -39 27z" />
<glyph unicode="x" horiz-adv-x="1011" d="M117 121q0 47 29.5 79.5t74.5 32.5q72 0 72 -69.5t-72 -97.5q35 -29 92 -29q37 0 68 20.5t49.5 43t35.5 65.5t22.5 59.5t15.5 53.5l65 266q33 129 33 172q0 57 -28.5 93t-77.5 36q-66 0 -138.5 -60.5t-115.5 -195.5q-8 -27 -39 -27q-39 0 -39 27q0 68 98 190.5t238 122.5 q147 0 211 -129q88 129 209 129q68 0 130 -32.5t62 -108.5q0 -57 -32.5 -85t-69.5 -28q-72 0 -72 70q0 39 24.5 64.5t47.5 33.5q-57 29 -92 29q-59 0 -107.5 -53.5t-73.5 -147.5l-65 -266q-43 -162 -43 -213q0 -61 28.5 -95t77.5 -34q61 0 135 58.5t117 197.5q8 27 41 26 q39 1 39 -24q0 -27 -23.5 -76t-63.5 -104.5t-107.5 -95t-141.5 -39.5q-72 0 -128 35.5t-83 93.5q-88 -129 -209 -129q-76 0 -135 36.5t-59 104.5z" />
<glyph unicode="y" horiz-adv-x="1067" d="M164 590q0 14 17.5 60t48 105.5t89 103.5t125.5 44q70 0 120 -45t50 -125q0 -41 -24 -102q-117 -317 -117 -434q0 -160 121 -160q88 0 154.5 73.5t78.5 127.5l140 563q18 82 86 82q27 0 44 -15.5t17 -44.5l-8 -39l-201 -802q-39 -150 -174 -275t-297 -125 q-92 0 -151.5 50.5t-59.5 127.5q0 68 35 96.5t69.5 28.5t54 -19.5t19.5 -47.5q0 -35 -25.5 -64.5t-66.5 -38.5q33 -75 125 -75h2q119 0 221 129q82 106 123 286q-85 -75 -191 -75h-3q-102 0 -176 58t-74 187q0 53 20.5 133t36 124t58.5 163q35 88 34 137q0 63 -45 64 q-63 0 -113.5 -67.5t-80.5 -172.5q-6 -29 -12.5 -36t-30.5 -7q-39 0 -39 27z" />
<glyph unicode="z" horiz-adv-x="897" d="M131 4q0 16 56.5 95t134.5 161q47 49 198 186q213 188 266 254q-51 2 -133 33q-72 29 -118 29q-121 0 -162 -100q-8 -23 -39 -23q-39 0 -39 25q0 57 77 148t181 91q70 0 139 -76q56 -69 102 -69h1q33 0 57.5 23.5t71.5 101.5q14 20 41 20q39 0 39 -24q0 -31 -115 -170 q-25 -29 -156 -164l-229 -207l-156 -156q82 0 154 -26q98 -35 137 -35q72 0 139.5 48t93.5 120q6 23 13.5 29t27.5 6q39 0 39 -27t-23.5 -77t-63.5 -104.5t-106.5 -95t-140.5 -40.5q-72 0 -135 75q-39 43 -60.5 56.5t-49.5 13.5q-82 0 -158 -117q-12 -20 -18.5 -24t-26.5 -4 q-39 0 -39 24z" />
<glyph unicode="{" horiz-adv-x="1087" d="M283 512q4 18 14 22.5t33 6.5q123 8 215 71q41 29 68.5 65t34.5 58.5t20 63.5l118 479q31 115 171.5 186.5t312.5 71.5q16 0 24.5 -1t13.5 -7t1 -21q-4 -18 -14.5 -22t-32.5 -6q-135 -6 -238 -84q-49 -39 -67.5 -82t-55.5 -195l-78 -307q-12 -51 -24.5 -81t-43 -76 t-91 -80.5t-150.5 -61.5q111 -39 156 -109q18 -31 20 -62.5t-5 -69.5t-34 -152l-78 -307q-18 -74 -18 -97q8 -156 233 -170q29 0 23 -28.5t-53 -28.5q-184 0 -287 78q-96 74 -55 225l104 418q18 82 19 100q0 25 -9.5 48.5t-32 52t-72.5 49t-120 24.5q-31 0 -22 29z" />
<glyph unicode="|" horiz-adv-x="604" d="M145 -438l476 1900q16 74 65 74q45 0 29 -74l-475 -1900q-20 -74 -66 -74q-49 0 -29 74z" />
<glyph unicode="}" horiz-adv-x="1087" d="M33 -483q4 18 14 22t35 6q92 6 177 48t130 120q12 25 55 193l76 307q12 49 24.5 79t43 77t92 82.5t151.5 60.5q-180 59 -182 195q2 27 45 198l76 307q20 80 18 97q-6 156 -233 170q-31 0 -25 28q8 29 58 29q184 0 282 -78q45 -35 60.5 -81t12.5 -71.5t-13 -72.5 l-121 -479q-10 -20 -1 -55t25.5 -68t69.5 -59.5t133 -30.5q31 0 25 -29q-6 -18 -16.5 -22.5t-32.5 -6.5q-119 -8 -213 -71q-41 -29 -67.5 -65t-35 -59.5t-18.5 -62.5l-121 -479q-29 -115 -170 -186.5t-311 -71.5q-16 0 -24.5 1t-14.5 7t-4 21z" />
<glyph unicode="~" horiz-adv-x="1136" d="M106 430l134 90q49 33 135 72q92 37 160 37q84 0 186 -70q41 -27 61.5 -39t57.5 -24.5t75 -12.5q137 0 351 146l18 -35l-133 -90q-45 -33 -133 -72q-92 -37 -160 -37q-88 0 -186 70q-113 76 -195 76q-141 0 -350 -146z" />
<glyph unicode="&#xa0;" />
<glyph unicode="&#xa1;" horiz-adv-x="673" d="M135 -350q0 23 10 49l297 899q8 25 16.5 30t28.5 5q39 0 39 -27l-4 -26l-153 -899q-12 -68 -56.5 -94.5t-81.5 -26.5q-41 0 -68.5 24.5t-27.5 65.5zM446 891q0 51 42 92t96 41q35 0 64.5 -22.5t29.5 -71.5q0 -53 -43 -93t-94 -40q-39 0 -67 25.5t-28 68.5z" />
<glyph unicode="&#xa2;" horiz-adv-x="1009" d="M236 326q0 215 158.5 388t355.5 187l10 47q8 33 41 33q14 0 21 -10t3 -23l-10 -47q92 -8 147.5 -55t55.5 -119q0 -57 -32 -90t-73 -33q-37 0 -55 20.5t-18 47.5q0 82 88 100q-33 63 -127 74l-203 -807q215 12 356 184q23 25 33 25t25.5 -15.5t15.5 -27.5q0 -10 -18.5 -34 t-57.5 -55.5t-89 -61t-124.5 -51t-154.5 -23.5l-11 -46q-10 -33 -41 -32q-14 0 -21 9t-3 23l10 48q-129 16 -205.5 109t-76.5 235zM389 254q0 -90 37.5 -146.5t105.5 -68.5l201 803q-152 -35 -246 -209q-39 -70 -68.5 -186.5t-29.5 -192.5z" />
<glyph unicode="&#xa3;" horiz-adv-x="1671" d="M190 82q0 72 81 137.5t202 65.5q63 0 131 -23q16 41 55 203l54 213h-115q-53 0 -53 24q0 20 8 30.5t17.5 11.5t31.5 1h129l82 334q35 137 162 252t276 115q117 0 188.5 -78t71.5 -205q0 -182 -110 -182q-33 0 -53.5 19.5t-20.5 50.5q0 10 3 26.5t29.5 44t74.5 29.5 q0 238 -183 238q-92 0 -176 -83t-119 -225l-84 -336h175q20 0 29 -1t16.5 -7t7.5 -18q0 -29 -13.5 -35t-46.5 -6h-184l-82 -332q-18 -78 -61 -137q150 -88 200 -110.5t117 -22.5q94 0 170 57t107 143q8 23 14 28t29 5q36 1 36 -24q0 -76 -113.5 -190.5t-277.5 -114.5 q-92 0 -190 49q-33 16 -47.5 24t-43 25.5t-69.5 42.5q-143 -141 -305 -141q-66 0 -108 26.5t-42 75.5zM281 82q0 -45 61 -45q113 0 211 129q-51 23 -115 22q-74 0 -115.5 -36.5t-41.5 -69.5z" />
<glyph unicode="&#xa4;" horiz-adv-x="1683" d="M375 37q-37 27 28 76l162 131q-63 119 -26 268q39 154 161 268l-102 135q-29 39 4 66q43 35 76 8q8 -4 22 -26l86 -113q145 94 293 94q150 0 244 -94l141 111q59 53 99 26q37 -27 -29 -76l-160 -129q66 -117 29 -270q-39 -154 -162 -268l100 -133q27 -41 -4 -66 q-41 -33 -77 -8q-6 4 -21 26l-84 111q-145 -94 -293 -94q-150 0 -246 96l-143 -113q-59 -53 -98 -26zM633 512q-35 -139 40 -238.5t214 -99.5t263 99.5t158.5 238.5t-40 238.5t-214 99.5t-263 -99.5t-158.5 -238.5z" />
<glyph unicode="&#xa5;" horiz-adv-x="1630" d="M377 362q12 39 49 39h408l36 156q0 8 -8 31l-12 35h-369q-16 0 -24 12t-4 27q10 39 49 38h317l-217 572q-8 25 -16 35t-35 17t-78 7q-49 0 -49 29q0 39 41 39q4 0 20.5 -1t65.5 -3t129 -2q39 0 116.5 3t112.5 3q33 0 33 -29q0 -39 -49 -39q-104 0 -105 -43q0 -14 11 -35 l211 -553h55l430 488l16 20q2 4 5.5 9.5t7.5 9.5q14 16 22 32.5t10 24.5v8q0 35 -57 39q-33 2 -33 29q0 39 41 39q2 0 22.5 -1t64.5 -3t100 -2q49 0 82.5 1t45 2t20.5 2t16 1q10 0 19 -8.5t9 -20.5q0 -35 -43 -39q-139 -14 -262 -153l-422 -478h322q39 0 28 -38 q-12 -39 -49 -39h-370l-56 -64l-39 -158h410q16 0 24.5 -11t4.5 -28q-6 -39 -48 -38h-411l-29 -117q-25 -92 -24 -111q0 -29 112 -28q23 0 33 -1t19.5 -7.5t9.5 -20.5q0 -39 -41 -39q-2 0 -12.5 1t-29 2t-44 1t-66.5 1t-88 1h-119q-111 -6 -116 -6q-31 0 -31 29q0 27 13 33 t40 6q109 2 132.5 19t49.5 118l29 119h-405q-37 0 -31 38z" />
<glyph unicode="&#xa6;" horiz-adv-x="604" d="M145 -438l189 760q8 33 55 32q20 0 31.5 -8t7.5 -24l-188 -760q-20 -74 -66 -74q-49 0 -29 74zM430 702l191 760q16 74 65 74q45 0 29 -74l-191 -760q-8 -33 -55 -32q-20 0 -31.5 8t-7.5 24z" />
<glyph unicode="&#xa7;" horiz-adv-x="1091" d="M190 -59q8 35 40 60.5t67 25.5t54.5 -26t10.5 -60q-10 -35 -38.5 -59.5t-63.5 -26.5q6 -80 62.5 -130.5t142.5 -50.5q100 0 188 75t115 179q37 150 -150 244l-184 92q-113 59 -172 151.5t-31 211.5q20 82 87 146.5t159 100.5q-53 102 -22 222q37 150 171 255t285 105 q143 0 215 -110.5t33 -262.5q-8 -35 -40 -60.5t-66.5 -25.5t-54 26t-11.5 60q10 35 39 59.5t64 26.5q-6 80 -62.5 130.5t-142.5 50.5q-100 0 -188.5 -75t-114.5 -179q-37 -150 149 -244l184 -92q113 -59 172.5 -151.5t30.5 -211.5q-20 -82 -86.5 -147.5t-159.5 -102.5 q53 -98 23 -219q-37 -150 -171 -255t-286 -105q-143 0 -214.5 110.5t-33.5 262.5zM387 627q-35 -141 139 -232l185 -92q70 -37 120 -94q95 49 132 188q35 141 -140 232l-184 92q-74 39 -121 94q-94 -49 -131 -188z" />
<glyph unicode="&#xa8;" d="M575 1210q0 45 38 82t85 37q31 0 58.5 -20.5t27.5 -63.5q0 -49 -38.5 -85t-86.5 -36q-35 0 -59.5 23.5t-24.5 62.5zM954 1210q0 45 38 82t85 37q31 0 58.5 -20.5t27.5 -63.5q0 -49 -39 -85t-86 -36q-35 0 -59.5 23.5t-24.5 62.5z" />
<glyph unicode="&#xa9;" horiz-adv-x="1398" d="M0 700q0 289 205 494t495 205q289 0 494 -205t205 -494q0 -291 -205 -495.5t-494 -204.5q-291 0 -495.5 205t-204.5 495zM94 700q0 -252 177.5 -429t428.5 -177q250 0 427.5 177t177.5 429q0 250 -177.5 427.5t-427.5 177.5q-252 0 -429 -177.5t-177 -427.5zM309 598 q0 197 156 354.5t344 157.5q121 0 186 -98l74 86q10 12 21 12q16 0 16 -12q0 -8 -4 -17l-68 -272q-4 -16 -8 -20.5t-16 -4.5q-23 0 -23 17q4 29 4 59q0 92 -44 152.5t-130 60.5q-76 0 -151.5 -40t-133.5 -113q-63 -80 -92.5 -184.5t-29.5 -176.5q0 -117 62.5 -175t150.5 -58 q90 0 181 65.5t132 196.5q2 12 20 12q20 0 21 -16q0 -37 -45 -107q-53 -82 -139 -135t-183 -53q-129 0 -215 84t-86 225z" />
<glyph unicode="&#xaa;" horiz-adv-x="1042" d="M326 711q6 25 39 24h682q14 0 21 -7t5 -17q-8 -23 -39 -23h-682q-12 0 -20 7t-6 16zM387 1026q-8 154 115 285t274 131q104 0 162 -80q10 53 70 53q49 0 53 -41q0 -10 -6 -28l-101 -406q-6 -23 -2 -41q0 -63 52 -63q68 0 106 157q6 29 11 35t26 6q33 0 35 -18 q-18 -86 -52 -144q-45 -76 -129 -75q-59 0 -102 27.5t-57 68.5q-96 -96 -217 -96q-98 0 -166 63.5t-72 165.5zM514 967q4 -51 31.5 -91t83.5 -40q70 0 140.5 60t78.5 105l61 244l4 21q-2 18 -11 43.5t-42 59.5t-82 34q-104 0 -186 -133q-29 -49 -54.5 -150.5t-23.5 -152.5z " />
<glyph unicode="&#xab;" horiz-adv-x="1234" d="M406 477q-14 16 8 35q242 205 389 461q10 16 28 16h9q12 0 16 -9t0 -19q-119 -248 -305 -465q78 -221 72 -465q0 -12 -9.5 -21.5t-21.5 -9.5h-8q-18 0 -19 16q-23 260 -159 461zM743 477q-14 16 9 35q242 205 389 461q10 16 28 16h9q12 0 16 -9t0 -19 q-119 -248 -305 -465q78 -221 72 -465q0 -12 -9.5 -21.5t-21.5 -9.5h-8q-18 0 -19 16q-23 260 -160 461z" />
<glyph unicode="&#xac;" horiz-adv-x="1683" d="M348 729.5q4 20.5 21.5 33.5t38.5 13h1255q18 0 28.5 -13t6.5 -34l-109 -434q-4 -20 -21.5 -33.5t-37.5 -13.5q-18 0 -28.5 13t-6.5 34l96 387h-1208q-18 0 -28.5 13.5t-6.5 34z" />
<glyph unicode="&#xad;" horiz-adv-x="786" d="M180 410q0 16 17 65q4 20 14 24.5t43 4.5h422q57 0 57 -29q0 -10 -16 -67q-6 -20 -15.5 -24.5t-42.5 -4.5h-423q-16 0 -23.5 1t-17 3t-12.5 9t-3 18z" />
<glyph unicode="&#xae;" horiz-adv-x="1398" d="M0 700q0 289 205 494t495 205q289 0 494 -205t205 -494q0 -291 -205 -495.5t-494 -204.5q-291 0 -495.5 205t-204.5 495zM94 700q0 -252 177.5 -429t428.5 -177q250 0 427.5 177t177.5 429q0 250 -177.5 427.5t-427.5 177.5q-252 0 -429 -177.5t-177 -427.5zM330 340 q0 23 39 22q49 0 63 9.5t23 38.5l151 610q4 16 4 24q0 16 -61 17q-33 0 -33 16q0 23 33 23h311q109 0 177.5 -49.5t68.5 -120.5q0 -70 -65.5 -131.5t-174.5 -89.5q98 -37 99 -131q0 -2 -11 -105q-8 -43 -8 -78q0 -63 41 -63q61 0 90 96q4 10 5 13t6.5 5.5t13.5 2.5 q20 -1 20 -17q0 -27 -36.5 -79t-100.5 -52q-57 0 -101 28.5t-44 92.5q0 20 20 102q14 53 14 72q0 43 -29.5 71.5t-90.5 28.5h-138l-73 -290l-4 -27q0 -16 61 -17q33 0 33 -16q0 -23 -23 -22q-35 0 -63 4h-135q-41 -4 -64 -4q-18 0 -18 16zM625 729h129q104 0 170 47 q77 57 77 174q0 111 -163 111h-88q-20 0 -27.5 -2t-14 -9.5t-12.5 -27.5z" />
<glyph unicode="&#xaf;" d="M504 1219q0 20 9 30.5t19.5 12.5t32.5 2h611q59 0 59 -29q0 -20 -9 -30.5t-20.5 -12.5t-34.5 -2h-610q-20 0 -30.5 1t-18.5 7t-8 21z" />
<glyph unicode="&#xb0;" horiz-adv-x="841" d="M420 1118q29 117 132 199t220 82q115 0 176.5 -82t32.5 -199t-131 -198.5t-219 -81.5t-178.5 81.5t-32.5 198.5zM514 1118q-18 -78 23 -132t116 -54q78 0 147 54t87 132q20 78 -21 132.5t-118.5 54.5t-145 -54.5t-88.5 -132.5z" />
<glyph unicode="&#xb1;" horiz-adv-x="1683" d="M180 47q0 47 72 47h565l133 533h-540q-72 0 -72 47t72 47h565l141 571q16 55 51 56q20 0 33.5 -13.5t13.5 -34.5q0 -10 -8 -38l-135 -541h539q71 0 71 -47t-71 -47h-563l-134 -533h539q72 0 72 -47t-72 -47h-1200q-72 0 -72 47z" />
<glyph unicode="&#xb2;" horiz-adv-x="847" d="M287 616q-2 16 19.5 63.5t91 120t169.5 118.5q150 68 228.5 146.5t72.5 205.5q-2 72 -47 105.5t-104 33.5q-121 0 -205 -108.5t-80 -186.5q4 -41 35 -41q59 0 100 59.5t39 98.5q0 12 -12 37q-8 8 -8 16q-2 6 5 11t15 5q14 0 27.5 -23.5t13.5 -45.5q4 -51 -48 -122 t-132 -71q-43 0 -65.5 24.5t-24.5 59.5q-4 84 95 202t249 118q106 0 182 -57.5t80 -153.5q4 -98 -69.5 -172t-278.5 -164q-162 -66 -236 -170l29 2q39 0 150 -18q123 -18 149 -19q59 0 108.5 36t69.5 99q6 16 29 17q27 -1 29 -15q0 -12 -14.5 -45.5t-41 -75.5t-78 -74 t-110.5 -32q-66 0 -152 43q-92 49 -145 49t-78 -74q-6 -18 -29 -18q-29 0 -28 16z" />
<glyph unicode="&#xb3;" horiz-adv-x="784" d="M295 760q0 92 74 92q27 0 41 -12.5t14 -26.5q0 -57 -70 -61q6 -59 54.5 -88t109.5 -29q133 0 201.5 88t62.5 188q-4 104 -127 105h-49q-41 0 -43 16q0 25 39 25h41q72 0 124 23.5t76.5 54t38 68.5t16.5 60.5t1 34.5q-2 53 -42 82t-99 29q-109 0 -194 -64.5t-81 -134.5 q4 -45 41 -45q31 0 58.5 20.5t25.5 49.5q0 6 -14 35l-8 14q-2 6 5 11t15 5q14 0 27.5 -21.5t15.5 -43.5q2 -43 -37 -72.5t-90 -29.5q-43 0 -67.5 23.5t-26.5 57.5q-4 82 94.5 155t235.5 73q106 0 170.5 -49.5t68.5 -118.5q4 -72 -57 -141.5t-168 -100.5q119 -49 125 -160 q4 -113 -113.5 -192.5t-265.5 -79.5q-98 0 -158.5 46t-64.5 114z" />
<glyph unicode="&#xb4;" d="M700 1069q0 14 23 37l315 293q29 27 58 26q25 0 44 -16t19 -47q0 -41 -45 -72l-346 -250q-20 -14 -29 -14q-14 0 -26.5 15.5t-12.5 27.5z" />
<glyph unicode="&#xb6;" horiz-adv-x="1329" d="M356 944q51 203 247 340t417 137h528q20 0 32.5 -1t24 -12t5.5 -34q-12 -47 -86 -47h-109l-411 -1651q-20 -74 -66 -73q-49 0 -29 73l412 1651h-152l-411 -1651q-20 -74 -66 -73q-49 0 -28 73l196 791q-102 2 -200.5 31.5t-179.5 85t-116.5 149.5t-7.5 211z" />
<glyph unicode="&#xb7;" horiz-adv-x="1683" d="M903 678q0 55 43 95t94 40q39 0 67 -24.5t28 -67.5q0 -55 -43 -95t-95 -40q-39 0 -66.5 24.5t-27.5 67.5z" />
<glyph unicode="&#xb8;" horiz-adv-x="1009" d="M231 -362q0 29 58 28h26q287 0 287 119q0 63 -104 72q-37 0 -37 28q0 4 31 127q2 12 11 14.5t46 2.5h24q57 0 60 -19q0 -2 -7.5 -32.5t-17.5 -71.5q51 -8 93 -37t42 -82q0 -61 -44 -101t-124.5 -55.5t-131 -18.5t-126.5 -3q-55 0 -70.5 4t-15.5 25z" />
<glyph unicode="&#xb9;" horiz-adv-x="827" d="M344 639v4q0 23 43 23h14q90 0 114 11t32 48l141 569q-96 -51 -170 -51q-27 0 -26.5 18.5t24.5 22.5q152 12 260 139q14 18 27 19q25 0 24 -17l-4 -16l-174 -692q-4 -16 -4 -27q2 -18 45 -22l68 -2h14q41 -1 43 -17q0 -25 -31 -24q-18 0 -53 2t-53 2h-209l-98 -4 q-10 0 -17.5 5t-9.5 9z" />
<glyph unicode="&#xba;" horiz-adv-x="940" d="M328 711q4 25 39 24h575q14 0 22.5 -7t6.5 -17q-8 -23 -39 -23h-578q-14 0 -21 7t-5 16zM389 1038q-8 156 129 280t307 124q119 0 200 -65.5t87 -176.5q8 -154 -129 -278.5t-309 -124.5q-115 0 -197 64.5t-88 176.5zM520 987q4 -78 50 -114.5t104 -36.5q63 0 124.5 36.5 t100.5 96.5q43 63 63.5 148t18.5 134q-4 72 -48 112t-108 40q-53 0 -117.5 -33t-109.5 -104q-37 -55 -58.5 -139.5t-19.5 -139.5z" />
<glyph unicode="&#xbb;" horiz-adv-x="1234" d="M288 9q-5 9 1 22q117 246 305 465q-80 223 -74 465q0 10 10.5 19t20.5 9h8q16 0 21 -16q23 -264 159 -461q10 -17 -8 -35q-238 -197 -391 -461q-10 -16 -27 -16h-8q-12 0 -17 9zM626 9q-5 9 1 22q117 246 305 465q-80 223 -74 465q0 10 10.5 19t20.5 9h8q16 0 21 -16 q23 -264 159 -461q10 -17 -8 -35q-238 -197 -391 -461q-10 -16 -27 -16h-8q-12 0 -17 9z" />
<glyph unicode="&#xbc;" horiz-adv-x="1771" d="M346 643q-2 14 8.5 18.5t32.5 4.5h14q90 0 114 11t32 48l141 569q-96 -51 -168 -51q-29 0 -28 19q0 16 26 22q152 12 260 139q12 18 25 19q25 0 24 -17l-4 -16l-172 -692q-6 -25 -6 -27q0 -18 45 -22l68 -2h14q41 -1 41 -17q2 -25 -29 -24q-18 0 -53 2t-53 2h-209 l-100 -4q-10 0 -15.5 5t-5.5 9zM487 41q6 16 17 27l1227 1316q20 20 45 21q18 0 28 -13.5t6 -33.5q-2 -10 -14 -27l-1229 -1317q-20 -20 -43 -20q-20 0 -30.5 13t-6.5 34zM920 23q-2 16 59 47q39 20 125 100q225 211 332 600q16 47 59 47t45 -35q0 -14 -14.5 -65 t-65.5 -159.5t-125 -211.5q-100 -137 -262 -262h53q59 0 207 -43l41 160q10 43 15.5 59t18.5 26.5t38 10.5q43 0 45 -35q0 -8 -2 -18l-55 -221q8 -2 24 -3q10 0 96 15l23 6q10 0 17 -9.5t5 -13.5q2 -10 -25.5 -19t-61 -14t-56 -5t-35.5 2l-32 -138q-8 -35 -13.5 -48 t-19 -23.5t-35.5 -10.5q-43 0 -47 33q0 6 51 207l-94 27q-57 14 -119 14q-96 0 -123 -18q-35 -25 -47 -25q-8 0 -15 8t-7 15z" />
<glyph unicode="&#xbd;" horiz-adv-x="1771" d="M328 41q6 16 16 27l1227 1316q20 20 45 21q20 0 29.5 -13.5t5.5 -33.5q-2 -10 -15 -27l-1228 -1317q-16 -20 -43 -20q-20 0 -30.5 13t-6.5 34zM346 643q-2 14 8.5 18.5t32.5 4.5h14q90 0 114 11t32 48l141 569q-96 -51 -168 -51q-29 0 -28 19q0 16 26 22q152 12 260 139 q12 18 25 19q25 0 24 -17l-4 -16l-172 -692q-6 -25 -6 -27q0 -18 45 -22l68 -2h14q41 -1 41 -17q2 -25 -29 -24q-18 0 -53 2t-53 2h-209l-100 -4q-10 0 -15.5 5t-5.5 9zM970.5 -10.5q-1.5 16.5 20 63.5t91 121t169.5 119q150 68 230 145.5t73 204.5q-6 72 -50 105.5 t-101 33.5q-121 0 -205 -108.5t-80 -186.5q4 -41 35 -41q59 0 100 60.5t39 97.5q-4 31 -16 37q0 2 -2 6q-4 8 -4 12q0 16 22 17q12 0 25.5 -23.5t15.5 -46.5q2 -51 -49 -121.5t-131 -70.5q-45 0 -67.5 24.5t-22.5 57.5q-6 86 93 203.5t249 117.5q106 0 182 -57.5t80 -155.5 t-70.5 -172t-277.5 -164q-156 -57 -236 -168h27q41 0 152 -18q109 -16 149 -16q59 0 107.5 35.5t68.5 97.5q8 18 31 18q29 0 29 -16q2 -18 -21.5 -69.5t-84 -105t-138.5 -53.5q-61 0 -152 45q-94 47 -145 48q-35 0 -54.5 -27t-23.5 -47q-8 -18 -29 -19q-27 0 -28.5 16.5z " />
<glyph unicode="&#xbe;" horiz-adv-x="1771" d="M395 760q-6 92 74 92q27 0 41 -12.5t14 -26.5q0 -10 -3 -21.5t-20.5 -24.5t-45.5 -15q6 -59 54 -88t109 -29q133 0 201 88t62 188q-4 104 -127 105h-49q-41 0 -41 16q-2 16 7 20.5t31 4.5h41q70 0 122.5 23.5t77 53t39.5 69.5t17 60.5t2 34.5q-4 53 -45 82t-100 29 q-106 0 -191 -64.5t-81 -134.5q4 -45 39 -45q31 0 59.5 20.5t26.5 49.5q-4 18 -17 35l-6 14q-2 6 5 11t16 5q12 0 26.5 -21.5t16.5 -43.5q2 -43 -37 -72.5t-90 -29.5q-43 0 -69 23.5t-28 57.5q-4 82 95.5 155t236.5 73q106 0 172 -49t70 -119q2 -72 -61.5 -142.5 t-168.5 -99.5q121 -51 127 -160q6 -113 -112.5 -192.5t-266.5 -79.5q-98 0 -158.5 46t-64.5 114zM487 41q6 16 17 27l1227 1316q20 20 45 21q18 0 28 -13.5t6 -33.5q-2 -10 -14 -27l-1229 -1317q-20 -20 -43 -20q-20 0 -30.5 13t-6.5 34zM920 23q-2 16 59 47q39 20 125 100 q225 211 332 600q16 47 59 47t45 -35q0 -14 -14.5 -65t-65.5 -159.5t-125 -211.5q-100 -137 -262 -262h53q59 0 207 -43l41 160q10 43 15.5 59t18.5 26.5t38 10.5q43 0 45 -35q0 -8 -2 -18l-55 -221q8 -2 24 -3q10 0 96 15l23 6q10 0 17 -9.5t5 -13.5q2 -10 -25.5 -19 t-61 -14t-56 -5t-35.5 2l-32 -138q-8 -35 -13.5 -48t-19 -23.5t-35.5 -10.5q-43 0 -47 33q0 6 51 207l-94 27q-57 14 -119 14q-96 0 -123 -18q-35 -25 -47 -25q-8 0 -15 8t-7 15z" />
<glyph unicode="&#xbf;" d="M188 -178q0 68 22.5 127t63.5 106t68 69.5t68 53.5l254 189q33 25 48 38t31.5 42.5t16.5 64.5q0 63 -55 63q-41 0 -90.5 -34.5t-73.5 -104.5q-8 -25 -41 -24q-37 0 -37 24q0 51 71.5 124t174.5 73q70 0 102.5 -45t32.5 -103q0 -63 -29 -114.5t-59.5 -78t-96.5 -73.5 l-225 -168q-162 -119 -162 -256q0 -88 55.5 -133t131.5 -45q125 0 233.5 102.5t167.5 251.5q-66 8 -65 70q0 41 30.5 70.5t69.5 29.5q33 0 53.5 -19t20.5 -50q0 -33 -21.5 -91.5t-65.5 -131t-102.5 -137t-143.5 -108.5t-177 -44q-117 0 -194 70.5t-77 191.5zM672 891 q0 51 42 92t95 41q35 0 64.5 -22.5t29.5 -71.5q0 -53 -43 -93t-94 -40q-39 0 -66.5 25.5t-27.5 68.5z" />
<glyph unicode="&#xc0;" horiz-adv-x="1630" d="M131 29q0 16 7 24t14.5 10.5t23.5 4.5q137 12 234 174l702 1177q27 43 68 43q27 0 35 -10t12 -45l123 -1272q2 -29 7 -40t27.5 -19t71.5 -8q20 0 30.5 -1t18.5 -7.5t8 -20.5q0 -39 -38 -39q-4 0 -22.5 2t-67 3t-125.5 1q-39 0 -116 -3t-112 -3q-33 0 -33 29q0 27 13.5 33 t42.5 6q57 0 86.5 15t34 30.5t2.5 42.5l-31 317h-518l-103 -172q-82 -137 -82 -170q0 -55 76 -63q37 0 37 -29q0 -39 -41 -39l-20 2q-23 2 -67 3t-101 1q-61 0 -98 -1t-51.5 -3t-18.5 -2q-29 0 -29 29zM670 541h471l-66 676zM958 1782q10 33 39 54.5t60 21.5q12 0 22.5 -5.5 t14.5 -9.5l6 -4l246 -233q18 -19 12 -33q-4 -12 -21.5 -29.5t-33.5 -19.5q-12 0 -25 10l-293 186q-35 20 -27 62z" />
<glyph unicode="&#xc1;" horiz-adv-x="1630" d="M131 29q0 16 7 24t14.5 10.5t23.5 4.5q137 12 234 174l702 1177q27 43 68 43q27 0 35 -10t12 -45l123 -1272q2 -29 7 -40t27.5 -19t71.5 -8q20 0 30.5 -1t18.5 -7.5t8 -20.5q0 -39 -38 -39q-4 0 -22.5 2t-67 3t-125.5 1q-39 0 -116 -3t-112 -3q-33 0 -33 29q0 27 13.5 33 t42.5 6q57 0 86.5 15t34 30.5t2.5 42.5l-31 317h-518l-103 -172q-82 -137 -82 -170q0 -55 76 -63q37 0 37 -29q0 -39 -41 -39l-20 2q-23 2 -67 3t-101 1q-61 0 -98 -1t-51.5 -3t-18.5 -2q-29 0 -29 29zM670 541h471l-66 676zM1059 1573q2 14 28 33l363 233q25 18 51 19 q33 0 50.5 -21.5t11.5 -54.5q-8 -39 -58 -62l-385 -186q-18 -10 -30 -10q-14 2 -23.5 19.5t-7.5 29.5z" />
<glyph unicode="&#xc2;" horiz-adv-x="1630" d="M131 29q0 16 7 24t14.5 10.5t23.5 4.5q137 12 234 174l702 1177q27 43 68 43q27 0 35 -10t12 -45l123 -1272q2 -29 7 -40t27.5 -19t71.5 -8q20 0 30.5 -1t18.5 -7.5t8 -20.5q0 -39 -38 -39q-4 0 -22.5 2t-67 3t-125.5 1q-39 0 -116 -3t-112 -3q-33 0 -33 29q0 27 13.5 33 t42.5 6q57 0 86.5 15t34 30.5t2.5 42.5l-31 317h-518l-103 -172q-82 -137 -82 -170q0 -55 76 -63q37 0 37 -29q0 -39 -41 -39l-20 2q-23 2 -67 3t-101 1q-61 0 -98 -1t-51.5 -3t-18.5 -2q-29 0 -29 29zM670 541h471l-66 676zM908.5 1514.5q-5.5 17.5 11.5 27.5l319 201 q10 6 25 0l215 -201q8 -8 5 -18.5t-13.5 -16.5t-20.5 -2l-229 113l-287 -113q-20 -8 -25.5 9.5z" />
<glyph unicode="&#xc3;" horiz-adv-x="1630" d="M131 29q0 16 7 24t14.5 10.5t23.5 4.5q137 12 234 174l702 1177q27 43 68 43q27 0 35 -10t12 -45l123 -1272q2 -29 7 -40t27.5 -19t71.5 -8q20 0 30.5 -1t18.5 -7.5t8 -20.5q0 -39 -38 -39q-4 0 -22.5 2t-67 3t-125.5 1q-39 0 -116 -3t-112 -3q-33 0 -33 29q0 27 13.5 33 t42.5 6q57 0 86.5 15t34 30.5t2.5 42.5l-31 317h-518l-103 -172q-82 -137 -82 -170q0 -55 76 -63q37 0 37 -29q0 -39 -41 -39l-20 2q-23 2 -67 3t-101 1q-61 0 -98 -1t-51.5 -3t-18.5 -2q-29 0 -29 29zM670 541h471l-66 676zM864 1532q0 23 109 108q104 84 170 84 q41 0 65.5 -21.5t55 -68.5t61.5 -47q53 0 188 115q23 23 35 22q29 1 29 -28q0 -23 -111 -109q-96 -84 -170 -84q-61 0 -110 78q-25 39 -38 49t-34 10q-59 0 -194 -120q-16 -16 -29 -17q-27 0 -27 29z" />
<glyph unicode="&#xc4;" horiz-adv-x="1630" d="M131 29q0 16 7 24t14.5 10.5t23.5 4.5q137 12 234 174l702 1177q27 43 68 43q27 0 35 -10t12 -45l123 -1272q2 -29 7 -40t27.5 -19t71.5 -8q20 0 30.5 -1t18.5 -7.5t8 -20.5q0 -39 -38 -39q-4 0 -22.5 2t-67 3t-125.5 1q-39 0 -116 -3t-112 -3q-33 0 -33 29q0 27 13.5 33 t42.5 6q57 0 86.5 15t34 30.5t2.5 42.5l-31 317h-518l-103 -172q-82 -137 -82 -170q0 -55 76 -63q37 0 37 -29q0 -39 -41 -39l-20 2q-23 2 -67 3t-101 1q-61 0 -98 -1t-51.5 -3t-18.5 -2q-29 0 -29 29zM670 541h471l-66 676zM889 1589q0 45 38 82t85 37q31 0 58.5 -20.5 t27.5 -63.5q0 -49 -39 -85t-86 -36q-35 0 -59.5 23.5t-24.5 62.5zM1337 1589q0 45 38 82t85 37q31 0 58.5 -20.5t27.5 -63.5q0 -49 -39 -85t-86 -36q-35 0 -59.5 23.5t-24.5 62.5z" />
<glyph unicode="&#xc5;" horiz-adv-x="1630" d="M131 29q0 16 7 24t14.5 10.5t23.5 4.5q137 12 234 174l702 1177q27 43 68 43q27 0 35 -10t12 -45l123 -1272q2 -29 7 -40t27.5 -19t71.5 -8q20 0 30.5 -1t18.5 -7.5t8 -20.5q0 -39 -38 -39q-4 0 -22.5 2t-67 3t-125.5 1q-39 0 -116 -3t-112 -3q-33 0 -33 29q0 27 13.5 33 t42.5 6q57 0 86.5 15t34 30.5t2.5 42.5l-31 317h-518l-103 -172q-82 -137 -82 -170q0 -55 76 -63q37 0 37 -29q0 -39 -41 -39l-20 2q-23 2 -67 3t-101 1q-61 0 -98 -1t-51.5 -3t-18.5 -2q-29 0 -29 29zM670 541h471l-66 676zM1016 1606q0 84 77.5 150.5t178.5 66.5 q72 0 119 -39.5t47 -102.5q0 -86 -79 -152.5t-177 -66.5q-68 0 -117 37t-49 107zM1104 1599q0 -66 94 -65q45 0 77 16.5t45 34t21.5 45t8.5 36v20.5q0 66 -99 65q-74 0 -110.5 -44t-36.5 -108z" />
<glyph unicode="&#xc6;" horiz-adv-x="1937" d="M131 29q0 35 41 39q74 6 128 41.5t114 134.5l665 1085q-14 2 -49 2h-39q-57 0 -57 29q0 27 13.5 33t45.5 6h1004q39 0 49 -8.5t6 -49.5l-41 -358q-2 -20 -5 -29.5t-11 -14.5t-27 -5q-37 0 -37 29q0 23 4 38q8 78 9 127q0 109 -49.5 156t-206.5 47h-220q-51 0 -67.5 -10 t-28.5 -61l-137 -553h176q121 0 168 37.5t78 158.5q6 27 13 35t30 8q39 0 39 -28q0 -6 -6 -31l-111 -445q-8 -29 -16.5 -36t-28.5 -7q-39 0 -39 29q0 6 8 31l6 37q8 37 9 59q0 45 -28 64.5t-126 19.5h-190l-127 -512q-6 -23 -9 -55q18 -4 58 -4h219q78 0 137 10t107.5 37.5 t80 54.5t66.5 84t56.5 101t58.5 130q14 35 20 41t27 6q39 1 39 -28q0 -14 -11 -35l-186 -432q-12 -27 -21.5 -32t-41.5 -5h-871q-59 0 -59 29q0 39 49 39q70 0 90.5 13t34.5 66l123 492h-318l-260 -422q-33 -53 -33 -88q0 -53 76 -61q35 0 35 -29q0 -39 -39 -39l-22 2 q-20 2 -64.5 3t-101.5 1q-63 0 -100 -1t-50.5 -3t-19.5 -2q-10 0 -19.5 7t-9.5 22zM780 707h293l133 534q8 31 8 43t-2 18.5t-15 13.5t-40 7z" />
<glyph unicode="&#xc7;" horiz-adv-x="1572" d="M319 516q0 231 131.5 447.5t340 347.5t428 131t337.5 -178l134 155q18 23 36 23q29 0 29 -25q0 -10 -6 -28l-123 -494q-8 -29 -15 -35t-30 -6q-39 0 -39 27q0 2 2 17t4 41t2 48q0 168 -82 277.5t-235 109.5q-133 0 -271.5 -73.5t-240.5 -202.5q-115 -147 -168 -336 t-53 -316q0 -209 112.5 -315t272.5 -106q72 0 149.5 26.5t157.5 79.5t148.5 148.5t107.5 218.5q4 20 37 20q39 0 39 -26q0 -8 -7.5 -33t-27 -71t-47.5 -91q-94 -147 -251 -243.5t-329 -96.5h-14l-12 -53q51 -8 93 -37t42 -82q0 -61 -44 -101t-125 -55.5t-131 -18.5t-126 -3 q-55 0 -70.5 4t-15.5 24q0 29 57 29h27q287 0 286 119q0 63 -104 72q-37 0 -37 28l21 92q-174 47 -282 190.5t-108 350.5z" />
<glyph unicode="&#xc8;" horiz-adv-x="1488" d="M154 29q0 27 14 33t53 6q90 0 115.5 16t40.5 72l272 1091q8 29 8 45q0 23 -26.5 28t-85.5 5q-25 0 -34 1t-17.5 8t-8.5 22q0 25 13.5 31t46.5 6h999q57 0 58 -29l-3 -29l-40 -358q-2 -20 -5.5 -28.5t-11.5 -14.5t-24 -6q-39 0 -39 33q0 6 1 16t1 14q10 66 10 119 q0 123 -59.5 169t-229.5 46h-287q-51 0 -67.5 -10t-28.5 -64l-123 -493h185q123 0 172 36.5t80 151.5q6 25 9 33t11 13t25 5q39 0 39 -30q0 -2 -9 -37l-108 -436q-6 -27 -13.5 -35t-29.5 -8q-39 0 -39 28q0 10 6 29q14 57 14 96q0 45 -29.5 65.5t-129.5 20.5h-199l-141 -563 q-6 -23 -9 -55q18 -4 58 -4h291q98 0 171.5 17t123 46t93.5 86t72.5 113.5t71.5 154.5q16 35 22.5 41t26.5 6q39 1 39 -28q0 -14 -10 -35l-186 -432q-12 -27 -21.5 -32t-42.5 -5h-1028q-20 0 -30.5 1t-18.5 7t-8 21zM889 1782q10 33 38.5 54.5t59.5 21.5q12 0 22.5 -5.5 t14.5 -9.5l6 -4l246 -233q18 -19 12 -33q-4 -12 -21.5 -29.5t-33.5 -19.5q-12 0 -25 10l-293 186q-35 20 -26 62z" />
<glyph unicode="&#xc9;" horiz-adv-x="1488" d="M154 29q0 27 14 33t53 6q90 0 115.5 16t40.5 72l272 1091q8 29 8 45q0 23 -26.5 28t-85.5 5q-25 0 -34 1t-17.5 8t-8.5 22q0 25 13.5 31t46.5 6h999q57 0 58 -29l-3 -29l-40 -358q-2 -20 -5.5 -28.5t-11.5 -14.5t-24 -6q-39 0 -39 33q0 6 1 16t1 14q10 66 10 119 q0 123 -59.5 169t-229.5 46h-287q-51 0 -67.5 -10t-28.5 -64l-123 -493h185q123 0 172 36.5t80 151.5q6 25 9 33t11 13t25 5q39 0 39 -30q0 -2 -9 -37l-108 -436q-6 -27 -13.5 -35t-29.5 -8q-39 0 -39 28q0 10 6 29q14 57 14 96q0 45 -29.5 65.5t-129.5 20.5h-199l-141 -563 q-6 -23 -9 -55q18 -4 58 -4h291q98 0 171.5 17t123 46t93.5 86t72.5 113.5t71.5 154.5q16 35 22.5 41t26.5 6q39 1 39 -28q0 -14 -10 -35l-186 -432q-12 -27 -21.5 -32t-42.5 -5h-1028q-20 0 -30.5 1t-18.5 7t-8 21zM989 1573q2 14 29 33l362 233q25 18 52 19q33 0 50 -21.5 t11 -54.5q-8 -39 -57 -62l-385 -186q-18 -10 -31 -10q-14 2 -23.5 19.5t-7.5 29.5z" />
<glyph unicode="&#xca;" horiz-adv-x="1488" d="M154 29q0 27 14 33t53 6q90 0 115.5 16t40.5 72l272 1091q8 29 8 45q0 23 -26.5 28t-85.5 5q-25 0 -34 1t-17.5 8t-8.5 22q0 25 13.5 31t46.5 6h999q57 0 58 -29l-3 -29l-40 -358q-2 -20 -5.5 -28.5t-11.5 -14.5t-24 -6q-39 0 -39 33q0 6 1 16t1 14q10 66 10 119 q0 123 -59.5 169t-229.5 46h-287q-51 0 -67.5 -10t-28.5 -64l-123 -493h185q123 0 172 36.5t80 151.5q6 25 9 33t11 13t25 5q39 0 39 -30q0 -2 -9 -37l-108 -436q-6 -27 -13.5 -35t-29.5 -8q-39 0 -39 28q0 10 6 29q14 57 14 96q0 45 -29.5 65.5t-129.5 20.5h-199l-141 -563 q-6 -23 -9 -55q18 -4 58 -4h291q98 0 171.5 17t123 46t93.5 86t72.5 113.5t71.5 154.5q16 35 22.5 41t26.5 6q39 1 39 -28q0 -14 -10 -35l-186 -432q-12 -27 -21.5 -32t-42.5 -5h-1028q-20 0 -30.5 1t-18.5 7t-8 21zM839 1514.5q-5 17.5 11 27.5l319 201q10 6 25 0l215 -201 q8 -8 5 -18.5t-13 -16.5t-21 -2l-229 113l-287 -113q-20 -8 -25 9.5z" />
<glyph unicode="&#xcb;" horiz-adv-x="1488" d="M154 29q0 27 14 33t53 6q90 0 115.5 16t40.5 72l272 1091q8 29 8 45q0 23 -26.5 28t-85.5 5q-25 0 -34 1t-17.5 8t-8.5 22q0 25 13.5 31t46.5 6h999q57 0 58 -29l-3 -29l-40 -358q-2 -20 -5.5 -28.5t-11.5 -14.5t-24 -6q-39 0 -39 33q0 6 1 16t1 14q10 66 10 119 q0 123 -59.5 169t-229.5 46h-287q-51 0 -67.5 -10t-28.5 -64l-123 -493h185q123 0 172 36.5t80 151.5q6 25 9 33t11 13t25 5q39 0 39 -30q0 -2 -9 -37l-108 -436q-6 -27 -13.5 -35t-29.5 -8q-39 0 -39 28q0 10 6 29q14 57 14 96q0 45 -29.5 65.5t-129.5 20.5h-199l-141 -563 q-6 -23 -9 -55q18 -4 58 -4h291q98 0 171.5 17t123 46t93.5 86t72.5 113.5t71.5 154.5q16 35 22.5 41t26.5 6q39 1 39 -28q0 -14 -10 -35l-186 -432q-12 -27 -21.5 -32t-42.5 -5h-1028q-20 0 -30.5 1t-18.5 7t-8 21zM819 1589q0 45 38 82t85 37q31 0 58.5 -20.5t27.5 -63.5 q0 -49 -39 -85t-86 -36q-35 0 -59.5 23.5t-24.5 62.5zM1268 1589q0 45 37.5 82t85.5 37q31 0 58.5 -20.5t27.5 -63.5q0 -49 -39 -85t-86 -36q-35 0 -59.5 23.5t-24.5 62.5z" />
<glyph unicode="&#xcc;" horiz-adv-x="843" d="M143 29q0 27 14.5 33t47.5 6q102 0 129.5 15t42.5 75l276 1106q6 25 6 36q0 31 -120 31q-35 0 -48.5 4t-13.5 25q0 39 41 39q2 0 26.5 -1t84 -3t141.5 -2h131q74 6 117 6q12 0 20.5 -7.5t10.5 -15.5v-6q0 -27 -14.5 -33t-51.5 -6q-100 0 -127 -16.5t-39 -71.5l-274 -1098 q-8 -29 -8 -45q0 -33 120 -32q23 0 33 -1t19.5 -7.5t9.5 -20.5q0 -39 -43 -39q-45 0 -119 6h-262q-98 -6 -117 -6q-33 0 -33 29zM565 1782q10 33 39 54.5t60 21.5q12 0 22 -5.5t14 -9.5l7 -4l245 -233q19 -19 13 -33q-4 -12 -21.5 -29.5t-34.5 -19.5q-12 0 -24 10l-293 186 q-35 20 -27 62z" />
<glyph unicode="&#xcd;" horiz-adv-x="843" d="M143 29q0 27 14.5 33t47.5 6q102 0 129.5 15t42.5 75l276 1106q6 25 6 36q0 31 -120 31q-35 0 -48.5 4t-13.5 25q0 39 41 39q2 0 26.5 -1t84 -3t141.5 -2h131q74 6 117 6q12 0 20.5 -7.5t10.5 -15.5v-6q0 -27 -14.5 -33t-51.5 -6q-100 0 -127 -16.5t-39 -71.5l-274 -1098 q-8 -29 -8 -45q0 -33 120 -32q23 0 33 -1t19.5 -7.5t9.5 -20.5q0 -39 -43 -39q-45 0 -119 6h-262q-98 -6 -117 -6q-33 0 -33 29zM666 1573q2 14 28 33l363 233q25 18 51 19q33 0 50 -21.5t11 -54.5q-8 -39 -57 -62l-385 -186q-18 -10 -31 -10q-14 2 -23 19.5t-7 29.5z" />
<glyph unicode="&#xce;" horiz-adv-x="843" d="M143 29q0 27 14.5 33t47.5 6q102 0 129.5 15t42.5 75l276 1106q6 25 6 36q0 31 -120 31q-35 0 -48.5 4t-13.5 25q0 39 41 39q2 0 26.5 -1t84 -3t141.5 -2h131q74 6 117 6q12 0 20.5 -7.5t10.5 -15.5v-6q0 -27 -14.5 -33t-51.5 -6q-100 0 -127 -16.5t-39 -71.5l-274 -1098 q-8 -29 -8 -45q0 -33 120 -32q23 0 33 -1t19.5 -7.5t9.5 -20.5q0 -39 -43 -39q-45 0 -119 6h-262q-98 -6 -117 -6q-33 0 -33 29zM515.5 1514.5q-5.5 17.5 10.5 27.5l320 201q10 6 24 0l215 -201q8 -8 5 -18.5t-13 -16.5t-20 -2l-230 113l-286 -113q-20 -8 -25.5 9.5z" />
<glyph unicode="&#xcf;" horiz-adv-x="843" d="M143 29q0 27 14.5 33t47.5 6q102 0 129.5 15t42.5 75l276 1106q6 25 6 36q0 31 -120 31q-35 0 -48.5 4t-13.5 25q0 39 41 39q2 0 26.5 -1t84 -3t141.5 -2h131q74 6 117 6q12 0 20.5 -7.5t10.5 -15.5v-6q0 -27 -14.5 -33t-51.5 -6q-100 0 -127 -16.5t-39 -71.5l-274 -1098 q-8 -29 -8 -45q0 -33 120 -32q23 0 33 -1t19.5 -7.5t9.5 -20.5q0 -39 -43 -39q-45 0 -119 6h-262q-98 -6 -117 -6q-33 0 -33 29zM496 1589q0 45 37.5 82t84.5 37q31 0 59 -20.5t28 -63.5q0 -49 -39 -85t-86 -36q-35 0 -59.5 23.5t-24.5 62.5zM944 1589q0 45 38 82t85 37 q31 0 58.5 -20.5t27.5 -63.5q0 -49 -39 -85t-86 -36q-35 0 -59.5 23.5t-24.5 62.5z" />
<glyph unicode="&#xd0;" horiz-adv-x="1656" d="M156 29q0 27 14 33t53 6q90 0 116 16t40 72l127 512h-193q-12 0 -20 10t-4 22q8 33 41 33h192l131 522q8 29 9 45q0 31 -113 31q-23 0 -32 1t-18.5 7.5t-9.5 20.5q0 27 13.5 33t46.5 6h665q211 0 340 -143.5t129 -370.5q0 -168 -70.5 -332t-185 -285t-263 -194.5 t-298.5 -73.5h-653q-20 0 -30.5 1t-18.5 7t-8 21zM526 72q18 -4 58 -4h250q150 0 280.5 74.5t216.5 201.5t134 312t48 298q0 186 -102 281.5t-262 95.5h-236q-51 0 -67.5 -10t-28.5 -61l-131 -527h326q33 0 24.5 -32.5t-41.5 -32.5h-325l-135 -541q-6 -23 -9 -55z" />
<glyph unicode="&#xd1;" horiz-adv-x="1630" d="M154 29q0 39 39 39q100 4 140 41.5t58 111.5l277 1098q-43 12 -121 12q-23 0 -32 1t-18.5 7.5t-9.5 20.5q0 27 13.5 33t46.5 6h239q33 0 42.5 -5t21.5 -34l428 -1073l227 913q8 31 8 49q0 78 -120 82q-39 0 -39 29q0 39 41 39q2 0 21.5 -1t65.5 -3t115 -2q66 0 111 2 t64.5 3t21.5 1q31 0 31 -29q0 -35 -35 -39q-37 -2 -57.5 -6t-55.5 -17.5t-57.5 -45t-34.5 -82.5l-285 -1141q-6 -25 -13 -32t-31.5 -7t-30.5 6t-17 31l-477 1198l-258 -1034q-8 -25 -8 -49q0 -82 121 -84q37 0 37 -29q0 -39 -39 -39q-4 0 -22.5 2t-64.5 3t-116 1 q-33 0 -99.5 -3t-97 -3t-30.5 29zM864 1532q0 23 109 108q104 84 170 84q41 0 65.5 -21.5t55 -68.5t61.5 -47q53 0 188 115q23 23 35 22q29 1 29 -28q0 -23 -111 -109q-96 -84 -170 -84q-61 0 -110 78q-25 39 -38 49t-34 10q-59 0 -194 -120q-16 -16 -29 -17q-27 0 -27 29z " />
<glyph unicode="&#xd2;" horiz-adv-x="1683" d="M315 498q0 227 127 447t334 358.5t424 138.5q223 0 367.5 -150.5t144.5 -398.5q0 -176 -78 -350t-200.5 -301t-282.5 -206t-320 -79q-233 0 -374.5 153.5t-141.5 387.5zM504 453q0 -207 98 -317.5t246 -110.5q143 0 275 92t220.5 231t140.5 304.5t52 312.5 q0 199 -100.5 306t-251.5 107q-133 0 -271.5 -86t-232.5 -237q-96 -150 -136 -318t-40 -284zM985 1782q10 33 39 54.5t59 21.5q12 0 22.5 -5.5t16.5 -9.5l4 -4l246 -233q18 -19 12 -33q-4 -12 -21 -29.5t-34 -19.5q-12 0 -24 10l-293 186q-35 20 -27 62z" />
<glyph unicode="&#xd3;" horiz-adv-x="1683" d="M315 498q0 227 127 447t334 358.5t424 138.5q223 0 367.5 -150.5t144.5 -398.5q0 -176 -78 -350t-200.5 -301t-282.5 -206t-320 -79q-233 0 -374.5 153.5t-141.5 387.5zM504 453q0 -207 98 -317.5t246 -110.5q143 0 275 92t220.5 231t140.5 304.5t52 312.5 q0 199 -100.5 306t-251.5 107q-133 0 -271.5 -86t-232.5 -237q-96 -150 -136 -318t-40 -284zM1085 1573q2 14 29 33l363 233q25 18 51 19q33 0 50 -21.5t11 -54.5q-8 -39 -57 -62l-385 -186q-18 -10 -31 -10q-14 2 -23.5 19.5t-7.5 29.5z" />
<glyph unicode="&#xd4;" horiz-adv-x="1683" d="M315 498q0 227 127 447t334 358.5t424 138.5q223 0 367.5 -150.5t144.5 -398.5q0 -176 -78 -350t-200.5 -301t-282.5 -206t-320 -79q-233 0 -374.5 153.5t-141.5 387.5zM504 453q0 -207 98 -317.5t246 -110.5q143 0 275 92t220.5 231t140.5 304.5t52 312.5 q0 199 -100.5 306t-251.5 107q-133 0 -271.5 -86t-232.5 -237q-96 -150 -136 -318t-40 -284zM935.5 1514.5q-5.5 17.5 10.5 27.5l320 201q10 6 24 0l215 -201q8 -8 5 -18.5t-13 -16.5t-20 -2l-230 113l-286 -113q-20 -8 -25.5 9.5z" />
<glyph unicode="&#xd5;" horiz-adv-x="1683" d="M315 498q0 227 127 447t334 358.5t424 138.5q223 0 367.5 -150.5t144.5 -398.5q0 -176 -78 -350t-200.5 -301t-282.5 -206t-320 -79q-233 0 -374.5 153.5t-141.5 387.5zM504 453q0 -207 98 -317.5t246 -110.5q143 0 275 92t220.5 231t140.5 304.5t52 312.5 q0 199 -100.5 306t-251.5 107q-133 0 -271.5 -86t-232.5 -237q-96 -150 -136 -318t-40 -284zM891 1532q0 23 108 108q104 84 170 84q41 0 66 -21.5t55.5 -68.5t61.5 -47q53 0 188 115q23 23 35 22q29 1 29 -28q0 -23 -111 -109q-96 -84 -170 -84q-61 0 -111 78 q-25 39 -38 49t-33 10q-59 0 -195 -120q-16 -16 -28 -17q-27 0 -27 29z" />
<glyph unicode="&#xd6;" horiz-adv-x="1683" d="M315 498q0 227 127 447t334 358.5t424 138.5q223 0 367.5 -150.5t144.5 -398.5q0 -176 -78 -350t-200.5 -301t-282.5 -206t-320 -79q-233 0 -374.5 153.5t-141.5 387.5zM504 453q0 -207 98 -317.5t246 -110.5q143 0 275 92t220.5 231t140.5 304.5t52 312.5 q0 199 -100.5 306t-251.5 107q-133 0 -271.5 -86t-232.5 -237q-96 -150 -136 -318t-40 -284zM915 1589q0 45 38 82t85 37q31 0 58.5 -20.5t27.5 -63.5q0 -49 -38.5 -85t-86.5 -36q-35 0 -59.5 23.5t-24.5 62.5zM1364 1589q0 45 38 82t85 37q31 0 58.5 -20.5t27.5 -63.5 q0 -49 -39 -85t-86 -36q-35 0 -59.5 23.5t-24.5 62.5z" />
<glyph unicode="&#xd7;" horiz-adv-x="1683" d="M375 37q-37 27 28 76l500 399l-305 403q-29 39 4 66q43 35 76 8q8 -4 22 -26l287 -383l477 381q59 53 99 26q37 -27 -29 -76l-498 -397l305 -403q27 -41 -4 -66q-41 -33 -77 -8q-6 4 -21 26l-287 381l-479 -381q-59 -53 -98 -26z" />
<glyph unicode="&#xd8;" horiz-adv-x="1683" d="M254 -98q0 14 35 49l155 172q-129 156 -129 375q0 227 127 447t334 358.5t424 138.5q201 0 340 -123l170 186q23 25 35 25q10 0 21.5 -9.5t11.5 -23.5q0 -12 -25 -37l-168 -186q127 -160 127 -381q0 -176 -78 -350t-200.5 -301t-282.5 -206t-320 -79q-205 0 -339 121 l-162 -174q-29 -35 -43 -35q-10 0 -21.5 8t-11.5 25zM471 424q0 -125 45 -221l961 1048q-12 18 -36 42t-96.5 57.5t-158.5 33.5q-125 0 -250 -65.5t-215 -173.5q-133 -164 -191.5 -375t-58.5 -346zM553 145q117 -131 291 -131q117 0 247 61.5t244 205.5q106 137 165 343 t59 345q0 133 -48 225z" />
<glyph unicode="&#xd9;" horiz-adv-x="1630" d="M440 348q0 63 15 121l196 786q8 29 8 45q0 31 -112 31q-23 0 -32 1t-18.5 7.5t-9.5 20.5q0 39 41 39l119 -6h244q111 6 117 6q33 0 32 -29q0 -27 -14 -33t-53 -6q-90 0 -117 -16.5t-39 -71.5l-199 -797q-20 -86 -20 -155q0 -139 71.5 -202.5t168.5 -63.5q158 0 302 130 t189 314l182 731q8 31 9 49q0 78 -121 82q-39 0 -39 29q0 39 41 39q2 0 20.5 -1t64.5 -3t113 -2q39 0 72 1t54.5 2t37 1t22.5 1t9 1q31 0 31 -29q0 -35 -35 -39q-37 -2 -57.5 -6t-55.5 -17.5t-57.5 -45t-34.5 -82.5l-182 -736q-43 -180 -208 -333.5t-364 -153.5 q-162 0 -276.5 104.5t-114.5 286.5zM1008 1782q10 33 38.5 54.5t59.5 21.5q12 0 22.5 -5.5t14.5 -9.5l6 -4l246 -233q18 -19 12 -33q-4 -12 -21.5 -29.5t-33.5 -19.5q-12 0 -25 10l-293 186q-35 20 -26 62z" />
<glyph unicode="&#xda;" horiz-adv-x="1630" d="M440 348q0 63 15 121l196 786q8 29 8 45q0 31 -112 31q-23 0 -32 1t-18.5 7.5t-9.5 20.5q0 39 41 39l119 -6h244q111 6 117 6q33 0 32 -29q0 -27 -14 -33t-53 -6q-90 0 -117 -16.5t-39 -71.5l-199 -797q-20 -86 -20 -155q0 -139 71.5 -202.5t168.5 -63.5q158 0 302 130 t189 314l182 731q8 31 9 49q0 78 -121 82q-39 0 -39 29q0 39 41 39q2 0 20.5 -1t64.5 -3t113 -2q39 0 72 1t54.5 2t37 1t22.5 1t9 1q31 0 31 -29q0 -35 -35 -39q-37 -2 -57.5 -6t-55.5 -17.5t-57.5 -45t-34.5 -82.5l-182 -736q-43 -180 -208 -333.5t-364 -153.5 q-162 0 -276.5 104.5t-114.5 286.5zM1108 1573q2 14 29 33l362 233q25 18 51 19q33 0 50.5 -21.5t11.5 -54.5q-8 -39 -58 -62l-385 -186q-18 -10 -30 -10q-14 2 -23.5 19.5t-7.5 29.5z" />
<glyph unicode="&#xdb;" horiz-adv-x="1630" d="M440 348q0 63 15 121l196 786q8 29 8 45q0 31 -112 31q-23 0 -32 1t-18.5 7.5t-9.5 20.5q0 39 41 39l119 -6h244q111 6 117 6q33 0 32 -29q0 -27 -14 -33t-53 -6q-90 0 -117 -16.5t-39 -71.5l-199 -797q-20 -86 -20 -155q0 -139 71.5 -202.5t168.5 -63.5q158 0 302 130 t189 314l182 731q8 31 9 49q0 78 -121 82q-39 0 -39 29q0 39 41 39q2 0 20.5 -1t64.5 -3t113 -2q39 0 72 1t54.5 2t37 1t22.5 1t9 1q31 0 31 -29q0 -35 -35 -39q-37 -2 -57.5 -6t-55.5 -17.5t-57.5 -45t-34.5 -82.5l-182 -736q-43 -180 -208 -333.5t-364 -153.5 q-162 0 -276.5 104.5t-114.5 286.5zM957.5 1514.5q-5.5 17.5 11.5 27.5l319 201q10 6 25 0l215 -201q8 -8 5 -18.5t-13.5 -16.5t-20.5 -2l-229 113l-287 -113q-20 -8 -25.5 9.5z" />
<glyph unicode="&#xdc;" horiz-adv-x="1630" d="M440 348q0 63 15 121l196 786q8 29 8 45q0 31 -112 31q-23 0 -32 1t-18.5 7.5t-9.5 20.5q0 39 41 39l119 -6h244q111 6 117 6q33 0 32 -29q0 -27 -14 -33t-53 -6q-90 0 -117 -16.5t-39 -71.5l-199 -797q-20 -86 -20 -155q0 -139 71.5 -202.5t168.5 -63.5q158 0 302 130 t189 314l182 731q8 31 9 49q0 78 -121 82q-39 0 -39 29q0 39 41 39q2 0 20.5 -1t64.5 -3t113 -2q39 0 72 1t54.5 2t37 1t22.5 1t9 1q31 0 31 -29q0 -35 -35 -39q-37 -2 -57.5 -6t-55.5 -17.5t-57.5 -45t-34.5 -82.5l-182 -736q-43 -180 -208 -333.5t-364 -153.5 q-162 0 -276.5 104.5t-114.5 286.5zM938 1589q0 45 38 82t85 37q31 0 58.5 -20.5t27.5 -63.5q0 -49 -39 -85t-86 -36q-35 0 -59.5 23.5t-24.5 62.5zM1386 1589q0 45 38 82t85 37q31 0 58.5 -20.5t27.5 -63.5q0 -49 -38.5 -85t-86.5 -36q-35 0 -59.5 23.5t-24.5 62.5z" />
<glyph unicode="&#xdd;" horiz-adv-x="1630" d="M424 1360q0 39 41 39q4 0 20.5 -1t65.5 -3t129 -2q39 0 116.5 3t112.5 3q33 0 33 -29q0 -39 -49 -39q-104 0 -105 -43q0 -14 11 -35l227 -598l469 533l16 20q2 4 5.5 9.5t7.5 9.5q14 16 22 32.5t10 24.5v8q0 35 -57 39q-33 2 -33 29q0 39 41 39q2 0 22.5 -1t64.5 -3 t100 -2q49 0 82.5 1t45 2t20.5 2t16 1q10 0 19 -8.5t9 -20.5q0 -35 -43 -39q-139 -14 -262 -153l-547 -619l-88 -352q-25 -92 -24 -111q0 -29 112 -28q23 0 33 -1t19.5 -7.5t9.5 -20.5q0 -39 -41 -39q-2 0 -12.5 1t-29 2t-44 1t-66.5 1t-88 1h-119q-111 -6 -116 -6 q-31 0 -31 29q0 27 13 33t40 6q109 2 132.5 19t49.5 118q4 14 25.5 102t41 168t19.5 82q0 8 -8 31l-260 684q-8 25 -16 35t-35 17t-78 7q-49 0 -49 29zM1059 1573q2 14 28 33l363 233q25 18 51 19q33 0 50.5 -21.5t11.5 -54.5q-8 -39 -58 -62l-385 -186q-18 -10 -30 -10 q-14 2 -23.5 19.5t-7.5 29.5z" />
<glyph unicode="&#xde;" horiz-adv-x="1488" d="M143 29q0 27 14.5 33t47.5 6q102 0 129.5 15t42.5 75l276 1106q6 25 6 36q0 31 -120 31q-35 0 -48.5 4t-13.5 25q0 39 41 39q2 0 26.5 -1t84 -3t141.5 -2h131q74 6 117 6q12 0 20.5 -7.5t10.5 -15.5v-6q0 -27 -14.5 -33t-51.5 -6q-100 0 -127 -16.5t-39 -71.5l-41 -164 h334q178 0 284.5 -89t106.5 -220q0 -172 -176 -311.5t-391 -139.5h-348l-43 -174q-8 -29 -8 -45q0 -33 120 -32q23 0 33 -1t19.5 -7.5t9.5 -20.5q0 -39 -43 -39q-45 0 -119 6h-262q-98 -6 -117 -6q-33 0 -33 29zM598 385h289q207 0 321 121q51 55 80 154.5t29 160.5 q0 195 -273 195h-210q-51 0 -67.5 -10.5t-29.5 -61.5z" />
<glyph unicode="&#xdf;" horiz-adv-x="1179" d="M-41 -285q0 53 32 85t72 32q72 0 72 -70q0 -29 -19.5 -58.5t-62.5 -39.5q16 -25 56 -24q72 0 115.5 109.5t86.5 336.5l138 729h-134q-33 0 -45 4t-12 25q0 27 13.5 33t45.5 6h144l39 200q39 203 147.5 281t288.5 78q147 0 229 -67.5t82 -168.5q0 -72 -50 -176t-144 -201 q-96 -96 -96.5 -143t85.5 -139q101 -113 101 -211q0 -125 -116 -240.5t-267 -115.5q-90 0 -155.5 40.5t-65.5 114.5q0 51 26.5 74.5t55.5 23.5q8 0 18 -2t24.5 -16t14.5 -39q0 -53 -55 -72q37 -68 137 -67q66 0 118 63.5t73.5 127t21.5 98.5q0 61 -55 123q-72 82 -72 186 q0 63 20.5 108t75.5 95q55 51 72.5 76.5t42.5 89.5q51 141 51 213q0 18 -5 39.5t-19.5 54t-53.5 53t-94 20.5q-66 0 -115 -15t-77.5 -37.5t-49 -66.5t-30 -80t-21.5 -100l-174 -919q-57 -299 -127 -416q-16 -29 -42 -60.5t-81 -69.5t-113 -38q-63 0 -105 38t-42 95z" />
<glyph unicode="&#xe0;" d="M231 307q0 219 155 407.5t335 188.5q119 0 188 -115q6 39 32 57.5t52.5 18.5t44 -16.5t17.5 -40.5q0 -2 -8 -43l-144 -578q-6 -25 -6 -59q0 -90 57 -90q82 0 138 225q8 31 11 39t10 13t26 5q39 1 39 -26q-27 -123 -70 -205q-59 -109 -158 -108q-72 0 -121 39.5t-63 99.5 q-123 -139 -264 -139q-117 0 -194 91t-77 236zM381 223.5q0 -73.5 30.5 -130t96.5 -56.5q82 0 170 86t102 149l86 351l6 28q0 23 -9 62t-47 86t-95 47q-125 0 -229 -191q-37 -70 -74 -214t-37 -217.5zM645 1362q16 31 44 47t52 16q12 0 23.5 -6t15.5 -14l4 -6l170 -293 q8 -27 4 -37q-6 -12 -26.5 -27.5t-34.5 -15.5q-8 0 -20 14l-222 250q-29 31 -10 72z" />
<glyph unicode="&#xe1;" d="M231 307q0 219 155 407.5t335 188.5q119 0 188 -115q6 39 32 57.5t52.5 18.5t44 -16.5t17.5 -40.5q0 -2 -8 -43l-144 -578q-6 -25 -6 -59q0 -90 57 -90q82 0 138 225q8 31 11 39t10 13t26 5q39 1 39 -26q-27 -123 -70 -205q-59 -109 -158 -108q-72 0 -121 39.5t-63 99.5 q-123 -139 -264 -139q-117 0 -194 91t-77 236zM381 223.5q0 -73.5 30.5 -130t96.5 -56.5q82 0 170 86t102 149l86 351l6 28q0 23 -9 62t-47 86t-95 47q-125 0 -229 -191q-37 -70 -74 -214t-37 -217.5zM700 1069q0 14 23 37l315 293q29 27 58 26q25 0 44 -16t19 -47 q0 -41 -45 -72l-346 -250q-20 -14 -29 -14q-14 0 -26.5 15.5t-12.5 27.5z" />
<glyph unicode="&#xe2;" d="M231 307q0 219 155 407.5t335 188.5q119 0 188 -115q6 39 32 57.5t52.5 18.5t44 -16.5t17.5 -40.5q0 -2 -8 -43l-144 -578q-6 -25 -6 -59q0 -90 57 -90q82 0 138 225q8 31 11 39t10 13t26 5q39 1 39 -26q-27 -123 -70 -205q-59 -109 -158 -108q-72 0 -121 39.5t-63 99.5 q-123 -139 -264 -139q-117 0 -194 91t-77 236zM381 223.5q0 -73.5 30.5 -130t96.5 -56.5q82 0 170 86t102 149l86 351l6 28q0 23 -9 62t-47 86t-95 47q-125 0 -229 -191q-37 -70 -74 -214t-37 -217.5zM547 1063q-10 14 6 31l340 295q18 16 31 0l192 -295q12 -14 -6 -29.5 t-31 -3.5l-200 203l-304 -203q-18 -12 -28 2z" />
<glyph unicode="&#xe3;" d="M231 307q0 219 155 407.5t335 188.5q119 0 188 -115q6 39 32 57.5t52.5 18.5t44 -16.5t17.5 -40.5q0 -2 -8 -43l-144 -578q-6 -25 -6 -59q0 -90 57 -90q82 0 138 225q8 31 11 39t10 13t26 5q39 1 39 -26q-27 -123 -70 -205q-59 -109 -158 -108q-72 0 -121 39.5t-63 99.5 q-123 -139 -264 -139q-117 0 -194 91t-77 236zM381 223.5q0 -73.5 30.5 -130t96.5 -56.5q82 0 170 86t102 149l86 351l6 28q0 23 -9 62t-47 86t-95 47q-125 0 -229 -191q-37 -70 -74 -214t-37 -217.5zM514 1145q0 23 109 108q104 84 170 84q41 0 65.5 -21.5t55 -68.5 t61.5 -47q53 0 188 115q23 23 35 22q29 1 29 -28q0 -23 -111 -109q-96 -84 -170 -84q-61 0 -110 78q-25 39 -38.5 49t-33.5 10q-59 0 -195 -120q-16 -16 -28 -17q-27 0 -27 29z" />
<glyph unicode="&#xe4;" d="M231 307q0 219 155 407.5t335 188.5q119 0 188 -115q6 39 32 57.5t52.5 18.5t44 -16.5t17.5 -40.5q0 -2 -8 -43l-144 -578q-6 -25 -6 -59q0 -90 57 -90q82 0 138 225q8 31 11 39t10 13t26 5q39 1 39 -26q-27 -123 -70 -205q-59 -109 -158 -108q-72 0 -121 39.5t-63 99.5 q-123 -139 -264 -139q-117 0 -194 91t-77 236zM381 223.5q0 -73.5 30.5 -130t96.5 -56.5q82 0 170 86t102 149l86 351l6 28q0 23 -9 62t-47 86t-95 47q-125 0 -229 -191q-37 -70 -74 -214t-37 -217.5zM575 1210q0 45 38 82t85 37q31 0 58.5 -20.5t27.5 -63.5 q0 -49 -38.5 -85t-86.5 -36q-35 0 -59.5 23.5t-24.5 62.5zM954 1210q0 45 38 82t85 37q31 0 58.5 -20.5t27.5 -63.5q0 -49 -39 -85t-86 -36q-35 0 -59.5 23.5t-24.5 62.5z" />
<glyph unicode="&#xe5;" d="M231 307q0 219 155 407.5t335 188.5q119 0 188 -115q6 39 32 57.5t52.5 18.5t44 -16.5t17.5 -40.5q0 -2 -8 -43l-144 -578q-6 -25 -6 -59q0 -90 57 -90q82 0 138 225q8 31 11 39t10 13t26 5q39 1 39 -26q-27 -123 -70 -205q-59 -109 -158 -108q-72 0 -121 39.5t-63 99.5 q-123 -139 -264 -139q-117 0 -194 91t-77 236zM381 223.5q0 -73.5 30.5 -130t96.5 -56.5q82 0 170 86t102 149l86 351l6 28q0 23 -9 62t-47 86t-95 47q-125 0 -229 -191q-37 -70 -74 -214t-37 -217.5zM666 1223q0 84 77.5 150.5t178.5 66.5q72 0 118.5 -39.5t46.5 -102.5 q0 -86 -78.5 -152.5t-177.5 -66.5q-68 0 -116.5 37t-48.5 107zM754 1217q0 -66 94 -66q45 0 76.5 15.5t45 34t21.5 46t8 36v20.5q0 66 -98 65q-74 0 -110.5 -44t-36.5 -107z" />
<glyph unicode="&#xe6;" horiz-adv-x="1572" d="M199 213q0 76 56 179.5t153 182.5q193 162 528 275q18 53 68 53q55 0 55 -53q0 -20 -10 -51q145 104 290 104q98 0 163 -49t65 -129q0 -53 -22.5 -95t-56.5 -68.5t-84 -46t-91 -29t-94.5 -13.5t-77 -5t-54.5 -1h-122q-23 -104 -23 -174q0 -111 48 -183.5t138 -72.5 q74 0 165 43t169 143q16 25 31 25q10 0 25.5 -15.5t15.5 -27.5q0 -10 -18.5 -35t-56.5 -57.5t-85 -62.5t-113.5 -50t-134.5 -20q-162 0 -247 143q-14 -63 -22.5 -87t-25 -40t-45.5 -16q-25 0 -40 16t-15 37q0 8 17 73q-125 -127 -248 -126q-121 0 -211 62t-90 171zM358 166 q0 -45 19.5 -74t50.5 -39t46 -13t30 -3q98 0 188.5 103t108.5 175l117 467q-272 -106 -416 -284.5t-144 -331.5zM981 524h94q402 0 402 201q0 59 -41 90t-99 31q-100 0 -204.5 -81t-151.5 -241z" />
<glyph unicode="&#xe7;" horiz-adv-x="1009" d="M178 -362q0 29 58 28h26q287 0 287 119q0 63 -105 72q-37 0 -36 28q0 10 28 119q-94 35 -147 120t-53 202q0 223 169.5 400t372.5 177q106 0 173 -49t67 -127q0 -57 -32 -90t-73 -33q-37 0 -55 20.5t-18 47.5q0 82 88 100q-39 74 -150 74q-68 0 -147.5 -49t-143.5 -164 q-39 -70 -68.5 -186.5t-29.5 -192.5q0 -102 49 -159.5t131 -57.5q96 0 202 46t183 140q23 25 33 25t25.5 -15.5t15.5 -27.5q0 -10 -18.5 -35t-58.5 -56.5t-92 -61t-129 -51t-159 -21.5q-4 -25 -16 -74q51 -8 93 -37t42 -82q0 -61 -44 -101t-125 -55.5t-131 -18.5t-126 -3 q-55 0 -70.5 4t-15.5 25z" />
<glyph unicode="&#xe8;" horiz-adv-x="1009" d="M244 348q0 129 51 238.5t132 176t172 103.5t177 37q102 0 166 -50t64 -128q0 -61 -28 -108.5t-77 -74t-96 -43t-109.5 -23.5t-91.5 -8t-63 -1h-117q-29 -123 -29 -197q0 -90 40 -161.5t134 -71.5q96 0 202 46t183 140q23 25 33 25t25.5 -15.5t15.5 -27.5q0 -10 -18.5 -35 t-59.5 -57.5t-93 -62.5t-129 -50t-161 -20q-154 0 -238.5 108.5t-84.5 259.5zM440 524h84q391 0 391 201q0 57 -40.5 89t-98.5 32q-53 0 -112.5 -24.5t-126 -102.5t-97.5 -195zM590 1362q16 31 44 47t52 16q12 0 23.5 -6t15.5 -14l4 -6l170 -293q8 -27 4 -37 q-6 -12 -26.5 -27.5t-34.5 -15.5q-8 0 -21 14l-221 250q-29 31 -10 72z" />
<glyph unicode="&#xe9;" horiz-adv-x="1009" d="M244 348q0 129 51 238.5t132 176t172 103.5t177 37q102 0 166 -50t64 -128q0 -61 -28 -108.5t-77 -74t-96 -43t-109.5 -23.5t-91.5 -8t-63 -1h-117q-29 -123 -29 -197q0 -90 40 -161.5t134 -71.5q96 0 202 46t183 140q23 25 33 25t25.5 -15.5t15.5 -27.5q0 -10 -18.5 -35 t-59.5 -57.5t-93 -62.5t-129 -50t-161 -20q-154 0 -238.5 108.5t-84.5 259.5zM440 524h84q391 0 391 201q0 57 -40.5 89t-98.5 32q-53 0 -112.5 -24.5t-126 -102.5t-97.5 -195zM645 1069q0 14 23 37l315 293q29 27 57 26q25 0 44.5 -16t19.5 -47q0 -41 -45 -72l-346 -250 q-20 -14 -29 -14q-14 0 -26.5 15.5t-12.5 27.5z" />
<glyph unicode="&#xea;" horiz-adv-x="1009" d="M244 348q0 129 51 238.5t132 176t172 103.5t177 37q102 0 166 -50t64 -128q0 -61 -28 -108.5t-77 -74t-96 -43t-109.5 -23.5t-91.5 -8t-63 -1h-117q-29 -123 -29 -197q0 -90 40 -161.5t134 -71.5q96 0 202 46t183 140q23 25 33 25t25.5 -15.5t15.5 -27.5q0 -10 -18.5 -35 t-59.5 -57.5t-93 -62.5t-129 -50t-161 -20q-154 0 -238.5 108.5t-84.5 259.5zM440 524h84q391 0 391 201q0 57 -40.5 89t-98.5 32q-53 0 -112.5 -24.5t-126 -102.5t-97.5 -195zM491.5 1063q-10.5 14 6.5 31l340 295q18 16 30 0l193 -295q12 -14 -6.5 -29.5t-30.5 -3.5 l-201 203l-303 -203q-18 -12 -28.5 2z" />
<glyph unicode="&#xeb;" horiz-adv-x="1009" d="M244 348q0 129 51 238.5t132 176t172 103.5t177 37q102 0 166 -50t64 -128q0 -61 -28 -108.5t-77 -74t-96 -43t-109.5 -23.5t-91.5 -8t-63 -1h-117q-29 -123 -29 -197q0 -90 40 -161.5t134 -71.5q96 0 202 46t183 140q23 25 33 25t25.5 -15.5t15.5 -27.5q0 -10 -18.5 -35 t-59.5 -57.5t-93 -62.5t-129 -50t-161 -20q-154 0 -238.5 108.5t-84.5 259.5zM440 524h84q391 0 391 201q0 57 -40.5 89t-98.5 32q-53 0 -112.5 -24.5t-126 -102.5t-97.5 -195zM520 1210q0 45 38 82t85 37q31 0 58.5 -20.5t27.5 -63.5q0 -49 -39 -85t-86 -36 q-35 0 -59.5 23.5t-24.5 62.5zM899 1210q0 45 38 82t85 37q31 0 58.5 -20.5t27.5 -63.5q0 -49 -39 -85t-86 -36q-35 0 -59.5 23.5t-24.5 62.5z" />
<glyph unicode="&#xec;" horiz-adv-x="673" d="M164 590q0 25 26.5 93.5t95 144t156.5 75.5q70 0 120 -45t50 -125q0 -39 -24 -106l-135 -357q-45 -119 -45 -168q0 -66 45 -65q61 0 111 66.5t79 172.5q6 20 9 27.5t11.5 11.5t24.5 4q39 1 39 -26q0 -14 -17.5 -60.5t-48 -104.5t-88 -103t-124.5 -45q-76 0 -124.5 49 t-48.5 121q0 39 23 94l143 381q41 111 41 157q0 63 -45 64q-68 0 -116 -70.5t-76 -169.5q-6 -29 -12.5 -36t-30.5 -7q-39 0 -39 27zM420 1362q16 31 44 47t52 16q12 0 23.5 -6t15.5 -14l4 -6l170 -293q8 -27 4 -37q-6 -12 -26.5 -27.5t-34.5 -15.5q-8 0 -21 14l-221 250 q-29 31 -10 72z" />
<glyph unicode="&#xed;" horiz-adv-x="673" d="M164 590q0 25 26.5 93.5t95 144t156.5 75.5q70 0 120 -45t50 -125q0 -39 -24 -106l-135 -357q-45 -119 -45 -168q0 -66 45 -65q61 0 111 66.5t79 172.5q6 20 9 27.5t11.5 11.5t24.5 4q39 1 39 -26q0 -14 -17.5 -60.5t-48 -104.5t-88 -103t-124.5 -45q-76 0 -124.5 49 t-48.5 121q0 39 23 94l143 381q41 111 41 157q0 63 -45 64q-68 0 -116 -70.5t-76 -169.5q-6 -29 -12.5 -36t-30.5 -7q-39 0 -39 27zM475 1069q0 14 23 37l315 293q29 27 57 26q25 0 44.5 -16t19.5 -47q0 -41 -45 -72l-346 -250q-20 -14 -29 -14q-14 0 -26.5 15.5t-12.5 27.5 z" />
<glyph unicode="&#xee;" horiz-adv-x="673" d="M164 590q0 25 26.5 93.5t95 144t156.5 75.5q70 0 120 -45t50 -125q0 -39 -24 -106l-135 -357q-45 -119 -45 -168q0 -66 45 -65q61 0 111 66.5t79 172.5q6 20 9 27.5t11.5 11.5t24.5 4q39 1 39 -26q0 -14 -17.5 -60.5t-48 -104.5t-88 -103t-124.5 -45q-76 0 -124.5 49 t-48.5 121q0 39 23 94l143 381q41 111 41 157q0 63 -45 64q-68 0 -116 -70.5t-76 -169.5q-6 -29 -12.5 -36t-30.5 -7q-39 0 -39 27zM321.5 1063q-10.5 14 6.5 31l340 295q18 16 30 0l193 -295q12 -14 -6.5 -29.5t-30.5 -3.5l-201 203l-303 -203q-18 -12 -28.5 2z" />
<glyph unicode="&#xef;" horiz-adv-x="673" d="M164 590q0 25 26.5 93.5t95 144t156.5 75.5q70 0 120 -45t50 -125q0 -39 -24 -106l-135 -357q-45 -119 -45 -168q0 -66 45 -65q61 0 111 66.5t79 172.5q6 20 9 27.5t11.5 11.5t24.5 4q39 1 39 -26q0 -14 -17.5 -60.5t-48 -104.5t-88 -103t-124.5 -45q-76 0 -124.5 49 t-48.5 121q0 39 23 94l143 381q41 111 41 157q0 63 -45 64q-68 0 -116 -70.5t-76 -169.5q-6 -29 -12.5 -36t-30.5 -7q-39 0 -39 27zM350 1210q0 45 38 82t85 37q31 0 58.5 -20.5t27.5 -63.5q0 -49 -39 -85t-86 -36q-35 0 -59.5 23.5t-24.5 62.5zM729 1210q0 45 38 82t85 37 q31 0 58.5 -20.5t27.5 -63.5q0 -49 -39 -85t-86 -36q-35 0 -59.5 23.5t-24.5 62.5z" />
<glyph unicode="&#xf0;" d="M236 326q0 223 171 400t371 177q158 0 252 -112q57 295 14 434l-167 -111q-12 -8 -23 -8q-12 0 -19.5 9t-5.5 24q8 18 21 26l172 115q-51 90 -174 90q-33 0 -25 33t41 33q158 0 238 -105l186 125q12 8 23 8q14 0 21 -10t3 -22q-2 -14 -18 -27l-184 -123q47 -96 47 -266 q0 -232 -90 -582q-39 -156 -154 -276q-172 -178 -375 -178q-137 0 -231 92t-94 254zM389 254q0 -113 52.5 -165t121.5 -52q74 0 149.5 52t125.5 136q55 92 84.5 214t29.5 190q0 104 -49 160.5t-127 56.5q-63 0 -141 -47t-137 -148q-47 -80 -78 -200.5t-31 -196.5z" />
<glyph unicode="&#xf1;" horiz-adv-x="1234" d="M164 590q0 6 9 40t25.5 83t32.5 80q63 111 160 110q74 0 126 -46t63 -118q135 164 309 164q100 0 166.5 -50t66.5 -171q0 -117 -125 -449q-31 -88 -30 -131q0 -66 45 -65q63 0 113.5 66.5t78.5 172.5q6 20 9.5 27.5t11.5 11.5t24 4q39 1 39 -26q0 -16 -17.5 -62.5 t-49 -104.5t-89 -102t-124.5 -44q-76 0 -124 49t-48 121q0 39 26 106q125 330 125 455q0 135 -104.5 135t-200.5 -84q-43 -39 -85 -109.5t-52 -103.5l-33 -133q-12 -45 -33 -133l-45 -177q-12 -49 -19 -70.5t-26.5 -38.5t-50.5 -17q-27 0 -44.5 16t-17.5 41q0 4 7 31 l149 598q12 43 12 90q0 90 -57 90q-80 0 -137 -228q-10 -39 -16.5 -47t-30.5 -8q-39 0 -39 27zM569 1145q0 23 109 108q104 84 170 84q41 0 65.5 -21.5t55 -68.5t61.5 -47q53 0 189 115q23 23 34 22q29 1 29 -28q0 -23 -111 -109q-96 -84 -170 -84q-61 0 -110 78 q-25 39 -38 49t-34 10q-59 0 -194 -120q-16 -16 -29 -17q-27 0 -27 29z" />
<glyph unicode="&#xf2;" d="M236 326q0 223 171 400t371 177q141 0 234.5 -95t93.5 -251q0 -221 -170 -399t-375 -178q-137 0 -231 92t-94 254zM389 254q0 -113 52.5 -165t121.5 -52q74 0 149.5 52t125.5 136q55 92 84.5 214t29.5 190q0 104 -49 160.5t-127 56.5q-63 0 -141 -47t-137 -148 q-47 -80 -78 -200.5t-31 -196.5zM645 1362q16 31 44 47t52 16q12 0 23.5 -6t15.5 -14l4 -6l170 -293q8 -27 4 -37q-6 -12 -26.5 -27.5t-34.5 -15.5q-8 0 -20 14l-222 250q-29 31 -10 72z" />
<glyph unicode="&#xf3;" d="M236 326q0 223 171 400t371 177q141 0 234.5 -95t93.5 -251q0 -221 -170 -399t-375 -178q-137 0 -231 92t-94 254zM389 254q0 -113 52.5 -165t121.5 -52q74 0 149.5 52t125.5 136q55 92 84.5 214t29.5 190q0 104 -49 160.5t-127 56.5q-63 0 -141 -47t-137 -148 q-47 -80 -78 -200.5t-31 -196.5zM700 1069q0 14 23 37l315 293q29 27 58 26q25 0 44 -16t19 -47q0 -41 -45 -72l-346 -250q-20 -14 -29 -14q-14 0 -26.5 15.5t-12.5 27.5z" />
<glyph unicode="&#xf4;" d="M236 326q0 223 171 400t371 177q141 0 234.5 -95t93.5 -251q0 -221 -170 -399t-375 -178q-137 0 -231 92t-94 254zM389 254q0 -113 52.5 -165t121.5 -52q74 0 149.5 52t125.5 136q55 92 84.5 214t29.5 190q0 104 -49 160.5t-127 56.5q-63 0 -141 -47t-137 -148 q-47 -80 -78 -200.5t-31 -196.5zM547 1063q-10 14 6 31l340 295q18 16 31 0l192 -295q12 -14 -6 -29.5t-31 -3.5l-200 203l-304 -203q-18 -12 -28 2z" />
<glyph unicode="&#xf5;" d="M236 326q0 223 171 400t371 177q141 0 234.5 -95t93.5 -251q0 -221 -170 -399t-375 -178q-137 0 -231 92t-94 254zM389 254q0 -113 52.5 -165t121.5 -52q74 0 149.5 52t125.5 136q55 92 84.5 214t29.5 190q0 104 -49 160.5t-127 56.5q-63 0 -141 -47t-137 -148 q-47 -80 -78 -200.5t-31 -196.5zM514 1145q0 23 109 108q104 84 170 84q41 0 65.5 -21.5t55 -68.5t61.5 -47q53 0 188 115q23 23 35 22q29 1 29 -28q0 -23 -111 -109q-96 -84 -170 -84q-61 0 -110 78q-25 39 -38.5 49t-33.5 10q-59 0 -195 -120q-16 -16 -28 -17 q-27 0 -27 29z" />
<glyph unicode="&#xf6;" d="M236 326q0 223 171 400t371 177q141 0 234.5 -95t93.5 -251q0 -221 -170 -399t-375 -178q-137 0 -231 92t-94 254zM389 254q0 -113 52.5 -165t121.5 -52q74 0 149.5 52t125.5 136q55 92 84.5 214t29.5 190q0 104 -49 160.5t-127 56.5q-63 0 -141 -47t-137 -148 q-47 -80 -78 -200.5t-31 -196.5zM575 1210q0 45 38 82t85 37q31 0 58.5 -20.5t27.5 -63.5q0 -49 -38.5 -85t-86.5 -36q-35 0 -59.5 23.5t-24.5 62.5zM954 1210q0 45 38 82t85 37q31 0 58.5 -20.5t27.5 -63.5q0 -49 -39 -85t-86 -36q-35 0 -59.5 23.5t-24.5 62.5z" />
<glyph unicode="&#xf7;" horiz-adv-x="1683" d="M297 512q0 47 80 47h1184q81 0 81 -47t-71 -47h-1204q-70 0 -70 47zM766 143q0 55 43 95.5t94 40.5q39 0 66.5 -25t27.5 -68q0 -55 -43 -95t-94 -40q-39 0 -66.5 24.5t-27.5 67.5zM940 836q0 55 43 95t94 40q39 0 66.5 -24.5t27.5 -67.5q0 -55 -43 -95.5t-94 -40.5 q-39 0 -66.5 25t-27.5 68z" />
<glyph unicode="&#xf8;" d="M147 -198.5q0 12.5 35 59.5l160 202q-94 98 -94 256q0 221 166 404.5t366 183.5q100 0 176 -51l179 229q18 25 30 25q29 0 29 -29q0 -14 -18 -34l-177 -230q95 -96 95 -252q0 -223 -166 -406.5t-367 -183.5q-47 0 -91 12.5t-64 24.5l-21 15l-162 -209q-37 -45 -49 -45 q-10 0 -18.5 8t-8.5 20.5zM379 264q0 -72 22 -121l506 652q-53 55 -129 55q-70 0 -144.5 -47t-131.5 -131q-61 -94 -92 -216t-31 -192zM434 88q4 -6 17.5 -17.5t45 -24.5t66.5 -13q115 0 209 98t142.5 232.5t48.5 257.5q0 63 -23 120z" />
<glyph unicode="&#xf9;" horiz-adv-x="1179" d="M164 590q0 14 17.5 60t48 105.5t89 103.5t125.5 44q70 0 120 -45t50 -125q0 -41 -24 -102q-117 -317 -117 -434q0 -160 121 -160q88 0 154.5 73.5t78.5 127.5l140 563q18 82 86 82q61 0 61 -60q0 -10 -8 -39l-148 -598q-6 -25 -6 -59q0 -90 58 -90q82 0 137 225 q8 31 11 39t10.5 13t25.5 5q39 1 39 -26q-27 -123 -70 -205q-59 -109 -157 -108q-53 0 -105.5 28.5t-73.5 95.5q-109 -125 -241 -124q-102 0 -176 58t-74 187q0 53 20.5 133t36 124t58.5 163q35 88 34 137q0 63 -45 64q-63 0 -113.5 -67.5t-80.5 -172.5q-6 -29 -12.5 -36 t-30.5 -7q-39 0 -39 27zM674 1362q16 31 43.5 47t52.5 16q12 0 23.5 -6t15.5 -14l4 -6l170 -293q8 -27 4 -37q-6 -12 -26.5 -27.5t-34.5 -15.5q-8 0 -21 14l-221 250q-29 31 -10 72z" />
<glyph unicode="&#xfa;" horiz-adv-x="1179" d="M164 590q0 14 17.5 60t48 105.5t89 103.5t125.5 44q70 0 120 -45t50 -125q0 -41 -24 -102q-117 -317 -117 -434q0 -160 121 -160q88 0 154.5 73.5t78.5 127.5l140 563q18 82 86 82q61 0 61 -60q0 -10 -8 -39l-148 -598q-6 -25 -6 -59q0 -90 58 -90q82 0 137 225 q8 31 11 39t10.5 13t25.5 5q39 1 39 -26q-27 -123 -70 -205q-59 -109 -157 -108q-53 0 -105.5 28.5t-73.5 95.5q-109 -125 -241 -124q-102 0 -176 58t-74 187q0 53 20.5 133t36 124t58.5 163q35 88 34 137q0 63 -45 64q-63 0 -113.5 -67.5t-80.5 -172.5q-6 -29 -12.5 -36 t-30.5 -7q-39 0 -39 27zM729 1069q0 14 23 37l315 293q29 27 57 26q25 0 44.5 -16t19.5 -47q0 -41 -45 -72l-346 -250q-20 -14 -29 -14q-14 0 -26.5 15.5t-12.5 27.5z" />
<glyph unicode="&#xfb;" horiz-adv-x="1179" d="M164 590q0 14 17.5 60t48 105.5t89 103.5t125.5 44q70 0 120 -45t50 -125q0 -41 -24 -102q-117 -317 -117 -434q0 -160 121 -160q88 0 154.5 73.5t78.5 127.5l140 563q18 82 86 82q61 0 61 -60q0 -10 -8 -39l-148 -598q-6 -25 -6 -59q0 -90 58 -90q82 0 137 225 q8 31 11 39t10.5 13t25.5 5q39 1 39 -26q-27 -123 -70 -205q-59 -109 -157 -108q-53 0 -105.5 28.5t-73.5 95.5q-109 -125 -241 -124q-102 0 -176 58t-74 187q0 53 20.5 133t36 124t58.5 163q35 88 34 137q0 63 -45 64q-63 0 -113.5 -67.5t-80.5 -172.5q-6 -29 -12.5 -36 t-30.5 -7q-39 0 -39 27zM575.5 1063q-10.5 14 6.5 31l340 295q18 16 30 0l193 -295q12 -14 -6.5 -29.5t-30.5 -3.5l-201 203l-303 -203q-18 -12 -28.5 2z" />
<glyph unicode="&#xfc;" horiz-adv-x="1179" d="M164 590q0 14 17.5 60t48 105.5t89 103.5t125.5 44q70 0 120 -45t50 -125q0 -41 -24 -102q-117 -317 -117 -434q0 -160 121 -160q88 0 154.5 73.5t78.5 127.5l140 563q18 82 86 82q61 0 61 -60q0 -10 -8 -39l-148 -598q-6 -25 -6 -59q0 -90 58 -90q82 0 137 225 q8 31 11 39t10.5 13t25.5 5q39 1 39 -26q-27 -123 -70 -205q-59 -109 -157 -108q-53 0 -105.5 28.5t-73.5 95.5q-109 -125 -241 -124q-102 0 -176 58t-74 187q0 53 20.5 133t36 124t58.5 163q35 88 34 137q0 63 -45 64q-63 0 -113.5 -67.5t-80.5 -172.5q-6 -29 -12.5 -36 t-30.5 -7q-39 0 -39 27zM604 1210q0 45 38 82t85 37q31 0 58.5 -20.5t27.5 -63.5q0 -49 -39 -85t-86 -36q-35 0 -59.5 23.5t-24.5 62.5zM983 1210q0 45 38 82t85 37q31 0 58.5 -20.5t27.5 -63.5q0 -49 -39 -85t-86 -36q-35 0 -59.5 23.5t-24.5 62.5z" />
<glyph unicode="&#xfd;" horiz-adv-x="1067" d="M164 590q0 14 17.5 60t48 105.5t89 103.5t125.5 44q70 0 120 -45t50 -125q0 -41 -24 -102q-117 -317 -117 -434q0 -160 121 -160q88 0 154.5 73.5t78.5 127.5l140 563q18 82 86 82q27 0 44 -15.5t17 -44.5l-8 -39l-201 -802q-39 -150 -174 -275t-297 -125 q-92 0 -151.5 50.5t-59.5 127.5q0 68 35 96.5t69.5 28.5t54 -19.5t19.5 -47.5q0 -35 -25.5 -64.5t-66.5 -38.5q33 -76 127 -75q119 0 221 129q82 106 123 286q-86 -76 -194 -75q-102 0 -176 58t-74 187q0 53 20.5 133t36 124t58.5 163q35 88 34 137q0 63 -45 64 q-63 0 -113.5 -67.5t-80.5 -172.5q-6 -29 -12.5 -36t-30.5 -7q-39 0 -39 27zM672 1069q0 14 22 37l316 293q29 27 57 26q25 0 44 -16t19 -47q0 -41 -45 -72l-346 -250q-20 -14 -28 -14q-14 0 -26.5 15.5t-12.5 27.5z" />
<glyph unicode="&#xfe;" horiz-adv-x="1009" d="M-63 -369q0 39 49 39q57 0 75.5 13.5t30.5 64.5l174 709l201 798q0 4 2 14.5t4 18.5t2 12q0 12 -3 17.5t-25.5 9.5t-69.5 4q-53 0 -53 29q0 16 8 25.5t16 11.5t27 4l213 18q55 4 55 -26q0 -6 -6 -31l-141 -563q123 104 229 104q111 0 190.5 -86t79.5 -242 q0 -225 -145 -410t-340 -185q-123 0 -188 114l-74 -297q-23 -90 -23 -98q0 -18 23.5 -23.5t77.5 -5.5q51 0 51 -28q0 -39 -39 -39q-4 0 -23.5 2t-64.5 3t-109 1q-66 0 -104.5 -1t-53 -3t-18.5 -2q-29 0 -28 28zM356 231q0 -12 6.5 -37.5t20.5 -63.5t48 -65.5t79 -27.5 q59 0 125 54.5t113 152.5q33 70 66.5 203t33.5 210q0 96 -37 142.5t-88 46.5q-113 0 -234 -158q-31 -43 -38 -80l-89 -350q0 -4 -3 -13t-3 -14z" />
<glyph unicode="&#xff;" horiz-adv-x="1067" d="M164 590q0 14 17.5 60t48 105.5t89 103.5t125.5 44q70 0 120 -45t50 -125q0 -41 -24 -102q-117 -317 -117 -434q0 -160 121 -160q88 0 154.5 73.5t78.5 127.5l140 563q18 82 86 82q27 0 44 -15.5t17 -44.5l-8 -39l-201 -802q-39 -150 -174 -275t-297 -125 q-92 0 -151.5 50.5t-59.5 127.5q0 68 35 96.5t69.5 28.5t54 -19.5t19.5 -47.5q0 -35 -25.5 -64.5t-66.5 -38.5q33 -76 127 -75q119 0 221 129q82 106 123 286q-86 -76 -194 -75q-102 0 -176 58t-74 187q0 53 20.5 133t36 124t58.5 163q35 88 34 137q0 63 -45 64 q-63 0 -113.5 -67.5t-80.5 -172.5q-6 -29 -12.5 -36t-30.5 -7q-39 0 -39 27zM547 1210q0 45 38 82t85 37q31 0 58.5 -20.5t27.5 -63.5q0 -49 -39 -85t-86 -36q-35 0 -59.5 23.5t-24.5 62.5zM926 1210q0 45 37.5 82t85.5 37q31 0 58.5 -20.5t27.5 -63.5q0 -49 -39 -85 t-86 -36q-35 0 -59.5 23.5t-24.5 62.5z" />
<glyph unicode="&#x152;" horiz-adv-x="2162" d="M344 498q0 229 128 449t334 357.5t421 137.5q59 0 162 -25q80 -18 141 -18h692q39 0 49 -8.5t6 -49.5l-41 -358q-2 -20 -5 -29.5t-11 -14.5t-27 -5q-37 0 -36 29q0 16 2 20q10 88 10 143q0 113 -53.5 159t-208.5 46h-250q-51 0 -67.5 -10t-28.5 -61l-125 -500h219 q129 0 181 37t83 151q10 35 16.5 43t28.5 8q39 0 39 -28q0 -14 -4 -27l-113 -450q-6 -25 -13 -33t-30 -8q-39 0 -39 30q0 2 2 11.5t2 13.5q16 33 17 94q0 49 -34 69.5t-140 20.5h-232l-141 -565q-6 -23 -8 -55q18 -4 57 -4h246q96 0 165.5 18t117 45t90.5 86t70.5 113.5 t70.5 154.5q16 35 22.5 41t26.5 6q39 1 39 -28q0 -14 -10 -35l-187 -432q-12 -27 -21 -32t-42 -5h-735q-68 0 -162 -20q-109 -23 -164 -23q-219 0 -364.5 150.5t-145.5 390.5zM532 481q0 -203 92.5 -335t252.5 -132q129 0 194.5 74t120.5 299l166 668q27 102 26 192 q0 29 -3 45.5t-17 42t-51 37.5t-96 12q-160 0 -319 -123.5t-262.5 -335.5t-103.5 -444z" />
<glyph unicode="&#x153;" horiz-adv-x="1572" d="M231 305q0 223 155 412.5t339 189.5q74 0 138.5 -43t99.5 -139q164 178 376 178q98 0 163 -49t65 -129q0 -72 -41 -123t-93.5 -76.5t-128 -40t-119.5 -16.5t-93 -2h-119q-25 -106 -25 -184q0 -109 46 -177.5t134 -68.5q74 0 165 43t169 143q16 25 31 25q10 0 25.5 -15.5 t15.5 -27.5q0 -10 -18.5 -35t-56.5 -57.5t-85 -62.5t-113.5 -50t-134.5 -20q-201 0 -280 200q-162 -205 -342 -205q-119 0 -196 91.5t-77 238.5zM381 221q0 -76 31.5 -132t95.5 -56q98 0 182 111.5t125 250.5t41 252q0 111 -41 157t-92 46q-61 0 -128 -57.5t-114 -157.5 q-35 -74 -67.5 -208t-32.5 -206zM989 524h92q396 0 396 201q0 59 -41 90t-99 31q-55 0 -116.5 -25.5t-130 -102.5t-101.5 -194z" />
<glyph unicode="&#x178;" horiz-adv-x="1630" d="M424 1360q0 39 41 39q4 0 20.5 -1t65.5 -3t129 -2q39 0 116.5 3t112.5 3q33 0 33 -29q0 -39 -49 -39q-104 0 -105 -43q0 -14 11 -35l227 -598l469 533l16 20q2 4 5.5 9.5t7.5 9.5q14 16 22 32.5t10 24.5v8q0 35 -57 39q-33 2 -33 29q0 39 41 39q2 0 22.5 -1t64.5 -3 t100 -2q49 0 82.5 1t45 2t20.5 2t16 1q10 0 19 -8.5t9 -20.5q0 -35 -43 -39q-139 -14 -262 -153l-547 -619l-88 -352q-25 -92 -24 -111q0 -29 112 -28q23 0 33 -1t19.5 -7.5t9.5 -20.5q0 -39 -41 -39q-2 0 -12.5 1t-29 2t-44 1t-66.5 1t-88 1h-119q-111 -6 -116 -6 q-31 0 -31 29q0 27 13 33t40 6q109 2 132.5 19t49.5 118q4 14 25.5 102t41 168t19.5 82q0 8 -8 31l-260 684q-8 25 -16 35t-35 17t-78 7q-49 0 -49 29zM889 1589q0 45 38 82t85 37q31 0 58.5 -20.5t27.5 -63.5q0 -49 -39 -85t-86 -36q-35 0 -59.5 23.5t-24.5 62.5z M1337 1589q0 45 38 82t85 37q31 0 58.5 -20.5t27.5 -63.5q0 -49 -39 -85t-86 -36q-35 0 -59.5 23.5t-24.5 62.5z" />
<glyph unicode="&#x2c6;" d="M547 1063q-10 14 6 31l340 295q18 16 31 0l192 -295q12 -14 -6 -29.5t-31 -3.5l-200 203l-304 -203q-18 -12 -28 2z" />
<glyph unicode="&#x2dc;" d="M514 1145q0 23 109 108q104 84 170 84q41 0 65.5 -21.5t55 -68.5t61.5 -47q53 0 188 115q23 23 35 22q29 1 29 -28q0 -23 -111 -109q-96 -84 -170 -84q-61 0 -110 78q-25 39 -38.5 49t-33.5 10q-59 0 -195 -120q-16 -16 -28 -17q-27 0 -27 29z" />
<glyph unicode="&#x2000;" horiz-adv-x="929" />
<glyph unicode="&#x2001;" horiz-adv-x="1858" />
<glyph unicode="&#x2002;" horiz-adv-x="929" />
<glyph unicode="&#x2003;" horiz-adv-x="1858" />
<glyph unicode="&#x2004;" horiz-adv-x="619" />
<glyph unicode="&#x2005;" horiz-adv-x="464" />
<glyph unicode="&#x2006;" horiz-adv-x="309" />
<glyph unicode="&#x2007;" horiz-adv-x="309" />
<glyph unicode="&#x2008;" horiz-adv-x="232" />
<glyph unicode="&#x2009;" horiz-adv-x="371" />
<glyph unicode="&#x200a;" horiz-adv-x="103" />
<glyph unicode="&#x2010;" horiz-adv-x="786" d="M180 410q0 16 17 65q4 20 14 24.5t43 4.5h422q57 0 57 -29q0 -10 -16 -67q-6 -20 -15.5 -24.5t-42.5 -4.5h-423q-16 0 -23.5 1t-17 3t-12.5 9t-3 18z" />
<glyph unicode="&#x2011;" horiz-adv-x="786" d="M180 410q0 16 17 65q4 20 14 24.5t43 4.5h422q57 0 57 -29q0 -10 -16 -67q-6 -20 -15.5 -24.5t-42.5 -4.5h-423q-16 0 -23.5 1t-17 3t-12.5 9t-3 18z" />
<glyph unicode="&#x2012;" horiz-adv-x="786" d="M180 410q0 16 17 65q4 20 14 24.5t43 4.5h422q57 0 57 -29q0 -10 -16 -67q-6 -20 -15.5 -24.5t-42.5 -4.5h-423q-16 0 -23.5 1t-17 3t-12.5 9t-3 18z" />
<glyph unicode="&#x2013;" d="M193 544.5q0 28.5 57 28.5h893q57 0 57 -28.5t-57 -28.5h-893q-57 0 -57 28.5z" />
<glyph unicode="&#x2014;" horiz-adv-x="2246" d="M248 544.5q0 28.5 57 28.5h1905q57 0 57 -28.5t-57 -28.5h-1905q-57 0 -57 28.5z" />
<glyph unicode="&#x2018;" horiz-adv-x="673" d="M434 932q0 111 68.5 231.5t139.5 189t95 68.5q12 0 20.5 -9t8.5 -21q0 -10 -21 -29q-195 -150 -245 -367q37 29 84 29q49 0 72.5 -26.5t23.5 -63.5q0 -49 -39 -93t-100.5 -44t-84 43t-22.5 92z" />
<glyph unicode="&#x2019;" horiz-adv-x="673" d="M459 827q0 10 24 33q195 154 242 363q-39 -29 -84 -29q-47 0 -71.5 26.5t-24.5 63.5q0 51 40 94t97 43q106 0 106 -135q0 -88 -41.5 -182t-96 -158.5t-101.5 -106.5t-62 -42q-29 0 -28 30z" />
<glyph unicode="&#x201a;" horiz-adv-x="673" d="M147 -367q0 10 25 33q195 154 242 363q-39 -29 -84 -29q-47 0 -72 26.5t-25 63.5q0 51 40 94t98 43q106 0 106 -135q0 -88 -42 -182t-96 -158.5t-101.5 -106.5t-61.5 -42q-29 0 -29 30z" />
<glyph unicode="&#x201c;" horiz-adv-x="1067" d="M434 932q0 111 68.5 231.5t139.5 189t95 68.5q12 0 20.5 -9t8.5 -21q0 -10 -21 -29q-195 -150 -245 -367q37 29 84 29q49 0 72.5 -26.5t23.5 -63.5q0 -49 -39 -93t-100.5 -44t-84 43t-22.5 92zM829 932q0 111 69 231.5t139.5 189t95.5 68.5q12 0 20 -9t8 -21 q0 -10 -20 -29q-195 -150 -246 -367q37 29 84 29q49 0 72.5 -26.5t23.5 -63.5q0 -49 -39 -93t-100.5 -44t-84 43t-22.5 92z" />
<glyph unicode="&#x201d;" horiz-adv-x="1067" d="M463 827q0 10 24 33q195 154 242 363q-39 -29 -84 -29q-47 0 -71.5 26.5t-24.5 63.5q0 51 40 94t97 43q107 0 107 -135q0 -88 -42 -182t-96.5 -158.5t-101.5 -106.5t-61 -42q-29 0 -29 30zM858 827q0 10 25 33q195 154 241 363q-39 -29 -84 -29q-47 0 -71.5 26.5 t-24.5 63.5q0 51 40 94t97 43q107 0 107 -135q0 -88 -42 -182t-96.5 -158.5t-101.5 -106.5t-61 -42q-29 0 -29 30z" />
<glyph unicode="&#x201e;" horiz-adv-x="1067" d="M164 -367q0 10 24 33q195 154 242 363q-39 -29 -84 -29q-47 0 -71.5 26.5t-24.5 63.5q0 51 40 94t97 43q107 0 107 -135q0 -88 -42 -182t-96.5 -158.5t-101.5 -106.5t-61 -42q-29 0 -29 30zM559 -367q0 10 25 33q195 154 241 363q-39 -29 -84 -29q-47 0 -71.5 26.5 t-24.5 63.5q0 51 40 94t97 43q107 0 107 -135q0 -88 -42 -182t-96.5 -158.5t-101.5 -106.5t-61 -42q-29 0 -29 30z" />
<glyph unicode="&#x2022;" horiz-adv-x="1683" d="M639 399q0 154 120 262.5t257 108.5q104 0 181 -66.5t77 -185.5q0 -152 -118 -261.5t-259 -109.5q-106 0 -182 67t-76 185z" />
<glyph unicode="&#x2026;" horiz-adv-x="1499" d="M250 92q0 55 43 95t94 40q39 0 66.5 -24.5t27.5 -67.5q0 -55 -43 -95t-94 -40q-39 0 -66.5 24.5t-27.5 67.5zM662 92q0 55 43 95t94 40q39 0 66.5 -24.5t27.5 -67.5q0 -55 -43 -95t-94 -40q-39 0 -66.5 24.5t-27.5 67.5zM1073 92q0 55 43 95t94 40q39 0 67 -24.5 t28 -67.5q0 -55 -43 -95t-95 -40q-39 0 -66.5 24.5t-27.5 67.5z" />
<glyph unicode="&#x202f;" horiz-adv-x="371" />
<glyph unicode="&#x2039;" horiz-adv-x="784" d="M350 477q-14 16 8 35q242 205 390 461q10 16 28 16h8q12 0 16.5 -9t0.5 -19q-119 -248 -305 -465q77 -221 71 -465q0 -12 -9 -21.5t-21 -9.5h-9q-18 0 -18 16q-23 260 -160 461z" />
<glyph unicode="&#x203a;" horiz-adv-x="784" d="M232.5 9q-5.5 9 0.5 22q117 246 306 465q-80 223 -74 465q0 10 10 19t21 9h8q16 0 20 -16q23 -264 160 -461q10 -17 -8 -35q-238 -197 -391 -461q-10 -16 -27 -16h-8q-12 0 -17.5 9z" />
<glyph unicode="&#x205f;" horiz-adv-x="464" />
<glyph unicode="&#x20ac;" horiz-adv-x="1265" d="M255 558q-5 9 1 22l8 16q10 18 29 18h90q4 29 16 86q16 57 27 86h-94q-12 0 -17.5 9.5t0.5 21.5l9 17q10 18 28 18h99q86 213 245 371q225 219 465 219q133 0 211 -90l90 82q6 8 21 8h8q25 0 18 -25l-75 -307q-6 -25 -31 -25h-29q-25 0 -20 23q16 111 -37 189.5 t-156 78.5q-182 0 -344 -190q-115 -135 -180 -334h588q12 0 17 -10.5t-1 -22.5l-10 -16q-6 -16 -27 -17h-588l-24 -86l-19 -86h525q12 0 17 -10t-1 -22l-8 -17q-10 -16 -29 -16h-516q-35 -199 12 -334q31 -86 94.5 -139t153.5 -53q102 0 195.5 78.5t134.5 191.5q6 20 29 20 h28q25 0 19 -24l-76 -307q-6 -25 -31 -25h-8q-10 0 -18 8l-47 82q-123 -90 -256 -90q-119 0 -210.5 59.5t-144.5 159.5q-82 154 -61 373h-103q-12 0 -17 9z" />
<glyph unicode="&#x2122;" horiz-adv-x="2123" d="M362 1139q0 4 7 20l73 219q6 14 12.5 17.5t26.5 3.5h670q35 0 35 -17l-2 -16l-35 -219q-12 -25 -25 -27q-20 0 -22 15q0 4 2 6v6v6l8 80q4 20 4 31q0 63 -34.5 79.5t-135.5 16.5q-61 0 -69 -4q-16 0 -27 -41l-164 -660q-4 -14 -4 -20q0 -12 7 -15.5t30 -7.5q23 -2 61 -2 h17q35 0 34 -18q0 -23 -26 -23q-23 0 -73 2t-75 2h-90q-23 0 -72 -2t-71 -2q-20 0 -21 17q0 25 37 24h17q80 0 100.5 11.5t30.5 50.5l162 645q2 12 6 39q-18 4 -74 4q-127 0 -173 -33t-91 -164l-15 -39q-6 -4 -18 -4q-23 0 -23 19zM1104 586q0 25 24 24q59 2 84 24.5 t35 67.5l156 621q6 16 6 27q0 18 -68 18q-37 0 -36 16q0 25 36 25h158q18 0 25.5 -3t9.5 -8t4 -22l86 -696l436 704q14 25 49 25h154q33 0 33 -18q0 -23 -37 -23q-57 0 -72.5 -10t-25.5 -47l-162 -654q-6 -12 -6 -28q0 -18 67 -19q37 0 37 -18q0 -23 -24 -23h-7.5t-15.5 1 t-25.5 2t-40 1h-53.5h-71q-37 -4 -64 -4q-18 0 -18 17q0 25 32 24q59 0 76 8.5t25 43.5l170 684h-2l-467 -752q-12 -25 -37 -25q-10 0 -15.5 4.5t-6.5 9.5t-3 17l-92 735l-162 -645q-4 -8 -4 -31q0 -49 72 -49q23 0 22 -18q0 -23 -24 -23q-2 0 -13.5 1t-38 2t-69.5 1 q-20 0 -60 -2t-58.5 -2t-18.5 17z" />
<glyph unicode="&#xe000;" horiz-adv-x="901" d="M0 0v901h901v-901h-901z" />
<glyph unicode="&#xfb01;" horiz-adv-x="1234" d="M-51 -281q0 47 29.5 80t74.5 33q72 0 72 -69.5t-70 -98.5q31 -25 76 -24q72 0 117 163q31 111 63 281l138 731h-134q-20 0 -30.5 1t-18.5 7t-8 21q0 27 13.5 33t45.5 6h146l37 198q18 98 58 169t84 107t107.5 56.5t107.5 24.5t108 4q319 0 319 -154q0 -51 -31.5 -84 t-72.5 -33q-33 0 -53.5 19.5t-20.5 50.5t18.5 55.5t36.5 34.5l19 8q-61 45 -211 45q-94 0 -151.5 -16t-92.5 -62t-50.5 -92.5t-33.5 -138.5l-37 -192h520q53 0 54 -25q0 -6 -4 -27l-160 -645q-6 -25 -6 -59q0 -90 57 -90q82 0 137 225q8 31 11.5 39t10.5 13t25 5 q39 1 39 -26q-27 -123 -69 -205q-59 -109 -158 -108q-76 0 -132.5 50t-56.5 138q0 33 11 74l143 573h-434l-125 -661q-106 -571 -340 -572q-68 0 -123 36t-55 101z" />
<glyph unicode="&#xfb02;" horiz-adv-x="1290" d="M-51 -281q0 47 29.5 80t74.5 33q72 0 72 -69.5t-72 -98.5q29 -25 78 -24q18 0 27.5 3t29 24.5t36 62.5t39 125t44.5 204l144 756h-136q-57 0 -57 29q0 27 14.5 33t46.5 6h144q41 225 63.5 301t71.5 137q100 121 330 121q270 0 276 -131h2q2 8 8.5 32.5t10.5 38.5 q8 29 16 34t43 5h33q20 0 29.5 -1t16.5 -6t7 -17l-299 -1211q-6 -25 -6 -59q0 -90 57 -90q82 0 138 225q8 31 11 39t10 13t26 5q39 1 39 -26q-27 -123 -70 -205q-59 -109 -158 -108q-76 0 -132 50t-56 138q0 33 10 74l143 573h-491l-139 -731q-14 -80 -37 -153.5t-61 -159.5 t-96 -137.5t-130 -51.5t-126 37t-54 100zM604 883h496l88 354h-2q-8 -16 -33 -30.5t-53 -14.5q-72 0 -72 70q0 39 22.5 63.5t41.5 30.5q-55 29 -162 28q-193 0 -246 -139q-16 -47 -80 -362z" />
<glyph unicode="&#xfb03;" horiz-adv-x="1937" d="M-51 -281q0 47 29.5 80t74.5 33q72 0 72 -69.5t-72 -98.5q29 -25 78 -24q18 0 28.5 3t30 24.5t36 63.5t39 128t44.5 209l142 747h-134q-59 0 -59 29q0 27 14.5 33t46.5 6h144q39 209 61.5 288.5t65.5 137.5q102 133 332 133q270 0 270 -137q0 -47 -29.5 -80t-75.5 -33 q-72 0 -71 70q0 39 22.5 63.5t40.5 30.5q-53 29 -155 28q-190 0 -240 -143q-29 -78 -78 -358h529l36 190q18 102 61.5 176t87.5 110t111.5 56.5t110.5 23.5t109 3q336 0 336 -152q0 -53 -31 -86t-74 -33q-33 0 -53.5 19.5t-20.5 50.5q0 8 2 21.5t21.5 39t52.5 35.5 q-61 47 -229 47q-49 0 -86 -5t-69 -10t-55.5 -24.5t-41 -34t-33.5 -52t-26.5 -63.5t-22.5 -86t-20.5 -101t-22.5 -125h549q53 0 53 -25q0 -6 -4 -27l-160 -645q-6 -25 -6 -59q0 -90 57 -90q82 0 138 225q8 31 11 39t10 13t26 5q39 1 39 -26q-27 -123 -70 -205 q-59 -109 -158 -108q-76 0 -132 50t-56 138q0 33 10 74l144 573h-463l-121 -639q-74 -332 -144 -428q-135 -166 -309 -166q-98 0 -162.5 36t-64.5 101q0 47 29.5 80t74.5 33q72 0 72 -70q0 -68 -66 -94q47 -29 119 -28q80 0 158 77q49 51 80 156q37 127 61 254l129 688h-530 l-123 -657q-20 -109 -44 -193t-62.5 -180t-99 -149.5t-134.5 -53.5q-72 0 -126 37t-54 100z" />
<glyph unicode="&#xfb04;" horiz-adv-x="1966" d="M-51 -281q0 47 29.5 80t74.5 33q72 0 72 -69.5t-72 -98.5q29 -25 78 -24q72 0 117 161q39 139 59 256l144 758h-134q-57 0 -57 29q0 27 13.5 33t45.5 6h144l41 213q31 164 119 255t270 91q125 0 184.5 -40t59.5 -97q0 -47 -30 -80t-75 -33q-72 0 -71 70q0 66 65 92 q-51 31 -131 30q-74 0 -122 -27.5t-64 -51.5q-33 -55 -70 -246q-6 -33 -33 -176h531q39 219 63.5 300t79.5 146q96 113 322 113q270 0 276 -131h2q2 8 8 32.5t10 38.5q8 29 16.5 34t43.5 5h33q20 0 29.5 -1t16.5 -6t7 -17l-299 -1211q-6 -25 -6 -59q0 -90 57 -90 q82 0 137 225q8 31 11.5 39t10.5 13t25 5q39 1 39 -26q-27 -123 -69 -205q-59 -109 -158 -108q-76 0 -132 50t-56 138q0 33 10 74l143 573h-491l-131 -688q-33 -174 -97 -315q-39 -86 -136 -158t-210 -72q-98 0 -162.5 36t-64.5 101q0 47 29.5 80t74.5 33q72 0 72 -70 q0 -68 -66 -94q47 -29 119 -28q70 0 128.5 51t78.5 96q41 84 90 336l131 692h-528l-127 -668q-104 -565 -338 -565q-72 0 -126 37t-54 100zM1278 883h496l88 354h-2q-8 -16 -33 -30.5t-53 -14.5q-72 0 -72 70q0 39 22.5 63.5t40.5 30.5q-55 29 -161 28q-193 0 -246 -137 q-27 -72 -80 -364z" />
</font>
</defs>
</svg>
